<mxfile host="app.diagrams.net" agent="Mozilla/5.0 (Macintosh; Intel Mac OS X 10_15_7) AppleWebKit/605.1.15 (KHTML, like Gecko) Version/18.4 Safari/605.1.15" version="27.0.5" pages="4">
  <diagram name="Page-1" id="QlaETfkny-LfmE3u2llZ">
    <mxGraphModel dx="1214" dy="585" grid="1" gridSize="10" guides="1" tooltips="1" connect="1" arrows="1" fold="1" page="1" pageScale="1" pageWidth="1169" pageHeight="827" math="0" shadow="0">
      <root>
        <mxCell id="0" />
        <mxCell id="1" parent="0" />
        <mxCell id="4M4MycauOdZqBTipRDvR-1" value="UML diagrams" style="ellipse;aspect=fixed;strokeWidth=2;whiteSpace=wrap;" vertex="1" parent="1">
          <mxGeometry x="377" y="164" width="119" height="119" as="geometry" />
        </mxCell>
        <mxCell id="4M4MycauOdZqBTipRDvR-2" value="Behaviour diagrams" style="rounded=1;absoluteArcSize=1;arcSize=14;whiteSpace=wrap;strokeWidth=2;" vertex="1" parent="1">
          <mxGeometry x="550" y="255" width="160" height="37" as="geometry" />
        </mxCell>
        <mxCell id="4M4MycauOdZqBTipRDvR-3" value="Activity diagrams" style="rounded=1;absoluteArcSize=1;arcSize=14;whiteSpace=wrap;strokeWidth=2;" vertex="1" parent="1">
          <mxGeometry x="347" y="296" width="144" height="37" as="geometry" />
        </mxCell>
        <mxCell id="4M4MycauOdZqBTipRDvR-4" value="Use case diagrams" style="rounded=1;absoluteArcSize=1;arcSize=14;whiteSpace=wrap;strokeWidth=2;" vertex="1" parent="1">
          <mxGeometry x="702" y="315" width="151" height="37" as="geometry" />
        </mxCell>
        <mxCell id="4M4MycauOdZqBTipRDvR-5" value="State machine diagrams" style="rounded=1;absoluteArcSize=1;arcSize=14;whiteSpace=wrap;strokeWidth=2;" vertex="1" parent="1">
          <mxGeometry x="482" y="343" width="192" height="37" as="geometry" />
        </mxCell>
        <mxCell id="4M4MycauOdZqBTipRDvR-6" value="Interaction diagrams" style="rounded=1;absoluteArcSize=1;arcSize=14;whiteSpace=wrap;strokeWidth=2;" vertex="1" parent="1">
          <mxGeometry x="704" y="192" width="168" height="37" as="geometry" />
        </mxCell>
        <mxCell id="4M4MycauOdZqBTipRDvR-7" value="Sequence diagrams" style="rounded=1;absoluteArcSize=1;arcSize=14;whiteSpace=wrap;strokeWidth=2;" vertex="1" parent="1">
          <mxGeometry x="934" y="209" width="157" height="37" as="geometry" />
        </mxCell>
        <mxCell id="4M4MycauOdZqBTipRDvR-8" value="Communication diagrams" style="rounded=1;absoluteArcSize=1;arcSize=14;whiteSpace=wrap;strokeWidth=2;" vertex="1" parent="1">
          <mxGeometry x="857" y="135" width="200" height="37" as="geometry" />
        </mxCell>
        <mxCell id="4M4MycauOdZqBTipRDvR-9" value="Interaction overview diagrams" style="rounded=1;absoluteArcSize=1;arcSize=14;whiteSpace=wrap;strokeWidth=2;" vertex="1" parent="1">
          <mxGeometry x="670" y="84" width="168" height="55" as="geometry" />
        </mxCell>
        <mxCell id="4M4MycauOdZqBTipRDvR-10" value="Timing diagrams" style="rounded=1;absoluteArcSize=1;arcSize=14;whiteSpace=wrap;strokeWidth=2;" vertex="1" parent="1">
          <mxGeometry x="814" y="261" width="138" height="37" as="geometry" />
        </mxCell>
        <mxCell id="4M4MycauOdZqBTipRDvR-11" value="Structure diagrams" style="rounded=1;absoluteArcSize=1;arcSize=14;whiteSpace=wrap;strokeWidth=2;" vertex="1" parent="1">
          <mxGeometry x="262" y="122" width="156" height="37" as="geometry" />
        </mxCell>
        <mxCell id="4M4MycauOdZqBTipRDvR-12" value="Class diagrams" style="rounded=1;absoluteArcSize=1;arcSize=14;whiteSpace=wrap;strokeWidth=2;" vertex="1" parent="1">
          <mxGeometry x="482" y="157" width="125" height="37" as="geometry" />
        </mxCell>
        <mxCell id="4M4MycauOdZqBTipRDvR-13" value="Package diagrams" style="rounded=1;absoluteArcSize=1;arcSize=14;whiteSpace=wrap;strokeWidth=2;" vertex="1" parent="1">
          <mxGeometry x="491" y="87" width="148" height="37" as="geometry" />
        </mxCell>
        <mxCell id="4M4MycauOdZqBTipRDvR-14" value="Object diagrams" style="rounded=1;absoluteArcSize=1;arcSize=14;whiteSpace=wrap;strokeWidth=2;" vertex="1" parent="1">
          <mxGeometry x="341" y="44" width="138" height="37" as="geometry" />
        </mxCell>
        <mxCell id="4M4MycauOdZqBTipRDvR-15" value="Composite structure diagrams" style="rounded=1;absoluteArcSize=1;arcSize=14;whiteSpace=wrap;strokeWidth=2;" vertex="1" parent="1">
          <mxGeometry x="159" y="20" width="166" height="55" as="geometry" />
        </mxCell>
        <mxCell id="4M4MycauOdZqBTipRDvR-16" value="Component diagrams" style="rounded=1;absoluteArcSize=1;arcSize=14;whiteSpace=wrap;strokeWidth=2;" vertex="1" parent="1">
          <mxGeometry x="31" y="87" width="171" height="37" as="geometry" />
        </mxCell>
        <mxCell id="4M4MycauOdZqBTipRDvR-17" value="Profile diagrams" style="rounded=1;absoluteArcSize=1;arcSize=14;whiteSpace=wrap;strokeWidth=2;" vertex="1" parent="1">
          <mxGeometry x="215" y="203" width="137" height="37" as="geometry" />
        </mxCell>
        <mxCell id="4M4MycauOdZqBTipRDvR-18" value="Deployment diagrams" style="rounded=1;absoluteArcSize=1;arcSize=14;whiteSpace=wrap;strokeWidth=2;" vertex="1" parent="1">
          <mxGeometry x="20" y="164" width="175" height="37" as="geometry" />
        </mxCell>
        <mxCell id="4M4MycauOdZqBTipRDvR-19" style="endArrow=none;rounded=0;" edge="1" parent="1" source="4M4MycauOdZqBTipRDvR-1" target="4M4MycauOdZqBTipRDvR-2">
          <mxGeometry relative="1" as="geometry" />
        </mxCell>
        <mxCell id="4M4MycauOdZqBTipRDvR-20" style="endArrow=none;rounded=0;" edge="1" parent="1" source="4M4MycauOdZqBTipRDvR-1" target="4M4MycauOdZqBTipRDvR-11">
          <mxGeometry relative="1" as="geometry" />
        </mxCell>
        <mxCell id="4M4MycauOdZqBTipRDvR-21" style="endArrow=none;rounded=0;" edge="1" parent="1" source="4M4MycauOdZqBTipRDvR-2" target="4M4MycauOdZqBTipRDvR-3">
          <mxGeometry relative="1" as="geometry" />
        </mxCell>
        <mxCell id="4M4MycauOdZqBTipRDvR-22" style="endArrow=none;rounded=0;" edge="1" parent="1" source="4M4MycauOdZqBTipRDvR-2" target="4M4MycauOdZqBTipRDvR-4">
          <mxGeometry relative="1" as="geometry" />
        </mxCell>
        <mxCell id="4M4MycauOdZqBTipRDvR-23" style="endArrow=none;rounded=0;" edge="1" parent="1" source="4M4MycauOdZqBTipRDvR-2" target="4M4MycauOdZqBTipRDvR-5">
          <mxGeometry relative="1" as="geometry" />
        </mxCell>
        <mxCell id="4M4MycauOdZqBTipRDvR-24" style="endArrow=none;rounded=0;" edge="1" parent="1" source="4M4MycauOdZqBTipRDvR-2" target="4M4MycauOdZqBTipRDvR-6">
          <mxGeometry relative="1" as="geometry" />
        </mxCell>
        <mxCell id="4M4MycauOdZqBTipRDvR-25" style="endArrow=none;rounded=0;" edge="1" parent="1" source="4M4MycauOdZqBTipRDvR-6" target="4M4MycauOdZqBTipRDvR-7">
          <mxGeometry relative="1" as="geometry" />
        </mxCell>
        <mxCell id="4M4MycauOdZqBTipRDvR-26" style="endArrow=none;rounded=0;" edge="1" parent="1" source="4M4MycauOdZqBTipRDvR-6" target="4M4MycauOdZqBTipRDvR-8">
          <mxGeometry relative="1" as="geometry" />
        </mxCell>
        <mxCell id="4M4MycauOdZqBTipRDvR-27" style="endArrow=none;rounded=0;" edge="1" parent="1" source="4M4MycauOdZqBTipRDvR-6" target="4M4MycauOdZqBTipRDvR-9">
          <mxGeometry relative="1" as="geometry" />
        </mxCell>
        <mxCell id="4M4MycauOdZqBTipRDvR-28" style="endArrow=none;rounded=0;" edge="1" parent="1" source="4M4MycauOdZqBTipRDvR-6" target="4M4MycauOdZqBTipRDvR-10">
          <mxGeometry relative="1" as="geometry" />
        </mxCell>
        <mxCell id="4M4MycauOdZqBTipRDvR-29" style="endArrow=none;rounded=0;" edge="1" parent="1" source="4M4MycauOdZqBTipRDvR-11" target="4M4MycauOdZqBTipRDvR-12">
          <mxGeometry relative="1" as="geometry" />
        </mxCell>
        <mxCell id="4M4MycauOdZqBTipRDvR-30" style="endArrow=none;rounded=0;" edge="1" parent="1" source="4M4MycauOdZqBTipRDvR-11" target="4M4MycauOdZqBTipRDvR-13">
          <mxGeometry relative="1" as="geometry" />
        </mxCell>
        <mxCell id="4M4MycauOdZqBTipRDvR-31" style="endArrow=none;rounded=0;" edge="1" parent="1" source="4M4MycauOdZqBTipRDvR-11" target="4M4MycauOdZqBTipRDvR-14">
          <mxGeometry relative="1" as="geometry" />
        </mxCell>
        <mxCell id="4M4MycauOdZqBTipRDvR-32" style="endArrow=none;rounded=0;" edge="1" parent="1" source="4M4MycauOdZqBTipRDvR-11" target="4M4MycauOdZqBTipRDvR-15">
          <mxGeometry relative="1" as="geometry" />
        </mxCell>
        <mxCell id="4M4MycauOdZqBTipRDvR-33" style="endArrow=none;rounded=0;" edge="1" parent="1" source="4M4MycauOdZqBTipRDvR-11" target="4M4MycauOdZqBTipRDvR-16">
          <mxGeometry relative="1" as="geometry" />
        </mxCell>
        <mxCell id="4M4MycauOdZqBTipRDvR-34" style="endArrow=none;rounded=0;" edge="1" parent="1" source="4M4MycauOdZqBTipRDvR-11" target="4M4MycauOdZqBTipRDvR-17">
          <mxGeometry relative="1" as="geometry" />
        </mxCell>
        <mxCell id="4M4MycauOdZqBTipRDvR-35" style="endArrow=none;rounded=0;" edge="1" parent="1" source="4M4MycauOdZqBTipRDvR-11" target="4M4MycauOdZqBTipRDvR-18">
          <mxGeometry relative="1" as="geometry" />
        </mxCell>
      </root>
    </mxGraphModel>
  </diagram>
  <diagram id="MpmI0AAVwJGZoYeG-VBc" name="Page-2">
    <mxGraphModel dx="1214" dy="585" grid="1" gridSize="10" guides="1" tooltips="1" connect="1" arrows="1" fold="1" page="1" pageScale="1" pageWidth="1169" pageHeight="827" background="none" math="0" shadow="0">
      <root>
        <mxCell id="0" />
        <mxCell id="1" parent="0" />
        <UserObject label="" mermaidData="{&#xa;  &quot;data&quot;: &quot;mindmap\n  root((UML diagrams))\n    Behaviour diagrams\n      Activity diagrams\n      Use case diagrams\n      State machine diagrams\n      Interaction diagrams\n        Sequence diagrams\n        Communication diagrams\n        Interaction overview diagrams\n        Timing diagrams\n    Structure diagrams\n      Class diagrams\n      Package diagrams\n      Object diagrams\n      Composite structure diagrams\n      Component diagrams\n      Profile diagrams\n      Deployment diagrams&quot;&#xa;}" id="9mpl0XCl7sdA-BAy_7J3-1">
          <mxCell style="shape=image;noLabel=1;verticalAlign=top;imageAspect=1;image=data:image/svg+xml,PHN2ZyBhcmlhLXJvbGVkZXNjcmlwdGlvbj0ibWluZG1hcCIgcm9sZT0iZ3JhcGhpY3MtZG9jdW1lbnQgZG9jdW1lbnQiIHZpZXdCb3g9IjUgNSAxMDkxLjU3ODI0NzA3MDMxMjUgMzgwLjA2MTA5NjE5MTQwNjI1IiBzdHlsZT0ibWF4LXdpZHRoOiAxMDkxLjU3ODI0NzA3MDMxMjVweDsiIHhtbG5zPSJodHRwOi8vd3d3LnczLm9yZy8yMDAwL3N2ZyIgd2lkdGg9IjEwMCUiIGlkPSJnZU1lcm1haWRPdXRwdXQtMTc0NzQwMjcxNDg4MSI+PHN0eWxlPiNnZU1lcm1haWRPdXRwdXQtMTc0NzQwMjcxNDg4MXtmb250LWZhbWlseToidHJlYnVjaGV0IG1zIix2ZXJkYW5hLGFyaWFsLHNhbnMtc2VyaWY7Zm9udC1zaXplOjE2cHg7ZmlsbDojMDAwMDAwO31Aa2V5ZnJhbWVzIGVkZ2UtYW5pbWF0aW9uLWZyYW1le2Zyb217c3Ryb2tlLWRhc2hvZmZzZXQ6MDt9fUBrZXlmcmFtZXMgZGFzaHt0b3tzdHJva2UtZGFzaG9mZnNldDowO319I2dlTWVybWFpZE91dHB1dC0xNzQ3NDAyNzE0ODgxIC5lZGdlLWFuaW1hdGlvbi1zbG93e3N0cm9rZS1kYXNoYXJyYXk6OSw1IWltcG9ydGFudDtzdHJva2UtZGFzaG9mZnNldDo5MDA7YW5pbWF0aW9uOmRhc2ggNTBzIGxpbmVhciBpbmZpbml0ZTtzdHJva2UtbGluZWNhcDpyb3VuZDt9I2dlTWVybWFpZE91dHB1dC0xNzQ3NDAyNzE0ODgxIC5lZGdlLWFuaW1hdGlvbi1mYXN0e3N0cm9rZS1kYXNoYXJyYXk6OSw1IWltcG9ydGFudDtzdHJva2UtZGFzaG9mZnNldDo5MDA7YW5pbWF0aW9uOmRhc2ggMjBzIGxpbmVhciBpbmZpbml0ZTtzdHJva2UtbGluZWNhcDpyb3VuZDt9I2dlTWVybWFpZE91dHB1dC0xNzQ3NDAyNzE0ODgxIC5lcnJvci1pY29ue2ZpbGw6IzU1MjIyMjt9I2dlTWVybWFpZE91dHB1dC0xNzQ3NDAyNzE0ODgxIC5lcnJvci10ZXh0e2ZpbGw6IzU1MjIyMjtzdHJva2U6IzU1MjIyMjt9I2dlTWVybWFpZE91dHB1dC0xNzQ3NDAyNzE0ODgxIC5lZGdlLXRoaWNrbmVzcy1ub3JtYWx7c3Ryb2tlLXdpZHRoOjFweDt9I2dlTWVybWFpZE91dHB1dC0xNzQ3NDAyNzE0ODgxIC5lZGdlLXRoaWNrbmVzcy10aGlja3tzdHJva2Utd2lkdGg6My41cHg7fSNnZU1lcm1haWRPdXRwdXQtMTc0NzQwMjcxNDg4MSAuZWRnZS1wYXR0ZXJuLXNvbGlke3N0cm9rZS1kYXNoYXJyYXk6MDt9I2dlTWVybWFpZE91dHB1dC0xNzQ3NDAyNzE0ODgxIC5lZGdlLXRoaWNrbmVzcy1pbnZpc2libGV7c3Ryb2tlLXdpZHRoOjA7ZmlsbDpub25lO30jZ2VNZXJtYWlkT3V0cHV0LTE3NDc0MDI3MTQ4ODEgLmVkZ2UtcGF0dGVybi1kYXNoZWR7c3Ryb2tlLWRhc2hhcnJheTozO30jZ2VNZXJtYWlkT3V0cHV0LTE3NDc0MDI3MTQ4ODEgLmVkZ2UtcGF0dGVybi1kb3R0ZWR7c3Ryb2tlLWRhc2hhcnJheToyO30jZ2VNZXJtYWlkT3V0cHV0LTE3NDc0MDI3MTQ4ODEgLm1hcmtlcntmaWxsOiM2NjY7c3Ryb2tlOiM2NjY7fSNnZU1lcm1haWRPdXRwdXQtMTc0NzQwMjcxNDg4MSAubWFya2VyLmNyb3Nze3N0cm9rZTojNjY2O30jZ2VNZXJtYWlkT3V0cHV0LTE3NDc0MDI3MTQ4ODEgc3Zne2ZvbnQtZmFtaWx5OiJ0cmVidWNoZXQgbXMiLHZlcmRhbmEsYXJpYWwsc2Fucy1zZXJpZjtmb250LXNpemU6MTZweDt9I2dlTWVybWFpZE91dHB1dC0xNzQ3NDAyNzE0ODgxIHB7bWFyZ2luOjA7fSNnZU1lcm1haWRPdXRwdXQtMTc0NzQwMjcxNDg4MSAuZWRnZXtzdHJva2Utd2lkdGg6Mzt9I2dlTWVybWFpZE91dHB1dC0xNzQ3NDAyNzE0ODgxIC5zZWN0aW9uLS0xIHJlY3QsI2dlTWVybWFpZE91dHB1dC0xNzQ3NDAyNzE0ODgxIC5zZWN0aW9uLS0xIHBhdGgsI2dlTWVybWFpZE91dHB1dC0xNzQ3NDAyNzE0ODgxIC5zZWN0aW9uLS0xIGNpcmNsZSwjZ2VNZXJtYWlkT3V0cHV0LTE3NDc0MDI3MTQ4ODEgLnNlY3Rpb24tLTEgcG9seWdvbiwjZ2VNZXJtYWlkT3V0cHV0LTE3NDc0MDI3MTQ4ODEgLnNlY3Rpb24tLTEgcGF0aHtmaWxsOiM1NTU7fSNnZU1lcm1haWRPdXRwdXQtMTc0NzQwMjcxNDg4MSAuc2VjdGlvbi0tMSB0ZXh0e2ZpbGw6I0Y0RjRGNDt9I2dlTWVybWFpZE91dHB1dC0xNzQ3NDAyNzE0ODgxIC5ub2RlLWljb24tLTF7Zm9udC1zaXplOjQwcHg7Y29sb3I6I0Y0RjRGNDt9I2dlTWVybWFpZE91dHB1dC0xNzQ3NDAyNzE0ODgxIC5zZWN0aW9uLWVkZ2UtLTF7c3Ryb2tlOiM1NTU7fSNnZU1lcm1haWRPdXRwdXQtMTc0NzQwMjcxNDg4MSAuZWRnZS1kZXB0aC0tMXtzdHJva2Utd2lkdGg6MTc7fSNnZU1lcm1haWRPdXRwdXQtMTc0NzQwMjcxNDg4MSAuc2VjdGlvbi0tMSBsaW5le3N0cm9rZTojYWFhYWFhO3N0cm9rZS13aWR0aDozO30jZ2VNZXJtYWlkT3V0cHV0LTE3NDc0MDI3MTQ4ODEgLmRpc2FibGVkLCNnZU1lcm1haWRPdXRwdXQtMTc0NzQwMjcxNDg4MSAuZGlzYWJsZWQgY2lyY2xlLCNnZU1lcm1haWRPdXRwdXQtMTc0NzQwMjcxNDg4MSAuZGlzYWJsZWQgdGV4dHtmaWxsOmxpZ2h0Z3JheTt9I2dlTWVybWFpZE91dHB1dC0xNzQ3NDAyNzE0ODgxIC5kaXNhYmxlZCB0ZXh0e2ZpbGw6I2VmZWZlZjt9I2dlTWVybWFpZE91dHB1dC0xNzQ3NDAyNzE0ODgxIC5zZWN0aW9uLTAgcmVjdCwjZ2VNZXJtYWlkT3V0cHV0LTE3NDc0MDI3MTQ4ODEgLnNlY3Rpb24tMCBwYXRoLCNnZU1lcm1haWRPdXRwdXQtMTc0NzQwMjcxNDg4MSAuc2VjdGlvbi0wIGNpcmNsZSwjZ2VNZXJtYWlkT3V0cHV0LTE3NDc0MDI3MTQ4ODEgLnNlY3Rpb24tMCBwb2x5Z29uLCNnZU1lcm1haWRPdXRwdXQtMTc0NzQwMjcxNDg4MSAuc2VjdGlvbi0wIHBhdGh7ZmlsbDojRjRGNEY0O30jZ2VNZXJtYWlkT3V0cHV0LTE3NDc0MDI3MTQ4ODEgLnNlY3Rpb24tMCB0ZXh0e2ZpbGw6IzMzMzt9I2dlTWVybWFpZE91dHB1dC0xNzQ3NDAyNzE0ODgxIC5ub2RlLWljb24tMHtmb250LXNpemU6NDBweDtjb2xvcjojMzMzO30jZ2VNZXJtYWlkT3V0cHV0LTE3NDc0MDI3MTQ4ODEgLnNlY3Rpb24tZWRnZS0we3N0cm9rZTojRjRGNEY0O30jZ2VNZXJtYWlkT3V0cHV0LTE3NDc0MDI3MTQ4ODEgLmVkZ2UtZGVwdGgtMHtzdHJva2Utd2lkdGg6MTQ7fSNnZU1lcm1haWRPdXRwdXQtMTc0NzQwMjcxNDg4MSAuc2VjdGlvbi0wIGxpbmV7c3Ryb2tlOiMwYjBiMGI7c3Ryb2tlLXdpZHRoOjM7fSNnZU1lcm1haWRPdXRwdXQtMTc0NzQwMjcxNDg4MSAuZGlzYWJsZWQsI2dlTWVybWFpZE91dHB1dC0xNzQ3NDAyNzE0ODgxIC5kaXNhYmxlZCBjaXJjbGUsI2dlTWVybWFpZE91dHB1dC0xNzQ3NDAyNzE0ODgxIC5kaXNhYmxlZCB0ZXh0e2ZpbGw6bGlnaHRncmF5O30jZ2VNZXJtYWlkT3V0cHV0LTE3NDc0MDI3MTQ4ODEgLmRpc2FibGVkIHRleHR7ZmlsbDojZWZlZmVmO30jZ2VNZXJtYWlkT3V0cHV0LTE3NDc0MDI3MTQ4ODEgLnNlY3Rpb24tMSByZWN0LCNnZU1lcm1haWRPdXRwdXQtMTc0NzQwMjcxNDg4MSAuc2VjdGlvbi0xIHBhdGgsI2dlTWVybWFpZE91dHB1dC0xNzQ3NDAyNzE0ODgxIC5zZWN0aW9uLTEgY2lyY2xlLCNnZU1lcm1haWRPdXRwdXQtMTc0NzQwMjcxNDg4MSAuc2VjdGlvbi0xIHBvbHlnb24sI2dlTWVybWFpZE91dHB1dC0xNzQ3NDAyNzE0ODgxIC5zZWN0aW9uLTEgcGF0aHtmaWxsOiM1NTU7fSNnZU1lcm1haWRPdXRwdXQtMTc0NzQwMjcxNDg4MSAuc2VjdGlvbi0xIHRleHR7ZmlsbDojRjRGNEY0O30jZ2VNZXJtYWlkT3V0cHV0LTE3NDc0MDI3MTQ4ODEgLm5vZGUtaWNvbi0xe2ZvbnQtc2l6ZTo0MHB4O2NvbG9yOiNGNEY0RjQ7fSNnZU1lcm1haWRPdXRwdXQtMTc0NzQwMjcxNDg4MSAuc2VjdGlvbi1lZGdlLTF7c3Ryb2tlOiM1NTU7fSNnZU1lcm1haWRPdXRwdXQtMTc0NzQwMjcxNDg4MSAuZWRnZS1kZXB0aC0xe3N0cm9rZS13aWR0aDoxMTt9I2dlTWVybWFpZE91dHB1dC0xNzQ3NDAyNzE0ODgxIC5zZWN0aW9uLTEgbGluZXtzdHJva2U6I2FhYWFhYTtzdHJva2Utd2lkdGg6Mzt9I2dlTWVybWFpZE91dHB1dC0xNzQ3NDAyNzE0ODgxIC5kaXNhYmxlZCwjZ2VNZXJtYWlkT3V0cHV0LTE3NDc0MDI3MTQ4ODEgLmRpc2FibGVkIGNpcmNsZSwjZ2VNZXJtYWlkT3V0cHV0LTE3NDc0MDI3MTQ4ODEgLmRpc2FibGVkIHRleHR7ZmlsbDpsaWdodGdyYXk7fSNnZU1lcm1haWRPdXRwdXQtMTc0NzQwMjcxNDg4MSAuZGlzYWJsZWQgdGV4dHtmaWxsOiNlZmVmZWY7fSNnZU1lcm1haWRPdXRwdXQtMTc0NzQwMjcxNDg4MSAuc2VjdGlvbi0yIHJlY3QsI2dlTWVybWFpZE91dHB1dC0xNzQ3NDAyNzE0ODgxIC5zZWN0aW9uLTIgcGF0aCwjZ2VNZXJtYWlkT3V0cHV0LTE3NDc0MDI3MTQ4ODEgLnNlY3Rpb24tMiBjaXJjbGUsI2dlTWVybWFpZE91dHB1dC0xNzQ3NDAyNzE0ODgxIC5zZWN0aW9uLTIgcG9seWdvbiwjZ2VNZXJtYWlkT3V0cHV0LTE3NDc0MDI3MTQ4ODEgLnNlY3Rpb24tMiBwYXRoe2ZpbGw6I0JCQjt9I2dlTWVybWFpZE91dHB1dC0xNzQ3NDAyNzE0ODgxIC5zZWN0aW9uLTIgdGV4dHtmaWxsOiMzMzM7fSNnZU1lcm1haWRPdXRwdXQtMTc0NzQwMjcxNDg4MSAubm9kZS1pY29uLTJ7Zm9udC1zaXplOjQwcHg7Y29sb3I6IzMzMzt9I2dlTWVybWFpZE91dHB1dC0xNzQ3NDAyNzE0ODgxIC5zZWN0aW9uLWVkZ2UtMntzdHJva2U6I0JCQjt9I2dlTWVybWFpZE91dHB1dC0xNzQ3NDAyNzE0ODgxIC5lZGdlLWRlcHRoLTJ7c3Ryb2tlLXdpZHRoOjg7fSNnZU1lcm1haWRPdXRwdXQtMTc0NzQwMjcxNDg4MSAuc2VjdGlvbi0yIGxpbmV7c3Ryb2tlOiM0NDQ0NDQ7c3Ryb2tlLXdpZHRoOjM7fSNnZU1lcm1haWRPdXRwdXQtMTc0NzQwMjcxNDg4MSAuZGlzYWJsZWQsI2dlTWVybWFpZE91dHB1dC0xNzQ3NDAyNzE0ODgxIC5kaXNhYmxlZCBjaXJjbGUsI2dlTWVybWFpZE91dHB1dC0xNzQ3NDAyNzE0ODgxIC5kaXNhYmxlZCB0ZXh0e2ZpbGw6bGlnaHRncmF5O30jZ2VNZXJtYWlkT3V0cHV0LTE3NDc0MDI3MTQ4ODEgLmRpc2FibGVkIHRleHR7ZmlsbDojZWZlZmVmO30jZ2VNZXJtYWlkT3V0cHV0LTE3NDc0MDI3MTQ4ODEgLnNlY3Rpb24tMyByZWN0LCNnZU1lcm1haWRPdXRwdXQtMTc0NzQwMjcxNDg4MSAuc2VjdGlvbi0zIHBhdGgsI2dlTWVybWFpZE91dHB1dC0xNzQ3NDAyNzE0ODgxIC5zZWN0aW9uLTMgY2lyY2xlLCNnZU1lcm1haWRPdXRwdXQtMTc0NzQwMjcxNDg4MSAuc2VjdGlvbi0zIHBvbHlnb24sI2dlTWVybWFpZE91dHB1dC0xNzQ3NDAyNzE0ODgxIC5zZWN0aW9uLTMgcGF0aHtmaWxsOiM3Nzc7fSNnZU1lcm1haWRPdXRwdXQtMTc0NzQwMjcxNDg4MSAuc2VjdGlvbi0zIHRleHR7ZmlsbDojMzMzO30jZ2VNZXJtYWlkT3V0cHV0LTE3NDc0MDI3MTQ4ODEgLm5vZGUtaWNvbi0ze2ZvbnQtc2l6ZTo0MHB4O2NvbG9yOiMzMzM7fSNnZU1lcm1haWRPdXRwdXQtMTc0NzQwMjcxNDg4MSAuc2VjdGlvbi1lZGdlLTN7c3Ryb2tlOiM3Nzc7fSNnZU1lcm1haWRPdXRwdXQtMTc0NzQwMjcxNDg4MSAuZWRnZS1kZXB0aC0ze3N0cm9rZS13aWR0aDo1O30jZ2VNZXJtYWlkT3V0cHV0LTE3NDc0MDI3MTQ4ODEgLnNlY3Rpb24tMyBsaW5le3N0cm9rZTojODg4ODg4O3N0cm9rZS13aWR0aDozO30jZ2VNZXJtYWlkT3V0cHV0LTE3NDc0MDI3MTQ4ODEgLmRpc2FibGVkLCNnZU1lcm1haWRPdXRwdXQtMTc0NzQwMjcxNDg4MSAuZGlzYWJsZWQgY2lyY2xlLCNnZU1lcm1haWRPdXRwdXQtMTc0NzQwMjcxNDg4MSAuZGlzYWJsZWQgdGV4dHtmaWxsOmxpZ2h0Z3JheTt9I2dlTWVybWFpZE91dHB1dC0xNzQ3NDAyNzE0ODgxIC5kaXNhYmxlZCB0ZXh0e2ZpbGw6I2VmZWZlZjt9I2dlTWVybWFpZE91dHB1dC0xNzQ3NDAyNzE0ODgxIC5zZWN0aW9uLTQgcmVjdCwjZ2VNZXJtYWlkT3V0cHV0LTE3NDc0MDI3MTQ4ODEgLnNlY3Rpb24tNCBwYXRoLCNnZU1lcm1haWRPdXRwdXQtMTc0NzQwMjcxNDg4MSAuc2VjdGlvbi00IGNpcmNsZSwjZ2VNZXJtYWlkT3V0cHV0LTE3NDc0MDI3MTQ4ODEgLnNlY3Rpb24tNCBwb2x5Z29uLCNnZU1lcm1haWRPdXRwdXQtMTc0NzQwMjcxNDg4MSAuc2VjdGlvbi00IHBhdGh7ZmlsbDojOTk5O30jZ2VNZXJtYWlkT3V0cHV0LTE3NDc0MDI3MTQ4ODEgLnNlY3Rpb24tNCB0ZXh0e2ZpbGw6IzMzMzt9I2dlTWVybWFpZE91dHB1dC0xNzQ3NDAyNzE0ODgxIC5ub2RlLWljb24tNHtmb250LXNpemU6NDBweDtjb2xvcjojMzMzO30jZ2VNZXJtYWlkT3V0cHV0LTE3NDc0MDI3MTQ4ODEgLnNlY3Rpb24tZWRnZS00e3N0cm9rZTojOTk5O30jZ2VNZXJtYWlkT3V0cHV0LTE3NDc0MDI3MTQ4ODEgLmVkZ2UtZGVwdGgtNHtzdHJva2Utd2lkdGg6Mjt9I2dlTWVybWFpZE91dHB1dC0xNzQ3NDAyNzE0ODgxIC5zZWN0aW9uLTQgbGluZXtzdHJva2U6IzY2NjY2NjtzdHJva2Utd2lkdGg6Mzt9I2dlTWVybWFpZE91dHB1dC0xNzQ3NDAyNzE0ODgxIC5kaXNhYmxlZCwjZ2VNZXJtYWlkT3V0cHV0LTE3NDc0MDI3MTQ4ODEgLmRpc2FibGVkIGNpcmNsZSwjZ2VNZXJtYWlkT3V0cHV0LTE3NDc0MDI3MTQ4ODEgLmRpc2FibGVkIHRleHR7ZmlsbDpsaWdodGdyYXk7fSNnZU1lcm1haWRPdXRwdXQtMTc0NzQwMjcxNDg4MSAuZGlzYWJsZWQgdGV4dHtmaWxsOiNlZmVmZWY7fSNnZU1lcm1haWRPdXRwdXQtMTc0NzQwMjcxNDg4MSAuc2VjdGlvbi01IHJlY3QsI2dlTWVybWFpZE91dHB1dC0xNzQ3NDAyNzE0ODgxIC5zZWN0aW9uLTUgcGF0aCwjZ2VNZXJtYWlkT3V0cHV0LTE3NDc0MDI3MTQ4ODEgLnNlY3Rpb24tNSBjaXJjbGUsI2dlTWVybWFpZE91dHB1dC0xNzQ3NDAyNzE0ODgxIC5zZWN0aW9uLTUgcG9seWdvbiwjZ2VNZXJtYWlkT3V0cHV0LTE3NDc0MDI3MTQ4ODEgLnNlY3Rpb24tNSBwYXRoe2ZpbGw6I0RERDt9I2dlTWVybWFpZE91dHB1dC0xNzQ3NDAyNzE0ODgxIC5zZWN0aW9uLTUgdGV4dHtmaWxsOiMzMzM7fSNnZU1lcm1haWRPdXRwdXQtMTc0NzQwMjcxNDg4MSAubm9kZS1pY29uLTV7Zm9udC1zaXplOjQwcHg7Y29sb3I6IzMzMzt9I2dlTWVybWFpZE91dHB1dC0xNzQ3NDAyNzE0ODgxIC5zZWN0aW9uLWVkZ2UtNXtzdHJva2U6I0RERDt9I2dlTWVybWFpZE91dHB1dC0xNzQ3NDAyNzE0ODgxIC5lZGdlLWRlcHRoLTV7c3Ryb2tlLXdpZHRoOi0xO30jZ2VNZXJtYWlkT3V0cHV0LTE3NDc0MDI3MTQ4ODEgLnNlY3Rpb24tNSBsaW5le3N0cm9rZTojMjIyMjIyO3N0cm9rZS13aWR0aDozO30jZ2VNZXJtYWlkT3V0cHV0LTE3NDc0MDI3MTQ4ODEgLmRpc2FibGVkLCNnZU1lcm1haWRPdXRwdXQtMTc0NzQwMjcxNDg4MSAuZGlzYWJsZWQgY2lyY2xlLCNnZU1lcm1haWRPdXRwdXQtMTc0NzQwMjcxNDg4MSAuZGlzYWJsZWQgdGV4dHtmaWxsOmxpZ2h0Z3JheTt9I2dlTWVybWFpZE91dHB1dC0xNzQ3NDAyNzE0ODgxIC5kaXNhYmxlZCB0ZXh0e2ZpbGw6I2VmZWZlZjt9I2dlTWVybWFpZE91dHB1dC0xNzQ3NDAyNzE0ODgxIC5zZWN0aW9uLTYgcmVjdCwjZ2VNZXJtYWlkT3V0cHV0LTE3NDc0MDI3MTQ4ODEgLnNlY3Rpb24tNiBwYXRoLCNnZU1lcm1haWRPdXRwdXQtMTc0NzQwMjcxNDg4MSAuc2VjdGlvbi02IGNpcmNsZSwjZ2VNZXJtYWlkT3V0cHV0LTE3NDc0MDI3MTQ4ODEgLnNlY3Rpb24tNiBwb2x5Z29uLCNnZU1lcm1haWRPdXRwdXQtMTc0NzQwMjcxNDg4MSAuc2VjdGlvbi02IHBhdGh7ZmlsbDojRkZGO30jZ2VNZXJtYWlkT3V0cHV0LTE3NDc0MDI3MTQ4ODEgLnNlY3Rpb24tNiB0ZXh0e2ZpbGw6IzMzMzt9I2dlTWVybWFpZE91dHB1dC0xNzQ3NDAyNzE0ODgxIC5ub2RlLWljb24tNntmb250LXNpemU6NDBweDtjb2xvcjojMzMzO30jZ2VNZXJtYWlkT3V0cHV0LTE3NDc0MDI3MTQ4ODEgLnNlY3Rpb24tZWRnZS02e3N0cm9rZTojRkZGO30jZ2VNZXJtYWlkT3V0cHV0LTE3NDc0MDI3MTQ4ODEgLmVkZ2UtZGVwdGgtNntzdHJva2Utd2lkdGg6LTQ7fSNnZU1lcm1haWRPdXRwdXQtMTc0NzQwMjcxNDg4MSAuc2VjdGlvbi02IGxpbmV7c3Ryb2tlOiMwMDAwMDA7c3Ryb2tlLXdpZHRoOjM7fSNnZU1lcm1haWRPdXRwdXQtMTc0NzQwMjcxNDg4MSAuZGlzYWJsZWQsI2dlTWVybWFpZE91dHB1dC0xNzQ3NDAyNzE0ODgxIC5kaXNhYmxlZCBjaXJjbGUsI2dlTWVybWFpZE91dHB1dC0xNzQ3NDAyNzE0ODgxIC5kaXNhYmxlZCB0ZXh0e2ZpbGw6bGlnaHRncmF5O30jZ2VNZXJtYWlkT3V0cHV0LTE3NDc0MDI3MTQ4ODEgLmRpc2FibGVkIHRleHR7ZmlsbDojZWZlZmVmO30jZ2VNZXJtYWlkT3V0cHV0LTE3NDc0MDI3MTQ4ODEgLnNlY3Rpb24tNyByZWN0LCNnZU1lcm1haWRPdXRwdXQtMTc0NzQwMjcxNDg4MSAuc2VjdGlvbi03IHBhdGgsI2dlTWVybWFpZE91dHB1dC0xNzQ3NDAyNzE0ODgxIC5zZWN0aW9uLTcgY2lyY2xlLCNnZU1lcm1haWRPdXRwdXQtMTc0NzQwMjcxNDg4MSAuc2VjdGlvbi03IHBvbHlnb24sI2dlTWVybWFpZE91dHB1dC0xNzQ3NDAyNzE0ODgxIC5zZWN0aW9uLTcgcGF0aHtmaWxsOiNEREQ7fSNnZU1lcm1haWRPdXRwdXQtMTc0NzQwMjcxNDg4MSAuc2VjdGlvbi03IHRleHR7ZmlsbDojMzMzO30jZ2VNZXJtYWlkT3V0cHV0LTE3NDc0MDI3MTQ4ODEgLm5vZGUtaWNvbi03e2ZvbnQtc2l6ZTo0MHB4O2NvbG9yOiMzMzM7fSNnZU1lcm1haWRPdXRwdXQtMTc0NzQwMjcxNDg4MSAuc2VjdGlvbi1lZGdlLTd7c3Ryb2tlOiNEREQ7fSNnZU1lcm1haWRPdXRwdXQtMTc0NzQwMjcxNDg4MSAuZWRnZS1kZXB0aC03e3N0cm9rZS13aWR0aDotNzt9I2dlTWVybWFpZE91dHB1dC0xNzQ3NDAyNzE0ODgxIC5zZWN0aW9uLTcgbGluZXtzdHJva2U6IzIyMjIyMjtzdHJva2Utd2lkdGg6Mzt9I2dlTWVybWFpZE91dHB1dC0xNzQ3NDAyNzE0ODgxIC5kaXNhYmxlZCwjZ2VNZXJtYWlkT3V0cHV0LTE3NDc0MDI3MTQ4ODEgLmRpc2FibGVkIGNpcmNsZSwjZ2VNZXJtYWlkT3V0cHV0LTE3NDc0MDI3MTQ4ODEgLmRpc2FibGVkIHRleHR7ZmlsbDpsaWdodGdyYXk7fSNnZU1lcm1haWRPdXRwdXQtMTc0NzQwMjcxNDg4MSAuZGlzYWJsZWQgdGV4dHtmaWxsOiNlZmVmZWY7fSNnZU1lcm1haWRPdXRwdXQtMTc0NzQwMjcxNDg4MSAuc2VjdGlvbi04IHJlY3QsI2dlTWVybWFpZE91dHB1dC0xNzQ3NDAyNzE0ODgxIC5zZWN0aW9uLTggcGF0aCwjZ2VNZXJtYWlkT3V0cHV0LTE3NDc0MDI3MTQ4ODEgLnNlY3Rpb24tOCBjaXJjbGUsI2dlTWVybWFpZE91dHB1dC0xNzQ3NDAyNzE0ODgxIC5zZWN0aW9uLTggcG9seWdvbiwjZ2VNZXJtYWlkT3V0cHV0LTE3NDc0MDI3MTQ4ODEgLnNlY3Rpb24tOCBwYXRoe2ZpbGw6I0JCQjt9I2dlTWVybWFpZE91dHB1dC0xNzQ3NDAyNzE0ODgxIC5zZWN0aW9uLTggdGV4dHtmaWxsOiMzMzM7fSNnZU1lcm1haWRPdXRwdXQtMTc0NzQwMjcxNDg4MSAubm9kZS1pY29uLTh7Zm9udC1zaXplOjQwcHg7Y29sb3I6IzMzMzt9I2dlTWVybWFpZE91dHB1dC0xNzQ3NDAyNzE0ODgxIC5zZWN0aW9uLWVkZ2UtOHtzdHJva2U6I0JCQjt9I2dlTWVybWFpZE91dHB1dC0xNzQ3NDAyNzE0ODgxIC5lZGdlLWRlcHRoLTh7c3Ryb2tlLXdpZHRoOi0xMDt9I2dlTWVybWFpZE91dHB1dC0xNzQ3NDAyNzE0ODgxIC5zZWN0aW9uLTggbGluZXtzdHJva2U6IzQ0NDQ0NDtzdHJva2Utd2lkdGg6Mzt9I2dlTWVybWFpZE91dHB1dC0xNzQ3NDAyNzE0ODgxIC5kaXNhYmxlZCwjZ2VNZXJtYWlkT3V0cHV0LTE3NDc0MDI3MTQ4ODEgLmRpc2FibGVkIGNpcmNsZSwjZ2VNZXJtYWlkT3V0cHV0LTE3NDc0MDI3MTQ4ODEgLmRpc2FibGVkIHRleHR7ZmlsbDpsaWdodGdyYXk7fSNnZU1lcm1haWRPdXRwdXQtMTc0NzQwMjcxNDg4MSAuZGlzYWJsZWQgdGV4dHtmaWxsOiNlZmVmZWY7fSNnZU1lcm1haWRPdXRwdXQtMTc0NzQwMjcxNDg4MSAuc2VjdGlvbi05IHJlY3QsI2dlTWVybWFpZE91dHB1dC0xNzQ3NDAyNzE0ODgxIC5zZWN0aW9uLTkgcGF0aCwjZ2VNZXJtYWlkT3V0cHV0LTE3NDc0MDI3MTQ4ODEgLnNlY3Rpb24tOSBjaXJjbGUsI2dlTWVybWFpZE91dHB1dC0xNzQ3NDAyNzE0ODgxIC5zZWN0aW9uLTkgcG9seWdvbiwjZ2VNZXJtYWlkT3V0cHV0LTE3NDc0MDI3MTQ4ODEgLnNlY3Rpb24tOSBwYXRoe2ZpbGw6Izk5OTt9I2dlTWVybWFpZE91dHB1dC0xNzQ3NDAyNzE0ODgxIC5zZWN0aW9uLTkgdGV4dHtmaWxsOiMzMzM7fSNnZU1lcm1haWRPdXRwdXQtMTc0NzQwMjcxNDg4MSAubm9kZS1pY29uLTl7Zm9udC1zaXplOjQwcHg7Y29sb3I6IzMzMzt9I2dlTWVybWFpZE91dHB1dC0xNzQ3NDAyNzE0ODgxIC5zZWN0aW9uLWVkZ2UtOXtzdHJva2U6Izk5OTt9I2dlTWVybWFpZE91dHB1dC0xNzQ3NDAyNzE0ODgxIC5lZGdlLWRlcHRoLTl7c3Ryb2tlLXdpZHRoOi0xMzt9I2dlTWVybWFpZE91dHB1dC0xNzQ3NDAyNzE0ODgxIC5zZWN0aW9uLTkgbGluZXtzdHJva2U6IzY2NjY2NjtzdHJva2Utd2lkdGg6Mzt9I2dlTWVybWFpZE91dHB1dC0xNzQ3NDAyNzE0ODgxIC5kaXNhYmxlZCwjZ2VNZXJtYWlkT3V0cHV0LTE3NDc0MDI3MTQ4ODEgLmRpc2FibGVkIGNpcmNsZSwjZ2VNZXJtYWlkT3V0cHV0LTE3NDc0MDI3MTQ4ODEgLmRpc2FibGVkIHRleHR7ZmlsbDpsaWdodGdyYXk7fSNnZU1lcm1haWRPdXRwdXQtMTc0NzQwMjcxNDg4MSAuZGlzYWJsZWQgdGV4dHtmaWxsOiNlZmVmZWY7fSNnZU1lcm1haWRPdXRwdXQtMTc0NzQwMjcxNDg4MSAuc2VjdGlvbi0xMCByZWN0LCNnZU1lcm1haWRPdXRwdXQtMTc0NzQwMjcxNDg4MSAuc2VjdGlvbi0xMCBwYXRoLCNnZU1lcm1haWRPdXRwdXQtMTc0NzQwMjcxNDg4MSAuc2VjdGlvbi0xMCBjaXJjbGUsI2dlTWVybWFpZE91dHB1dC0xNzQ3NDAyNzE0ODgxIC5zZWN0aW9uLTEwIHBvbHlnb24sI2dlTWVybWFpZE91dHB1dC0xNzQ3NDAyNzE0ODgxIC5zZWN0aW9uLTEwIHBhdGh7ZmlsbDojNzc3O30jZ2VNZXJtYWlkT3V0cHV0LTE3NDc0MDI3MTQ4ODEgLnNlY3Rpb24tMTAgdGV4dHtmaWxsOiMzMzM7fSNnZU1lcm1haWRPdXRwdXQtMTc0NzQwMjcxNDg4MSAubm9kZS1pY29uLTEwe2ZvbnQtc2l6ZTo0MHB4O2NvbG9yOiMzMzM7fSNnZU1lcm1haWRPdXRwdXQtMTc0NzQwMjcxNDg4MSAuc2VjdGlvbi1lZGdlLTEwe3N0cm9rZTojNzc3O30jZ2VNZXJtYWlkT3V0cHV0LTE3NDc0MDI3MTQ4ODEgLmVkZ2UtZGVwdGgtMTB7c3Ryb2tlLXdpZHRoOi0xNjt9I2dlTWVybWFpZE91dHB1dC0xNzQ3NDAyNzE0ODgxIC5zZWN0aW9uLTEwIGxpbmV7c3Ryb2tlOiM4ODg4ODg7c3Ryb2tlLXdpZHRoOjM7fSNnZU1lcm1haWRPdXRwdXQtMTc0NzQwMjcxNDg4MSAuZGlzYWJsZWQsI2dlTWVybWFpZE91dHB1dC0xNzQ3NDAyNzE0ODgxIC5kaXNhYmxlZCBjaXJjbGUsI2dlTWVybWFpZE91dHB1dC0xNzQ3NDAyNzE0ODgxIC5kaXNhYmxlZCB0ZXh0e2ZpbGw6bGlnaHRncmF5O30jZ2VNZXJtYWlkT3V0cHV0LTE3NDc0MDI3MTQ4ODEgLmRpc2FibGVkIHRleHR7ZmlsbDojZWZlZmVmO30jZ2VNZXJtYWlkT3V0cHV0LTE3NDc0MDI3MTQ4ODEgLnNlY3Rpb24tcm9vdCByZWN0LCNnZU1lcm1haWRPdXRwdXQtMTc0NzQwMjcxNDg4MSAuc2VjdGlvbi1yb290IHBhdGgsI2dlTWVybWFpZE91dHB1dC0xNzQ3NDAyNzE0ODgxIC5zZWN0aW9uLXJvb3QgY2lyY2xlLCNnZU1lcm1haWRPdXRwdXQtMTc0NzQwMjcxNDg4MSAuc2VjdGlvbi1yb290IHBvbHlnb257ZmlsbDpoc2woMCwgMCUsIDcwLjY4NjI3NDUwOTglKTt9I2dlTWVybWFpZE91dHB1dC0xNzQ3NDAyNzE0ODgxIC5zZWN0aW9uLXJvb3QgdGV4dHtmaWxsOiMzMzM7fSNnZU1lcm1haWRPdXRwdXQtMTc0NzQwMjcxNDg4MSAuaWNvbi1jb250YWluZXJ7aGVpZ2h0OjEwMCU7ZGlzcGxheTpmbGV4O2p1c3RpZnktY29udGVudDpjZW50ZXI7YWxpZ24taXRlbXM6Y2VudGVyO30jZ2VNZXJtYWlkT3V0cHV0LTE3NDc0MDI3MTQ4ODEgLmVkZ2V7ZmlsbDpub25lO30jZ2VNZXJtYWlkT3V0cHV0LTE3NDc0MDI3MTQ4ODEgLm1pbmRtYXAtbm9kZS1sYWJlbHtkeToxZW07YWxpZ25tZW50LWJhc2VsaW5lOm1pZGRsZTt0ZXh0LWFuY2hvcjptaWRkbGU7ZG9taW5hbnQtYmFzZWxpbmU6bWlkZGxlO3RleHQtYWxpZ246Y2VudGVyO30jZ2VNZXJtYWlkT3V0cHV0LTE3NDc0MDI3MTQ4ODEgOnJvb3R7LS1tZXJtYWlkLWZvbnQtZmFtaWx5OiJ0cmVidWNoZXQgbXMiLHZlcmRhbmEsYXJpYWwsc2Fucy1zZXJpZjt9PC9zdHlsZT48Zz48L2c+PGcgY2xhc3M9Im1pbmRtYXAtZWRnZXMiPjxwYXRoIGNsYXNzPSJlZGdlIHNlY3Rpb24tZWRnZS0wIGVkZ2UtZGVwdGgtMSIgZD0iTSA2MTAuNjAzMjY5NjA5NTMwMSwyNzEuNjUyNDc1NDAwMDM3MjUgTCA1MTkuNjE3Mzk0MDg1NDg0OSwyODkuMTMxNzUwMTkzMjY0NDUgTDQyOC42MzE1MTg1NjE0Mzk3NSwzMDYuNjExMDI0OTg2NDkxNjYiPjwvcGF0aD48cGF0aCBjbGFzcz0iZWRnZSBzZWN0aW9uLWVkZ2UtMCBlZGdlLWRlcHRoLTEiIGQ9Ik0gNjM5LjIyNTkwOTYxOTAzMzUsMjc0LjQ4MDUxMzY4NDk0NzQgTCA2OTguODQ3NDY0MzQyMTg0MSwyOTguNzYzMTkxMzgwNjI3NSBMNzU4LjQ2OTAxOTA2NTMzNDgsMzIzLjA0NTg2OTA3NjMwNzYiPjwvcGF0aD48cGF0aCBjbGFzcz0iZWRnZSBzZWN0aW9uLWVkZ2UtMCBlZGdlLWRlcHRoLTEiIGQ9Ik0gNjE3LjYzNjY0OTYxMDIwMTMsMjgxLjY5NzA1NjExMjM4NjcgTCA1OTkuMTY0Njc2Mzg2Mjc5MiwzMTIuNTkzMzkyNzQ4MTE3MTQgTDU4MC42OTI3MDMxNjIzNTcxLDM0My40ODk3MjkzODM4NDc2Ij48L3BhdGg+PHBhdGggY2xhc3M9ImVkZ2Ugc2VjdGlvbi1lZGdlLTAgZWRnZS1kZXB0aC0yIiBkPSJNIDc5OC41NDI0NTc4OTQ5NjE5LDIwNi44NTAzMjg3NjAyNjkxOCBMIDg5NS43NTQ2NzgxMjk0NjkzLDIxNC4zODcyMzE1MjM3MDcwMiBMOTkyLjk2Njg5ODM2Mzk3NjUsMjIxLjkyNDEzNDI4NzE0NDg1Ij48L3BhdGg+PHBhdGggY2xhc3M9ImVkZ2Ugc2VjdGlvbi1lZGdlLTAgZWRnZS1kZXB0aC0yIiBkPSJNIDc5Ny44MDIyNDQ3MzYyNTYyLDIwMC45MDE2NTM2MzEwNDM1MyBMIDg2OC4wNjk2MTY2NjM1MjY0LDE3Ny4yMjc2MDQ2MzYzMTAwMiBMOTM4LjMzNjk4ODU5MDc5NjYsMTUzLjU1MzU1NTY0MTU3NjUiPjwvcGF0aD48cGF0aCBjbGFzcz0iZWRnZSBzZWN0aW9uLWVkZ2UtMCBlZGdlLWRlcHRoLTIiIGQ9Ik0gNzc4LjY1ODM4MzMyMDg0MjMsMTkxLjUyMzc5ODY4Nzc2MzA4IEwgNzY2LjM2Njg3NDUwNzY2MjcsMTU2LjE5NDkxNDgwMzMyMDk4IEw3NTQuMDc1MzY1Njk0NDgzMSwxMjAuODY2MDMwOTE4ODc4OSI+PC9wYXRoPjxwYXRoIGNsYXNzPSJlZGdlIHNlY3Rpb24tZWRnZS0wIGVkZ2UtZGVwdGgtMiIgZD0iTSA3OTUuNjk3MDU1MTEwNzAxMiwyMTQuNTQyNjc0MDQyNjEyNzMgTCA4MzAuNDgwMjM3OTUyMDA2MiwyMzkuOTY4MDg0OTA2Mjk2MDQgTDg2NS4yNjM0MjA3OTMzMTEyLDI2NS4zOTM0OTU3Njk5Nzk0Ij48L3BhdGg+PHBhdGggY2xhc3M9ImVkZ2Ugc2VjdGlvbi1lZGdlLTAgZWRnZS1kZXB0aC0xIiBkPSJNIDYzOS4yNjYyMDEzMzM1NDY3LDI2My4yNjQ1OTM4Nzk0Njk1IEwgNzA0LjQ2MDYyMjMyMzI4MjcsMjM3LjI1NjcxNDIzODM3NjcgTDc2OS42NTUwNDMzMTMwMTg2LDIxMS4yNDg4MzQ1OTcyODM5MiI+PC9wYXRoPjxwYXRoIGNsYXNzPSJlZGdlIHNlY3Rpb24tZWRnZS0wIGVkZ2UtZGVwdGgtMCIgZD0iTSA0NDUuNTgzNTQ1NjE4NjI3MzQsMjIxLjk1MzI4NjcwODE1MjYzIEwgNTI4LjIwMTM3ODY2NDQwMiwyNDMuNDk1NjAzMDE1NDk1ODcgTDYxMC44MTkyMTE3MTAxNzY1LDI2NS4wMzc5MTkzMjI4MzkxIj48L3BhdGg+PHBhdGggY2xhc3M9ImVkZ2Ugc2VjdGlvbi1lZGdlLTEgZWRnZS1kZXB0aC0xIiBkPSJNIDM1MC4zMTk0MzEyMjM2NDk3NiwxMzcuOTEwOTUyNjc4MTYxOCBMIDQzNy4zNDk1MDE3NjMwNjkwNCwxNTMuMTg0NTQxNjE4MDI3NjggTDUyNC4zNzk1NzIzMDI0ODgzLDE2OC40NTgxMzA1NTc4OTM1NSI+PC9wYXRoPjxwYXRoIGNsYXNzPSJlZGdlIHNlY3Rpb24tZWRnZS0xIGVkZ2UtZGVwdGgtMSIgZD0iTSAzNTAuMzczNjE3ODkwMzA5NywxMzMuMDU1NjQzODg2MjQ5NiBMIDQ0Ny41NTQ1MzA4NjQ0OTQ0LDExOC4yMjgwOTkwMzE4OTQgTDU0NC43MzU0NDM4Mzg2NzkxLDEwMy40MDA1NTQxNzc1Mzg0Ij48L3BhdGg+PHBhdGggY2xhc3M9ImVkZ2Ugc2VjdGlvbi1lZGdlLTEgZWRnZS1kZXB0aC0xIiBkPSJNIDM0NS41MjQ3NjgxODczODM4NywxMjQuMTE5NTA4MjA3MDY0MzcgTCAzNzAuMzQxMTc4NzczMzgwNTMsOTYuMjcxNjI3MTczMTk4MTQgTDM5NS4xNTc1ODkzNTkzNzczLDY4LjQyMzc0NjEzOTMzMTkiPjwvcGF0aD48cGF0aCBjbGFzcz0iZWRnZSBzZWN0aW9uLWVkZ2UtMSBlZGdlLWRlcHRoLTEiIGQ9Ik0gMzI0LjU5MjY5NTIxMzQ2MDYsMTI1LjA2OTEwNjg2ODc5MDMgTCAyODUuOTQ3MTYwOTA3NzA0Nyw4OC45MDU5MzA3MjM0MjExNiBMMjQ3LjMwMTYyNjYwMTk0ODc1LDUyLjc0Mjc1NDU3ODA1MjAxNSI+PC9wYXRoPjxwYXRoIGNsYXNzPSJlZGdlIHNlY3Rpb24tZWRnZS0xIGVkZ2UtZGVwdGgtMSIgZD0iTSAzMjAuNzE5OTA1OTgyOTEyMSwxMzMuMDM1NTg2MzM4ODg1ODIgTCAyMjMuNTA2MjQ2ODEzMjA0MTQsMTE4LjA2ODQ0NjY3MjQ4NDUgTDEyNi4yOTI1ODc2NDM0OTYxNSwxMDMuMTAxMzA3MDA2MDgzMTYiPjwvcGF0aD48cGF0aCBjbGFzcz0iZWRnZSBzZWN0aW9uLWVkZ2UtMSBlZGdlLWRlcHRoLTEiIGQ9Ik0gMzI2Ljk0NTk4MjA4NjI0ODUzLDE0Ny42MDg0NzQ1MDUzNTU1NiBMIDMwNy4xNDI0MzMzNzkwMjk5LDE3NS45MTI0NTU1MDc4MTExMyBMMjg3LjMzODg4NDY3MTgxMTMsMjA0LjIxNjQzNjUxMDI2NjciPjwvcGF0aD48cGF0aCBjbGFzcz0iZWRnZSBzZWN0aW9uLWVkZ2UtMSBlZGdlLWRlcHRoLTEiIGQ9Ik0gMzIwLjc4NDQ0NjEyNzc3OTUsMTM3Ljk4NjMzNDA1NTg2MDQyIEwgMjE4Ljk5MTM2MjQxODYwNDEzLDE1Ni4zODY4OTQ5NDM2ODEyNiBMMTE3LjE5ODI3ODcwOTQyODczLDE3NC43ODc0NTU4MzE1MDIxIj48L3BhdGg+PHBhdGggY2xhc3M9ImVkZ2Ugc2VjdGlvbi1lZGdlLTEgZWRnZS1kZXB0aC0wIiBkPSJNIDQxOS43MzcyMzYwMTg1MTIxNCwyMDguMzQwMzc5MTI2Mzk1MiBMIDM4My4zMDcwMzc3MDY4MzEwNywxNzYuNzQzMzcwNjI4Njg3MzMgTDM0Ni44NzY4MzkzOTUxNSwxNDUuMTQ2MzYyMTMwOTc5NTMiPjwvcGF0aD48L2c+PGcgY2xhc3M9Im1pbmRtYXAtbm9kZXMiPjxnIHRyYW5zZm9ybT0idHJhbnNsYXRlKDM3MS41ODQ0NzU1NzY0NTM5LCAxOTkuNDcxNzU0ODEwNTMyNCkiIGNsYXNzPSJtaW5kbWFwLW5vZGUgc2VjdGlvbi0tMSBzZWN0aW9uLXJvb3QiPjxnIHRyYW5zZm9ybT0idHJhbnNsYXRlKDU5LjQ4NDM3NSwgMTguNjk2ODc1KSI+PGNpcmNsZSByPSI1OS40ODQzNzUiIGNsYXNzPSJub2RlLWJrZyBub2RlLWNpcmNsZSIgaWQ9Im5vZGUtMCI+PC9jaXJjbGU+PC9nPjxnIHRyYW5zZm9ybT0idHJhbnNsYXRlKDU5LjQ4NDM3NSwgNSkiIHRleHQtYW5jaG9yPSJtaWRkbGUiIGRvbWluYW50LWJhc2VsaW5lPSJtaWRkbGUiIGFsaWdubWVudC1iYXNlbGluZT0ibWlkZGxlIiBkeT0iMWVtIj48Zz48cmVjdCBzdHlsZT0ic3Ryb2tlOiBub25lIiBjbGFzcz0iYmFja2dyb3VuZCI+PC9yZWN0Pjx0ZXh0IHN0eWxlPSIiIHk9Ii0xMC4xIj48dHNwYW4gZHk9IjEuMWVtIiB5PSItMC4xZW0iIHg9IjAiIGNsYXNzPSJ0ZXh0LW91dGVyLXRzcGFuIj48dHNwYW4gZm9udC13ZWlnaHQ9Im5vcm1hbCIgY2xhc3M9InRleHQtaW5uZXItdHNwYW4iIGZvbnQtc3R5bGU9Im5vcm1hbCI+VU1MPC90c3Bhbj48dHNwYW4gZm9udC13ZWlnaHQ9Im5vcm1hbCIgY2xhc3M9InRleHQtaW5uZXItdHNwYW4iIGZvbnQtc3R5bGU9Im5vcm1hbCI+IGRpYWdyYW1zPC90c3Bhbj48L3RzcGFuPjwvdGV4dD48L2c+PC9nPjwvZz48ZyB0cmFuc2Zvcm09InRyYW5zbGF0ZSg1NDUuMzMzOTA2NzUyMzUsIDI1MC4xMjU3MDEyMjA0NTkzOCkiIGNsYXNzPSJtaW5kbWFwLW5vZGUgc2VjdGlvbi0wIj48Zz48cGF0aCBkPSJNMCAzMi4zOTM3NSB2LTI3LjM5Mzc0OTk5OTk5OTk5NyBxMCwtNSA1LC01IGgxNTAgcTUsMCA1LDUgdjMyLjM5Mzc1IEgwIFoiIGNsYXNzPSJub2RlLWJrZyBub2RlLW5vLWJvcmRlciIgaWQ9Im5vZGUtMSI+PC9wYXRoPjxsaW5lIHkyPSIzNy4zOTM3NSIgeDI9IjE2MCIgeTE9IjM3LjM5Mzc1IiB4MT0iMCIgY2xhc3M9Im5vZGUtbGluZS0wIj48L2xpbmU+PC9nPjxnIHRyYW5zZm9ybT0idHJhbnNsYXRlKDgwLCA1KSIgdGV4dC1hbmNob3I9Im1pZGRsZSIgZG9taW5hbnQtYmFzZWxpbmU9Im1pZGRsZSIgYWxpZ25tZW50LWJhc2VsaW5lPSJtaWRkbGUiIGR5PSIxZW0iPjxnPjxyZWN0IHN0eWxlPSJzdHJva2U6IG5vbmUiIGNsYXNzPSJiYWNrZ3JvdW5kIj48L3JlY3Q+PHRleHQgc3R5bGU9IiIgeT0iLTEwLjEiPjx0c3BhbiBkeT0iMS4xZW0iIHk9Ii0wLjFlbSIgeD0iMCIgY2xhc3M9InRleHQtb3V0ZXItdHNwYW4iPjx0c3BhbiBmb250LXdlaWdodD0ibm9ybWFsIiBjbGFzcz0idGV4dC1pbm5lci10c3BhbiIgZm9udC1zdHlsZT0ibm9ybWFsIj5CZWhhdmlvdXI8L3RzcGFuPjx0c3BhbiBmb250LXdlaWdodD0ibm9ybWFsIiBjbGFzcz0idGV4dC1pbm5lci10c3BhbiIgZm9udC1zdHlsZT0ibm9ybWFsIj4gZGlhZ3JhbXM8L3RzcGFuPjwvdHNwYW4+PC90ZXh0PjwvZz48L2c+PC9nPjxnIHRyYW5zZm9ybT0idHJhbnNsYXRlKDI1Ny40OTgzNDk4MzcyMDgyNSwgMTE2LjYyMTIzNjQ0Njg0MjMyKSIgY2xhc3M9Im1pbmRtYXAtbm9kZSBzZWN0aW9uLTEiPjxnPjxwYXRoIGQ9Ik0wIDMyLjM5Mzc1IHYtMjcuMzkzNzQ5OTk5OTk5OTk3IHEwLC01IDUsLTUgaDE0Ni4wOTM3NSBxNSwwIDUsNSB2MzIuMzkzNzUgSDAgWiIgY2xhc3M9Im5vZGUtYmtnIG5vZGUtbm8tYm9yZGVyIiBpZD0ibm9kZS0xMCI+PC9wYXRoPjxsaW5lIHkyPSIzNy4zOTM3NSIgeDI9IjE1Ni4wOTM3NSIgeTE9IjM3LjM5Mzc1IiB4MT0iMCIgY2xhc3M9Im5vZGUtbGluZS0xIj48L2xpbmU+PC9nPjxnIHRyYW5zZm9ybT0idHJhbnNsYXRlKDc4LjA0Njg3NSwgNSkiIHRleHQtYW5jaG9yPSJtaWRkbGUiIGRvbWluYW50LWJhc2VsaW5lPSJtaWRkbGUiIGFsaWdubWVudC1iYXNlbGluZT0ibWlkZGxlIiBkeT0iMWVtIj48Zz48cmVjdCBzdHlsZT0ic3Ryb2tlOiBub25lIiBjbGFzcz0iYmFja2dyb3VuZCI+PC9yZWN0Pjx0ZXh0IHN0eWxlPSIiIHk9Ii0xMC4xIj48dHNwYW4gZHk9IjEuMWVtIiB5PSItMC4xZW0iIHg9IjAiIGNsYXNzPSJ0ZXh0LW91dGVyLXRzcGFuIj48dHNwYW4gZm9udC13ZWlnaHQ9Im5vcm1hbCIgY2xhc3M9InRleHQtaW5uZXItdHNwYW4iIGZvbnQtc3R5bGU9Im5vcm1hbCI+U3RydWN0dXJlPC90c3Bhbj48dHNwYW4gZm9udC13ZWlnaHQ9Im5vcm1hbCIgY2xhc3M9InRleHQtaW5uZXItdHNwYW4iIGZvbnQtc3R5bGU9Im5vcm1hbCI+IGRpYWdyYW1zPC90c3Bhbj48L3RzcGFuPjwvdGV4dD48L2c+PC9nPjwvZz48ZyB0cmFuc2Zvcm09InRyYW5zbGF0ZSgzNDEuODg1MjU2NDE4NjE5ODYsIDI5MC43NDQwNDkxNjYwNjk1NCkiIGNsYXNzPSJtaW5kbWFwLW5vZGUgc2VjdGlvbi0wIj48Zz48cGF0aCBkPSJNMCAzMi4zOTM3NSB2LTI3LjM5Mzc0OTk5OTk5OTk5NyBxMCwtNSA1LC01IGgxMzQuMDMxMjUgcTUsMCA1LDUgdjMyLjM5Mzc1IEgwIFoiIGNsYXNzPSJub2RlLWJrZyBub2RlLW5vLWJvcmRlciIgaWQ9Im5vZGUtMiI+PC9wYXRoPjxsaW5lIHkyPSIzNy4zOTM3NSIgeDI9IjE0NC4wMzEyNSIgeTE9IjM3LjM5Mzc1IiB4MT0iMCIgY2xhc3M9Im5vZGUtbGluZS0wIj48L2xpbmU+PC9nPjxnIHRyYW5zZm9ybT0idHJhbnNsYXRlKDcyLjAxNTYyNSwgNSkiIHRleHQtYW5jaG9yPSJtaWRkbGUiIGRvbWluYW50LWJhc2VsaW5lPSJtaWRkbGUiIGFsaWdubWVudC1iYXNlbGluZT0ibWlkZGxlIiBkeT0iMWVtIj48Zz48cmVjdCBzdHlsZT0ic3Ryb2tlOiBub25lIiBjbGFzcz0iYmFja2dyb3VuZCI+PC9yZWN0Pjx0ZXh0IHN0eWxlPSIiIHk9Ii0xMC4xIj48dHNwYW4gZHk9IjEuMWVtIiB5PSItMC4xZW0iIHg9IjAiIGNsYXNzPSJ0ZXh0LW91dGVyLXRzcGFuIj48dHNwYW4gZm9udC13ZWlnaHQ9Im5vcm1hbCIgY2xhc3M9InRleHQtaW5uZXItdHNwYW4iIGZvbnQtc3R5bGU9Im5vcm1hbCI+QWN0aXZpdHk8L3RzcGFuPjx0c3BhbiBmb250LXdlaWdodD0ibm9ybWFsIiBjbGFzcz0idGV4dC1pbm5lci10c3BhbiIgZm9udC1zdHlsZT0ibm9ybWFsIj4gZGlhZ3JhbXM8L3RzcGFuPjwvdHNwYW4+PC90ZXh0PjwvZz48L2c+PC9nPjxnIHRyYW5zZm9ybT0idHJhbnNsYXRlKDY5Ni44Mjk3NzE5MzIwMTgzLCAzMTAuMDA2OTMxNTQwNzk1NykiIGNsYXNzPSJtaW5kbWFwLW5vZGUgc2VjdGlvbi0wIj48Zz48cGF0aCBkPSJNMCAzMi4zOTM3NSB2LTI3LjM5Mzc0OTk5OTk5OTk5NyBxMCwtNSA1LC01IGgxNDEuMDYyNSBxNSwwIDUsNSB2MzIuMzkzNzUgSDAgWiIgY2xhc3M9Im5vZGUtYmtnIG5vZGUtbm8tYm9yZGVyIiBpZD0ibm9kZS0zIj48L3BhdGg+PGxpbmUgeTI9IjM3LjM5Mzc1IiB4Mj0iMTUxLjA2MjUiIHkxPSIzNy4zOTM3NSIgeDE9IjAiIGNsYXNzPSJub2RlLWxpbmUtMCI+PC9saW5lPjwvZz48ZyB0cmFuc2Zvcm09InRyYW5zbGF0ZSg3NS41MzEyNSwgNSkiIHRleHQtYW5jaG9yPSJtaWRkbGUiIGRvbWluYW50LWJhc2VsaW5lPSJtaWRkbGUiIGFsaWdubWVudC1iYXNlbGluZT0ibWlkZGxlIiBkeT0iMWVtIj48Zz48cmVjdCBzdHlsZT0ic3Ryb2tlOiBub25lIiBjbGFzcz0iYmFja2dyb3VuZCI+PC9yZWN0Pjx0ZXh0IHN0eWxlPSIiIHk9Ii0xMC4xIj48dHNwYW4gZHk9IjEuMWVtIiB5PSItMC4xZW0iIHg9IjAiIGNsYXNzPSJ0ZXh0LW91dGVyLXRzcGFuIj48dHNwYW4gZm9udC13ZWlnaHQ9Im5vcm1hbCIgY2xhc3M9InRleHQtaW5uZXItdHNwYW4iIGZvbnQtc3R5bGU9Im5vcm1hbCI+VXNlPC90c3Bhbj48dHNwYW4gZm9udC13ZWlnaHQ9Im5vcm1hbCIgY2xhc3M9InRleHQtaW5uZXItdHNwYW4iIGZvbnQtc3R5bGU9Im5vcm1hbCI+IGNhc2U8L3RzcGFuPjx0c3BhbiBmb250LXdlaWdodD0ibm9ybWFsIiBjbGFzcz0idGV4dC1pbm5lci10c3BhbiIgZm9udC1zdHlsZT0ibm9ybWFsIj4gZGlhZ3JhbXM8L3RzcGFuPjwvdHNwYW4+PC90ZXh0PjwvZz48L2c+PC9nPjxnIHRyYW5zZm9ybT0idHJhbnNsYXRlKDQ3Ny4wNzM1NzEwMjAyMDg0LCAzMzcuNjY3MzM0Mjc1Nzc0OSkiIGNsYXNzPSJtaW5kbWFwLW5vZGUgc2VjdGlvbi0wIj48Zz48cGF0aCBkPSJNMCAzMi4zOTM3NSB2LTI3LjM5Mzc0OTk5OTk5OTk5NyBxMCwtNSA1LC01IGgxODEuODQzNzUgcTUsMCA1LDUgdjMyLjM5Mzc1IEgwIFoiIGNsYXNzPSJub2RlLWJrZyBub2RlLW5vLWJvcmRlciIgaWQ9Im5vZGUtNCI+PC9wYXRoPjxsaW5lIHkyPSIzNy4zOTM3NSIgeDI9IjE5MS44NDM3NSIgeTE9IjM3LjM5Mzc1IiB4MT0iMCIgY2xhc3M9Im5vZGUtbGluZS0wIj48L2xpbmU+PC9nPjxnIHRyYW5zZm9ybT0idHJhbnNsYXRlKDk1LjkyMTg3NSwgNSkiIHRleHQtYW5jaG9yPSJtaWRkbGUiIGRvbWluYW50LWJhc2VsaW5lPSJtaWRkbGUiIGFsaWdubWVudC1iYXNlbGluZT0ibWlkZGxlIiBkeT0iMWVtIj48Zz48cmVjdCBzdHlsZT0ic3Ryb2tlOiBub25lIiBjbGFzcz0iYmFja2dyb3VuZCI+PC9yZWN0Pjx0ZXh0IHN0eWxlPSIiIHk9Ii0xMC4xIj48dHNwYW4gZHk9IjEuMWVtIiB5PSItMC4xZW0iIHg9IjAiIGNsYXNzPSJ0ZXh0LW91dGVyLXRzcGFuIj48dHNwYW4gZm9udC13ZWlnaHQ9Im5vcm1hbCIgY2xhc3M9InRleHQtaW5uZXItdHNwYW4iIGZvbnQtc3R5bGU9Im5vcm1hbCI+U3RhdGU8L3RzcGFuPjx0c3BhbiBmb250LXdlaWdodD0ibm9ybWFsIiBjbGFzcz0idGV4dC1pbm5lci10c3BhbiIgZm9udC1zdHlsZT0ibm9ybWFsIj4gbWFjaGluZTwvdHNwYW4+PHRzcGFuIGZvbnQtd2VpZ2h0PSJub3JtYWwiIGNsYXNzPSJ0ZXh0LWlubmVyLXRzcGFuIiBmb250LXN0eWxlPSJub3JtYWwiPiBkaWFncmFtczwvdHNwYW4+PC90c3Bhbj48L3RleHQ+PC9nPjwvZz48L2c+PGcgdHJhbnNmb3JtPSJ0cmFuc2xhdGUoNjk5LjQ5MzU4Nzg5NDIxNTQsIDE4Ni45OTM5NzcyNTYyOTQpIiBjbGFzcz0ibWluZG1hcC1ub2RlIHNlY3Rpb24tMCI+PGc+PHBhdGggZD0iTTAgMzIuMzkzNzUgdi0yNy4zOTM3NDk5OTk5OTk5OTcgcTAsLTUgNSwtNSBoMTU4LjE4NzUgcTUsMCA1LDUgdjMyLjM5Mzc1IEgwIFoiIGNsYXNzPSJub2RlLWJrZyBub2RlLW5vLWJvcmRlciIgaWQ9Im5vZGUtNSI+PC9wYXRoPjxsaW5lIHkyPSIzNy4zOTM3NSIgeDI9IjE2OC4xODc1IiB5MT0iMzcuMzkzNzUiIHgxPSIwIiBjbGFzcz0ibm9kZS1saW5lLTAiPjwvbGluZT48L2c+PGcgdHJhbnNmb3JtPSJ0cmFuc2xhdGUoODQuMDkzNzUsIDUpIiB0ZXh0LWFuY2hvcj0ibWlkZGxlIiBkb21pbmFudC1iYXNlbGluZT0ibWlkZGxlIiBhbGlnbm1lbnQtYmFzZWxpbmU9Im1pZGRsZSIgZHk9IjFlbSI+PGc+PHJlY3Qgc3R5bGU9InN0cm9rZTogbm9uZSIgY2xhc3M9ImJhY2tncm91bmQiPjwvcmVjdD48dGV4dCBzdHlsZT0iIiB5PSItMTAuMSI+PHRzcGFuIGR5PSIxLjFlbSIgeT0iLTAuMWVtIiB4PSIwIiBjbGFzcz0idGV4dC1vdXRlci10c3BhbiI+PHRzcGFuIGZvbnQtd2VpZ2h0PSJub3JtYWwiIGNsYXNzPSJ0ZXh0LWlubmVyLXRzcGFuIiBmb250LXN0eWxlPSJub3JtYWwiPkludGVyYWN0aW9uPC90c3Bhbj48dHNwYW4gZm9udC13ZWlnaHQ9Im5vcm1hbCIgY2xhc3M9InRleHQtaW5uZXItdHNwYW4iIGZvbnQtc3R5bGU9Im5vcm1hbCI+IGRpYWdyYW1zPC90c3Bhbj48L3RzcGFuPjwvdGV4dD48L2c+PC9nPjwvZz48ZyB0cmFuc2Zvcm09InRyYW5zbGF0ZSg0NzYuNzYzMTUzNjg4OTI5ODMsIDE1Mi4zNTQwOTY3ODkyMTMwMykiIGNsYXNzPSJtaW5kbWFwLW5vZGUgc2VjdGlvbi0xIj48Zz48cGF0aCBkPSJNMCAzMi4zOTM3NSB2LTI3LjM5Mzc0OTk5OTk5OTk5NyBxMCwtNSA1LC01IGgxMTQuNzgxMjUgcTUsMCA1LDUgdjMyLjM5Mzc1IEgwIFoiIGNsYXNzPSJub2RlLWJrZyBub2RlLW5vLWJvcmRlciIgaWQ9Im5vZGUtMTEiPjwvcGF0aD48bGluZSB5Mj0iMzcuMzkzNzUiIHgyPSIxMjQuNzgxMjUiIHkxPSIzNy4zOTM3NSIgeDE9IjAiIGNsYXNzPSJub2RlLWxpbmUtMSI+PC9saW5lPjwvZz48ZyB0cmFuc2Zvcm09InRyYW5zbGF0ZSg2Mi4zOTA2MjUsIDUpIiB0ZXh0LWFuY2hvcj0ibWlkZGxlIiBkb21pbmFudC1iYXNlbGluZT0ibWlkZGxlIiBhbGlnbm1lbnQtYmFzZWxpbmU9Im1pZGRsZSIgZHk9IjFlbSI+PGc+PHJlY3Qgc3R5bGU9InN0cm9rZTogbm9uZSIgY2xhc3M9ImJhY2tncm91bmQiPjwvcmVjdD48dGV4dCBzdHlsZT0iIiB5PSItMTAuMSI+PHRzcGFuIGR5PSIxLjFlbSIgeT0iLTAuMWVtIiB4PSIwIiBjbGFzcz0idGV4dC1vdXRlci10c3BhbiI+PHRzcGFuIGZvbnQtd2VpZ2h0PSJub3JtYWwiIGNsYXNzPSJ0ZXh0LWlubmVyLXRzcGFuIiBmb250LXN0eWxlPSJub3JtYWwiPkNsYXNzPC90c3Bhbj48dHNwYW4gZm9udC13ZWlnaHQ9Im5vcm1hbCIgY2xhc3M9InRleHQtaW5uZXItdHNwYW4iIGZvbnQtc3R5bGU9Im5vcm1hbCI+IGRpYWdyYW1zPC90c3Bhbj48L3RzcGFuPjwvdGV4dD48L2c+PC9nPjwvZz48ZyB0cmFuc2Zvcm09InRyYW5zbGF0ZSg0ODUuNzUxMzM2ODkxNzgwNSwgODIuNDQxMjExNjE2OTQ1NjgpIiBjbGFzcz0ibWluZG1hcC1ub2RlIHNlY3Rpb24tMSI+PGc+PHBhdGggZD0iTTAgMzIuMzkzNzUgdi0yNy4zOTM3NDk5OTk5OTk5OTcgcTAsLTUgNSwtNSBoMTM3LjYyNSBxNSwwIDUsNSB2MzIuMzkzNzUgSDAgWiIgY2xhc3M9Im5vZGUtYmtnIG5vZGUtbm8tYm9yZGVyIiBpZD0ibm9kZS0xMiI+PC9wYXRoPjxsaW5lIHkyPSIzNy4zOTM3NSIgeDI9IjE0Ny42MjUiIHkxPSIzNy4zOTM3NSIgeDE9IjAiIGNsYXNzPSJub2RlLWxpbmUtMSI+PC9saW5lPjwvZz48ZyB0cmFuc2Zvcm09InRyYW5zbGF0ZSg3My44MTI1LCA1KSIgdGV4dC1hbmNob3I9Im1pZGRsZSIgZG9taW5hbnQtYmFzZWxpbmU9Im1pZGRsZSIgYWxpZ25tZW50LWJhc2VsaW5lPSJtaWRkbGUiIGR5PSIxZW0iPjxnPjxyZWN0IHN0eWxlPSJzdHJva2U6IG5vbmUiIGNsYXNzPSJiYWNrZ3JvdW5kIj48L3JlY3Q+PHRleHQgc3R5bGU9IiIgeT0iLTEwLjEiPjx0c3BhbiBkeT0iMS4xZW0iIHk9Ii0wLjFlbSIgeD0iMCIgY2xhc3M9InRleHQtb3V0ZXItdHNwYW4iPjx0c3BhbiBmb250LXdlaWdodD0ibm9ybWFsIiBjbGFzcz0idGV4dC1pbm5lci10c3BhbiIgZm9udC1zdHlsZT0ibm9ybWFsIj5QYWNrYWdlPC90c3Bhbj48dHNwYW4gZm9udC13ZWlnaHQ9Im5vcm1hbCIgY2xhc3M9InRleHQtaW5uZXItdHNwYW4iIGZvbnQtc3R5bGU9Im5vcm1hbCI+IGRpYWdyYW1zPC90c3Bhbj48L3RzcGFuPjwvdGV4dD48L2c+PC9nPjwvZz48ZyB0cmFuc2Zvcm09InRyYW5zbGF0ZSgzMzYuMjkzMzgyNzA5NTUyOTMsIDM4LjUyODI2Nzg5OTU1Mzk1KSIgY2xhc3M9Im1pbmRtYXAtbm9kZSBzZWN0aW9uLTEiPjxnPjxwYXRoIGQ9Ik0wIDMyLjM5Mzc1IHYtMjcuMzkzNzQ5OTk5OTk5OTk3IHEwLC01IDUsLTUgaDEyNy42ODc1IHE1LDAgNSw1IHYzMi4zOTM3NSBIMCBaIiBjbGFzcz0ibm9kZS1ia2cgbm9kZS1uby1ib3JkZXIiIGlkPSJub2RlLTEzIj48L3BhdGg+PGxpbmUgeTI9IjM3LjM5Mzc1IiB4Mj0iMTM3LjY4NzUiIHkxPSIzNy4zOTM3NSIgeDE9IjAiIGNsYXNzPSJub2RlLWxpbmUtMSI+PC9saW5lPjwvZz48ZyB0cmFuc2Zvcm09InRyYW5zbGF0ZSg2OC44NDM3NSwgNSkiIHRleHQtYW5jaG9yPSJtaWRkbGUiIGRvbWluYW50LWJhc2VsaW5lPSJtaWRkbGUiIGFsaWdubWVudC1iYXNlbGluZT0ibWlkZGxlIiBkeT0iMWVtIj48Zz48cmVjdCBzdHlsZT0ic3Ryb2tlOiBub25lIiBjbGFzcz0iYmFja2dyb3VuZCI+PC9yZWN0Pjx0ZXh0IHN0eWxlPSIiIHk9Ii0xMC4xIj48dHNwYW4gZHk9IjEuMWVtIiB5PSItMC4xZW0iIHg9IjAiIGNsYXNzPSJ0ZXh0LW91dGVyLXRzcGFuIj48dHNwYW4gZm9udC13ZWlnaHQ9Im5vcm1hbCIgY2xhc3M9InRleHQtaW5uZXItdHNwYW4iIGZvbnQtc3R5bGU9Im5vcm1hbCI+T2JqZWN0PC90c3Bhbj48dHNwYW4gZm9udC13ZWlnaHQ9Im5vcm1hbCIgY2xhc3M9InRleHQtaW5uZXItdHNwYW4iIGZvbnQtc3R5bGU9Im5vcm1hbCI+IGRpYWdyYW1zPC90c3Bhbj48L3RzcGFuPjwvdGV4dD48L2c+PC9nPjwvZz48ZyB0cmFuc2Zvcm09InRyYW5zbGF0ZSgxNTMuNTM2NTk2OTc4MjAxMTUsIDE1KSIgY2xhc3M9Im1pbmRtYXAtbm9kZSBzZWN0aW9uLTEiPjxnPjxwYXRoIGQ9Ik0wIDQ5Ljk4NzUgdi00NC45ODc1IHEwLC01IDUsLTUgaDE1NS42MjUgcTUsMCA1LDUgdjQ5Ljk4NzUgSDAgWiIgY2xhc3M9Im5vZGUtYmtnIG5vZGUtbm8tYm9yZGVyIiBpZD0ibm9kZS0xNCI+PC9wYXRoPjxsaW5lIHkyPSI1NC45ODc1IiB4Mj0iMTY1LjYyNSIgeTE9IjU0Ljk4NzUiIHgxPSIwIiBjbGFzcz0ibm9kZS1saW5lLTEiPjwvbGluZT48L2c+PGcgdHJhbnNmb3JtPSJ0cmFuc2xhdGUoODIuODEyNSwgNSkiIHRleHQtYW5jaG9yPSJtaWRkbGUiIGRvbWluYW50LWJhc2VsaW5lPSJtaWRkbGUiIGFsaWdubWVudC1iYXNlbGluZT0ibWlkZGxlIiBkeT0iMWVtIj48Zz48cmVjdCBzdHlsZT0ic3Ryb2tlOiBub25lIiBjbGFzcz0iYmFja2dyb3VuZCI+PC9yZWN0Pjx0ZXh0IHN0eWxlPSIiIHk9Ii0xMC4xIj48dHNwYW4gZHk9IjEuMWVtIiB5PSItMC4xZW0iIHg9IjAiIGNsYXNzPSJ0ZXh0LW91dGVyLXRzcGFuIj48dHNwYW4gZm9udC13ZWlnaHQ9Im5vcm1hbCIgY2xhc3M9InRleHQtaW5uZXItdHNwYW4iIGZvbnQtc3R5bGU9Im5vcm1hbCI+Q29tcG9zaXRlPC90c3Bhbj48dHNwYW4gZm9udC13ZWlnaHQ9Im5vcm1hbCIgY2xhc3M9InRleHQtaW5uZXItdHNwYW4iIGZvbnQtc3R5bGU9Im5vcm1hbCI+IHN0cnVjdHVyZTwvdHNwYW4+PC90c3Bhbj48dHNwYW4gZHk9IjEuMWVtIiB5PSIxZW0iIHg9IjAiIGNsYXNzPSJ0ZXh0LW91dGVyLXRzcGFuIj48dHNwYW4gZm9udC13ZWlnaHQ9Im5vcm1hbCIgY2xhc3M9InRleHQtaW5uZXItdHNwYW4iIGZvbnQtc3R5bGU9Im5vcm1hbCI+ZGlhZ3JhbXM8L3RzcGFuPjwvdHNwYW4+PC90ZXh0PjwvZz48L2c+PC9nPjxnIHRyYW5zZm9ybT0idHJhbnNsYXRlKDI2LjE1NDc2ODc4OTIwMDAzNCwgODIuMTIxOTA2ODk4MTI2NjcpIiBjbGFzcz0ibWluZG1hcC1ub2RlIHNlY3Rpb24tMSI+PGc+PHBhdGggZD0iTTAgMzIuMzkzNzUgdi0yNy4zOTM3NDk5OTk5OTk5OTcgcTAsLTUgNSwtNSBoMTYwLjYyNSBxNSwwIDUsNSB2MzIuMzkzNzUgSDAgWiIgY2xhc3M9Im5vZGUtYmtnIG5vZGUtbm8tYm9yZGVyIiBpZD0ibm9kZS0xNSI+PC9wYXRoPjxsaW5lIHkyPSIzNy4zOTM3NSIgeDI9IjE3MC42MjUiIHkxPSIzNy4zOTM3NSIgeDE9IjAiIGNsYXNzPSJub2RlLWxpbmUtMSI+PC9saW5lPjwvZz48ZyB0cmFuc2Zvcm09InRyYW5zbGF0ZSg4NS4zMTI1LCA1KSIgdGV4dC1hbmNob3I9Im1pZGRsZSIgZG9taW5hbnQtYmFzZWxpbmU9Im1pZGRsZSIgYWxpZ25tZW50LWJhc2VsaW5lPSJtaWRkbGUiIGR5PSIxZW0iPjxnPjxyZWN0IHN0eWxlPSJzdHJva2U6IG5vbmUiIGNsYXNzPSJiYWNrZ3JvdW5kIj48L3JlY3Q+PHRleHQgc3R5bGU9IiIgeT0iLTEwLjEiPjx0c3BhbiBkeT0iMS4xZW0iIHk9Ii0wLjFlbSIgeD0iMCIgY2xhc3M9InRleHQtb3V0ZXItdHNwYW4iPjx0c3BhbiBmb250LXdlaWdodD0ibm9ybWFsIiBjbGFzcz0idGV4dC1pbm5lci10c3BhbiIgZm9udC1zdHlsZT0ibm9ybWFsIj5Db21wb25lbnQ8L3RzcGFuPjx0c3BhbiBmb250LXdlaWdodD0ibm9ybWFsIiBjbGFzcz0idGV4dC1pbm5lci10c3BhbiIgZm9udC1zdHlsZT0ibm9ybWFsIj4gZGlhZ3JhbXM8L3RzcGFuPjwvdHNwYW4+PC90ZXh0PjwvZz48L2c+PC9nPjxnIHRyYW5zZm9ybT0idHJhbnNsYXRlKDIxMC4zNDkwMTY5MjA4NTE1NywgMTk3LjgwOTkyNDU2ODc3OTkzKSIgY2xhc3M9Im1pbmRtYXAtbm9kZSBzZWN0aW9uLTEiPjxnPjxwYXRoIGQ9Ik0wIDMyLjM5Mzc1IHYtMjcuMzkzNzQ5OTk5OTk5OTk3IHEwLC01IDUsLTUgaDEyNi43ODEyNSBxNSwwIDUsNSB2MzIuMzkzNzUgSDAgWiIgY2xhc3M9Im5vZGUtYmtnIG5vZGUtbm8tYm9yZGVyIiBpZD0ibm9kZS0xNiI+PC9wYXRoPjxsaW5lIHkyPSIzNy4zOTM3NSIgeDI9IjEzNi43ODEyNSIgeTE9IjM3LjM5Mzc1IiB4MT0iMCIgY2xhc3M9Im5vZGUtbGluZS0xIj48L2xpbmU+PC9nPjxnIHRyYW5zZm9ybT0idHJhbnNsYXRlKDY4LjM5MDYyNSwgNSkiIHRleHQtYW5jaG9yPSJtaWRkbGUiIGRvbWluYW50LWJhc2VsaW5lPSJtaWRkbGUiIGFsaWdubWVudC1iYXNlbGluZT0ibWlkZGxlIiBkeT0iMWVtIj48Zz48cmVjdCBzdHlsZT0ic3Ryb2tlOiBub25lIiBjbGFzcz0iYmFja2dyb3VuZCI+PC9yZWN0Pjx0ZXh0IHN0eWxlPSIiIHk9Ii0xMC4xIj48dHNwYW4gZHk9IjEuMWVtIiB5PSItMC4xZW0iIHg9IjAiIGNsYXNzPSJ0ZXh0LW91dGVyLXRzcGFuIj48dHNwYW4gZm9udC13ZWlnaHQ9Im5vcm1hbCIgY2xhc3M9InRleHQtaW5uZXItdHNwYW4iIGZvbnQtc3R5bGU9Im5vcm1hbCI+UHJvZmlsZTwvdHNwYW4+PHRzcGFuIGZvbnQtd2VpZ2h0PSJub3JtYWwiIGNsYXNzPSJ0ZXh0LWlubmVyLXRzcGFuIiBmb250LXN0eWxlPSJub3JtYWwiPiBkaWFncmFtczwvdHNwYW4+PC90c3Bhbj48L3RleHQ+PC9nPjwvZz48L2c+PGcgdHJhbnNmb3JtPSJ0cmFuc2xhdGUoMTUsIDE1OC43NTg4MDM0NDA1MjAxOCkiIGNsYXNzPSJtaW5kbWFwLW5vZGUgc2VjdGlvbi0xIj48Zz48cGF0aCBkPSJNMCAzMi4zOTM3NSB2LTI3LjM5Mzc0OTk5OTk5OTk5NyBxMCwtNSA1LC01IGgxNjQuODc1IHE1LDAgNSw1IHYzMi4zOTM3NSBIMCBaIiBjbGFzcz0ibm9kZS1ia2cgbm9kZS1uby1ib3JkZXIiIGlkPSJub2RlLTE3Ij48L3BhdGg+PGxpbmUgeTI9IjM3LjM5Mzc1IiB4Mj0iMTc0Ljg3NSIgeTE9IjM3LjM5Mzc1IiB4MT0iMCIgY2xhc3M9Im5vZGUtbGluZS0xIj48L2xpbmU+PC9nPjxnIHRyYW5zZm9ybT0idHJhbnNsYXRlKDg3LjQzNzUsIDUpIiB0ZXh0LWFuY2hvcj0ibWlkZGxlIiBkb21pbmFudC1iYXNlbGluZT0ibWlkZGxlIiBhbGlnbm1lbnQtYmFzZWxpbmU9Im1pZGRsZSIgZHk9IjFlbSI+PGc+PHJlY3Qgc3R5bGU9InN0cm9rZTogbm9uZSIgY2xhc3M9ImJhY2tncm91bmQiPjwvcmVjdD48dGV4dCBzdHlsZT0iIiB5PSItMTAuMSI+PHRzcGFuIGR5PSIxLjFlbSIgeT0iLTAuMWVtIiB4PSIwIiBjbGFzcz0idGV4dC1vdXRlci10c3BhbiI+PHRzcGFuIGZvbnQtd2VpZ2h0PSJub3JtYWwiIGNsYXNzPSJ0ZXh0LWlubmVyLXRzcGFuIiBmb250LXN0eWxlPSJub3JtYWwiPkRlcGxveW1lbnQ8L3RzcGFuPjx0c3BhbiBmb250LXdlaWdodD0ibm9ybWFsIiBjbGFzcz0idGV4dC1pbm5lci10c3BhbiIgZm9udC1zdHlsZT0ibm9ybWFsIj4gZGlhZ3JhbXM8L3RzcGFuPjwvdHNwYW4+PC90ZXh0PjwvZz48L2c+PC9nPjxnIHRyYW5zZm9ybT0idHJhbnNsYXRlKDkyOS4yNjU3NjgzNjQ3MjMsIDIwNC4zODY3MzU3OTExMjAwMykiIGNsYXNzPSJtaW5kbWFwLW5vZGUgc2VjdGlvbi0wIj48Zz48cGF0aCBkPSJNMCAzMi4zOTM3NSB2LTI3LjM5Mzc0OTk5OTk5OTk5NyBxMCwtNSA1LC01IGgxNDcuMzEyNSBxNSwwIDUsNSB2MzIuMzkzNzUgSDAgWiIgY2xhc3M9Im5vZGUtYmtnIG5vZGUtbm8tYm9yZGVyIiBpZD0ibm9kZS02Ij48L3BhdGg+PGxpbmUgeTI9IjM3LjM5Mzc1IiB4Mj0iMTU3LjMxMjUiIHkxPSIzNy4zOTM3NSIgeDE9IjAiIGNsYXNzPSJub2RlLWxpbmUtMCI+PC9saW5lPjwvZz48ZyB0cmFuc2Zvcm09InRyYW5zbGF0ZSg3OC42NTYyNSwgNSkiIHRleHQtYW5jaG9yPSJtaWRkbGUiIGRvbWluYW50LWJhc2VsaW5lPSJtaWRkbGUiIGFsaWdubWVudC1iYXNlbGluZT0ibWlkZGxlIiBkeT0iMWVtIj48Zz48cmVjdCBzdHlsZT0ic3Ryb2tlOiBub25lIiBjbGFzcz0iYmFja2dyb3VuZCI+PC9yZWN0Pjx0ZXh0IHN0eWxlPSIiIHk9Ii0xMC4xIj48dHNwYW4gZHk9IjEuMWVtIiB5PSItMC4xZW0iIHg9IjAiIGNsYXNzPSJ0ZXh0LW91dGVyLXRzcGFuIj48dHNwYW4gZm9udC13ZWlnaHQ9Im5vcm1hbCIgY2xhc3M9InRleHQtaW5uZXItdHNwYW4iIGZvbnQtc3R5bGU9Im5vcm1hbCI+U2VxdWVuY2U8L3RzcGFuPjx0c3BhbiBmb250LXdlaWdodD0ibm9ybWFsIiBjbGFzcz0idGV4dC1pbm5lci10c3BhbiIgZm9udC1zdHlsZT0ibm9ybWFsIj4gZGlhZ3JhbXM8L3RzcGFuPjwvdHNwYW4+PC90ZXh0PjwvZz48L2c+PC9nPjxnIHRyYW5zZm9ybT0idHJhbnNsYXRlKDg1Mi4zMTc1MjA0MzI4Mzc1LCAxMzAuMDY3NDgyMDE2MzI2MDQpIiBjbGFzcz0ibWluZG1hcC1ub2RlIHNlY3Rpb24tMCI+PGc+PHBhdGggZD0iTTAgMzIuMzkzNzUgdi0yNy4zOTM3NDk5OTk5OTk5OTcgcTAsLTUgNSwtNSBoMTkwLjQ2ODc1IHE1LDAgNSw1IHYzMi4zOTM3NSBIMCBaIiBjbGFzcz0ibm9kZS1ia2cgbm9kZS1uby1ib3JkZXIiIGlkPSJub2RlLTciPjwvcGF0aD48bGluZSB5Mj0iMzcuMzkzNzUiIHgyPSIyMDAuNDY4NzUiIHkxPSIzNy4zOTM3NSIgeDE9IjAiIGNsYXNzPSJub2RlLWxpbmUtMCI+PC9saW5lPjwvZz48ZyB0cmFuc2Zvcm09InRyYW5zbGF0ZSgxMDAuMjM0Mzc1LCA1KSIgdGV4dC1hbmNob3I9Im1pZGRsZSIgZG9taW5hbnQtYmFzZWxpbmU9Im1pZGRsZSIgYWxpZ25tZW50LWJhc2VsaW5lPSJtaWRkbGUiIGR5PSIxZW0iPjxnPjxyZWN0IHN0eWxlPSJzdHJva2U6IG5vbmUiIGNsYXNzPSJiYWNrZ3JvdW5kIj48L3JlY3Q+PHRleHQgc3R5bGU9IiIgeT0iLTEwLjEiPjx0c3BhbiBkeT0iMS4xZW0iIHk9Ii0wLjFlbSIgeD0iMCIgY2xhc3M9InRleHQtb3V0ZXItdHNwYW4iPjx0c3BhbiBmb250LXdlaWdodD0ibm9ybWFsIiBjbGFzcz0idGV4dC1pbm5lci10c3BhbiIgZm9udC1zdHlsZT0ibm9ybWFsIj5Db21tdW5pY2F0aW9uPC90c3Bhbj48dHNwYW4gZm9udC13ZWlnaHQ9Im5vcm1hbCIgY2xhc3M9InRleHQtaW5uZXItdHNwYW4iIGZvbnQtc3R5bGU9Im5vcm1hbCI+IGRpYWdyYW1zPC90c3Bhbj48L3RzcGFuPjwvdGV4dD48L2c+PC9nPjwvZz48ZyB0cmFuc2Zvcm09InRyYW5zbGF0ZSg2NjUuMDA1Nzg2MTIxMTEwMSwgNzkuMjA1MjI3MzUwMzQ3OTcpIiBjbGFzcz0ibWluZG1hcC1ub2RlIHNlY3Rpb24tMCI+PGc+PHBhdGggZD0iTTAgNDkuOTg3NSB2LTQ0Ljk4NzUgcTAsLTUgNSwtNSBoMTU4LjI4MTI1IHE1LDAgNSw1IHY0OS45ODc1IEgwIFoiIGNsYXNzPSJub2RlLWJrZyBub2RlLW5vLWJvcmRlciIgaWQ9Im5vZGUtOCI+PC9wYXRoPjxsaW5lIHkyPSI1NC45ODc1IiB4Mj0iMTY4LjI4MTI1IiB5MT0iNTQuOTg3NSIgeDE9IjAiIGNsYXNzPSJub2RlLWxpbmUtMCI+PC9saW5lPjwvZz48ZyB0cmFuc2Zvcm09InRyYW5zbGF0ZSg4NC4xNDA2MjUsIDUpIiB0ZXh0LWFuY2hvcj0ibWlkZGxlIiBkb21pbmFudC1iYXNlbGluZT0ibWlkZGxlIiBhbGlnbm1lbnQtYmFzZWxpbmU9Im1pZGRsZSIgZHk9IjFlbSI+PGc+PHJlY3Qgc3R5bGU9InN0cm9rZTogbm9uZSIgY2xhc3M9ImJhY2tncm91bmQiPjwvcmVjdD48dGV4dCBzdHlsZT0iIiB5PSItMTAuMSI+PHRzcGFuIGR5PSIxLjFlbSIgeT0iLTAuMWVtIiB4PSIwIiBjbGFzcz0idGV4dC1vdXRlci10c3BhbiI+PHRzcGFuIGZvbnQtd2VpZ2h0PSJub3JtYWwiIGNsYXNzPSJ0ZXh0LWlubmVyLXRzcGFuIiBmb250LXN0eWxlPSJub3JtYWwiPkludGVyYWN0aW9uPC90c3Bhbj48dHNwYW4gZm9udC13ZWlnaHQ9Im5vcm1hbCIgY2xhc3M9InRleHQtaW5uZXItdHNwYW4iIGZvbnQtc3R5bGU9Im5vcm1hbCI+IG92ZXJ2aWV3PC90c3Bhbj48L3RzcGFuPjx0c3BhbiBkeT0iMS4xZW0iIHk9IjFlbSIgeD0iMCIgY2xhc3M9InRleHQtb3V0ZXItdHNwYW4iPjx0c3BhbiBmb250LXdlaWdodD0ibm9ybWFsIiBjbGFzcz0idGV4dC1pbm5lci10c3BhbiIgZm9udC1zdHlsZT0ibm9ybWFsIj5kaWFncmFtczwvdHNwYW4+PC90c3Bhbj48L3RleHQ+PC9nPjwvZz48L2c+PGcgdHJhbnNmb3JtPSJ0cmFuc2xhdGUoODA4LjU3NjI2MzAwOTc5NywgMjU1LjU0ODQ0MjU1NjI5ODEpIiBjbGFzcz0ibWluZG1hcC1ub2RlIHNlY3Rpb24tMCI+PGc+PHBhdGggZD0iTTAgMzIuMzkzNzUgdi0yNy4zOTM3NDk5OTk5OTk5OTcgcTAsLTUgNSwtNSBoMTI3LjU5Mzc1IHE1LDAgNSw1IHYzMi4zOTM3NSBIMCBaIiBjbGFzcz0ibm9kZS1ia2cgbm9kZS1uby1ib3JkZXIiIGlkPSJub2RlLTkiPjwvcGF0aD48bGluZSB5Mj0iMzcuMzkzNzUiIHgyPSIxMzcuNTkzNzUiIHkxPSIzNy4zOTM3NSIgeDE9IjAiIGNsYXNzPSJub2RlLWxpbmUtMCI+PC9saW5lPjwvZz48ZyB0cmFuc2Zvcm09InRyYW5zbGF0ZSg2OC43OTY4NzUsIDUpIiB0ZXh0LWFuY2hvcj0ibWlkZGxlIiBkb21pbmFudC1iYXNlbGluZT0ibWlkZGxlIiBhbGlnbm1lbnQtYmFzZWxpbmU9Im1pZGRsZSIgZHk9IjFlbSI+PGc+PHJlY3Qgc3R5bGU9InN0cm9rZTogbm9uZSIgY2xhc3M9ImJhY2tncm91bmQiPjwvcmVjdD48dGV4dCBzdHlsZT0iIiB5PSItMTAuMSI+PHRzcGFuIGR5PSIxLjFlbSIgeT0iLTAuMWVtIiB4PSIwIiBjbGFzcz0idGV4dC1vdXRlci10c3BhbiI+PHRzcGFuIGZvbnQtd2VpZ2h0PSJub3JtYWwiIGNsYXNzPSJ0ZXh0LWlubmVyLXRzcGFuIiBmb250LXN0eWxlPSJub3JtYWwiPlRpbWluZzwvdHNwYW4+PHRzcGFuIGZvbnQtd2VpZ2h0PSJub3JtYWwiIGNsYXNzPSJ0ZXh0LWlubmVyLXRzcGFuIiBmb250LXN0eWxlPSJub3JtYWwiPiBkaWFncmFtczwvdHNwYW4+PC90c3Bhbj48L3RleHQ+PC9nPjwvZz48L2c+PC9nPjwvc3ZnPg==;imageBackground=#CCCCCC;" vertex="1" parent="1">
            <mxGeometry x="39" y="33" width="1091.5782470703125" height="380.06109619140625" as="geometry" />
          </mxCell>
        </UserObject>
      </root>
    </mxGraphModel>
  </diagram>
  <diagram id="MvhCTnhbz83m2u4gIbEv" name="Page-3">
    <mxGraphModel dx="1214" dy="585" grid="1" gridSize="10" guides="1" tooltips="1" connect="1" arrows="1" fold="1" page="1" pageScale="1" pageWidth="1169" pageHeight="827" math="0" shadow="0">
      <root>
        <mxCell id="0" />
        <mxCell id="1" parent="0" />
        <mxCell id="Lz1UYFhkCpvfX2jw3AXE-191" value="HR" style="ellipse;shape=cloud;strokeWidth=2;fillColor=#fff2cc;strokeColor=#d6b656;" vertex="1" parent="1">
          <mxGeometry x="530" y="150" width="130" height="77" as="geometry" />
        </mxCell>
        <mxCell id="Lz1UYFhkCpvfX2jw3AXE-192" value="Onboarding" style="ellipse;aspect=fixed;strokeWidth=2;whiteSpace=wrap;fillColor=#d5e8d4;strokeColor=#82b366;" vertex="1" parent="1">
          <mxGeometry x="399" y="183" width="102" height="102" as="geometry" />
        </mxCell>
        <mxCell id="Lz1UYFhkCpvfX2jw3AXE-193" value="Prior to first day" style="rounded=1;absoluteArcSize=1;arcSize=14;whiteSpace=wrap;strokeWidth=2;fillColor=#d5e8d4;strokeColor=#82b366;fontStyle=0" vertex="1" parent="1">
          <mxGeometry x="436" y="308" width="139" height="37" as="geometry" />
        </mxCell>
        <mxCell id="Lz1UYFhkCpvfX2jw3AXE-194" value="Contract signed" style="rounded=1;absoluteArcSize=1;arcSize=14;whiteSpace=wrap;strokeWidth=2;fillColor=#d5e8d4;strokeColor=#82b366;" vertex="1" parent="1">
          <mxGeometry x="332" y="375" width="132" height="37" as="geometry" />
        </mxCell>
        <mxCell id="Lz1UYFhkCpvfX2jw3AXE-195" value="Employee handbook" style="rounded=1;absoluteArcSize=1;arcSize=14;whiteSpace=wrap;strokeWidth=2;fillColor=#d5e8d4;strokeColor=#82b366;" vertex="1" parent="1">
          <mxGeometry x="491" y="392" width="163" height="37" as="geometry" />
        </mxCell>
        <mxCell id="Lz1UYFhkCpvfX2jw3AXE-196" value="IT equipment reserved" style="rounded=1;absoluteArcSize=1;arcSize=14;whiteSpace=wrap;strokeWidth=2;fillColor=#d5e8d4;strokeColor=#82b366;" vertex="1" parent="1">
          <mxGeometry x="633" y="345" width="182" height="37" as="geometry" />
        </mxCell>
        <mxCell id="Lz1UYFhkCpvfX2jw3AXE-197" value="First day" style="rounded=1;absoluteArcSize=1;arcSize=14;whiteSpace=wrap;strokeWidth=2;fillColor=#d5e8d4;strokeColor=#82b366;" vertex="1" parent="1">
          <mxGeometry x="381" y="119" width="82" height="37" as="geometry" />
        </mxCell>
        <mxCell id="Lz1UYFhkCpvfX2jw3AXE-198" value="Office tour" style="rounded=1;absoluteArcSize=1;arcSize=14;whiteSpace=wrap;strokeWidth=2;fillColor=#d5e8d4;strokeColor=#82b366;" vertex="1" parent="1">
          <mxGeometry x="421" y="30" width="99" height="37" as="geometry" />
        </mxCell>
        <mxCell id="Lz1UYFhkCpvfX2jw3AXE-199" value="Team intros" style="rounded=1;absoluteArcSize=1;arcSize=14;whiteSpace=wrap;strokeWidth=2;fillColor=#d5e8d4;strokeColor=#82b366;" vertex="1" parent="1">
          <mxGeometry x="280" y="43" width="105" height="37" as="geometry" />
        </mxCell>
        <mxCell id="Lz1UYFhkCpvfX2jw3AXE-200" value="Account setup" style="rounded=1;absoluteArcSize=1;arcSize=14;whiteSpace=wrap;strokeWidth=2;fillColor=#d5e8d4;strokeColor=#82b366;" vertex="1" parent="1">
          <mxGeometry x="508" y="87" width="122" height="37" as="geometry" />
        </mxCell>
        <mxCell id="Lz1UYFhkCpvfX2jw3AXE-201" value="First week" style="rounded=1;absoluteArcSize=1;arcSize=14;whiteSpace=wrap;strokeWidth=2;fillColor=#d5e8d4;strokeColor=#82b366;" vertex="1" parent="1">
          <mxGeometry x="276" y="283" width="94" height="37" as="geometry" />
        </mxCell>
        <mxCell id="Lz1UYFhkCpvfX2jw3AXE-202" value="Shadow team members" style="rounded=1;absoluteArcSize=1;arcSize=14;whiteSpace=wrap;strokeWidth=2;fillColor=#d5e8d4;strokeColor=#82b366;" vertex="1" parent="1">
          <mxGeometry x="116" y="351" width="186" height="37" as="geometry" />
        </mxCell>
        <mxCell id="Lz1UYFhkCpvfX2jw3AXE-203" value="Software training" style="rounded=1;absoluteArcSize=1;arcSize=14;whiteSpace=wrap;strokeWidth=2;fillColor=#d5e8d4;strokeColor=#82b366;" vertex="1" parent="1">
          <mxGeometry x="76" y="285" width="144" height="37" as="geometry" />
        </mxCell>
        <mxCell id="Lz1UYFhkCpvfX2jw3AXE-204" value="First month" style="rounded=1;absoluteArcSize=1;arcSize=14;whiteSpace=wrap;strokeWidth=2;fillColor=#d5e8d4;strokeColor=#82b366;" vertex="1" parent="1">
          <mxGeometry x="228" y="204" width="103" height="37" as="geometry" />
        </mxCell>
        <mxCell id="Lz1UYFhkCpvfX2jw3AXE-205" value="Assign projects/tasks" style="rounded=1;absoluteArcSize=1;arcSize=14;whiteSpace=wrap;strokeWidth=2;fillColor=#d5e8d4;strokeColor=#82b366;" vertex="1" parent="1">
          <mxGeometry x="57" y="142" width="172" height="37" as="geometry" />
        </mxCell>
        <mxCell id="Lz1UYFhkCpvfX2jw3AXE-206" value="Set goals" style="rounded=1;absoluteArcSize=1;arcSize=14;whiteSpace=wrap;strokeWidth=2;fillColor=#d5e8d4;strokeColor=#82b366;" vertex="1" parent="1">
          <mxGeometry x="262" y="119" width="84" height="37" as="geometry" />
        </mxCell>
        <mxCell id="Lz1UYFhkCpvfX2jw3AXE-207" value="Get team feedback" style="rounded=1;absoluteArcSize=1;arcSize=14;whiteSpace=wrap;strokeWidth=2;fillColor=#d5e8d4;strokeColor=#82b366;" vertex="1" parent="1">
          <mxGeometry x="10" y="213" width="158" height="37" as="geometry" />
        </mxCell>
        <mxCell id="Lz1UYFhkCpvfX2jw3AXE-208" value="Offboarding" style="shape=hexagon;perimeter=hexagonPerimeter2;fixedSize=1;strokeWidth=2;whiteSpace=wrap;fillColor=#f8cecc;strokeColor=#b85450;" vertex="1" parent="1">
          <mxGeometry x="701" y="161" width="125" height="47" as="geometry" />
        </mxCell>
        <mxCell id="Lz1UYFhkCpvfX2jw3AXE-209" value="Feedback and review" style="whiteSpace=wrap;strokeWidth=2;fillColor=#f8cecc;strokeColor=#b85450;" vertex="1" parent="1">
          <mxGeometry x="656" y="59" width="192" height="47" as="geometry" />
        </mxCell>
        <mxCell id="Lz1UYFhkCpvfX2jw3AXE-210" value="Exit interview" style="whiteSpace=wrap;strokeWidth=2;fillColor=#f8cecc;strokeColor=#b85450;" vertex="1" parent="1">
          <mxGeometry x="878" y="188" width="140" height="47" as="geometry" />
        </mxCell>
        <mxCell id="Lz1UYFhkCpvfX2jw3AXE-211" value="Tasks/projects reassigned" style="whiteSpace=wrap;strokeWidth=2;fillColor=#f8cecc;strokeColor=#b85450;" vertex="1" parent="1">
          <mxGeometry x="871" y="109" width="226" height="47" as="geometry" />
        </mxCell>
        <mxCell id="Lz1UYFhkCpvfX2jw3AXE-212" value="Handover" style="whiteSpace=wrap;strokeWidth=2;fillColor=#f8cecc;strokeColor=#b85450;" vertex="1" parent="1">
          <mxGeometry x="1050" y="199" width="108" height="47" as="geometry" />
        </mxCell>
        <mxCell id="Lz1UYFhkCpvfX2jw3AXE-213" value="Account deactivation/deletion" style="whiteSpace=wrap;strokeWidth=2;fillColor=#f8cecc;strokeColor=#b85450;" vertex="1" parent="1">
          <mxGeometry x="767" y="256" width="197" height="65" as="geometry" />
        </mxCell>
        <mxCell id="Lz1UYFhkCpvfX2jw3AXE-214" value="IT hardware return" style="whiteSpace=wrap;strokeWidth=2;fillColor=#f8cecc;strokeColor=#b85450;" vertex="1" parent="1">
          <mxGeometry x="563" y="244" width="176" height="47" as="geometry" />
        </mxCell>
        <mxCell id="Lz1UYFhkCpvfX2jw3AXE-215" style="endArrow=none;rounded=0;" edge="1" parent="1" source="Lz1UYFhkCpvfX2jw3AXE-191" target="Lz1UYFhkCpvfX2jw3AXE-192">
          <mxGeometry relative="1" as="geometry" />
        </mxCell>
        <mxCell id="Lz1UYFhkCpvfX2jw3AXE-216" style="endArrow=none;rounded=0;" edge="1" parent="1" source="Lz1UYFhkCpvfX2jw3AXE-191" target="Lz1UYFhkCpvfX2jw3AXE-208">
          <mxGeometry relative="1" as="geometry" />
        </mxCell>
        <mxCell id="Lz1UYFhkCpvfX2jw3AXE-217" style="endArrow=none;rounded=0;" edge="1" parent="1" source="Lz1UYFhkCpvfX2jw3AXE-192" target="Lz1UYFhkCpvfX2jw3AXE-193">
          <mxGeometry relative="1" as="geometry" />
        </mxCell>
        <mxCell id="Lz1UYFhkCpvfX2jw3AXE-218" style="endArrow=none;rounded=0;" edge="1" parent="1" source="Lz1UYFhkCpvfX2jw3AXE-192" target="Lz1UYFhkCpvfX2jw3AXE-197">
          <mxGeometry relative="1" as="geometry" />
        </mxCell>
        <mxCell id="Lz1UYFhkCpvfX2jw3AXE-219" style="endArrow=none;rounded=0;" edge="1" parent="1" source="Lz1UYFhkCpvfX2jw3AXE-192" target="Lz1UYFhkCpvfX2jw3AXE-201">
          <mxGeometry relative="1" as="geometry" />
        </mxCell>
        <mxCell id="Lz1UYFhkCpvfX2jw3AXE-220" style="endArrow=none;rounded=0;" edge="1" parent="1" source="Lz1UYFhkCpvfX2jw3AXE-192" target="Lz1UYFhkCpvfX2jw3AXE-204">
          <mxGeometry relative="1" as="geometry" />
        </mxCell>
        <mxCell id="Lz1UYFhkCpvfX2jw3AXE-221" style="endArrow=none;rounded=0;" edge="1" parent="1" source="Lz1UYFhkCpvfX2jw3AXE-193" target="Lz1UYFhkCpvfX2jw3AXE-194">
          <mxGeometry relative="1" as="geometry" />
        </mxCell>
        <mxCell id="Lz1UYFhkCpvfX2jw3AXE-222" style="endArrow=none;rounded=0;" edge="1" parent="1" source="Lz1UYFhkCpvfX2jw3AXE-193" target="Lz1UYFhkCpvfX2jw3AXE-195">
          <mxGeometry relative="1" as="geometry" />
        </mxCell>
        <mxCell id="Lz1UYFhkCpvfX2jw3AXE-223" style="endArrow=none;rounded=0;" edge="1" parent="1" source="Lz1UYFhkCpvfX2jw3AXE-193" target="Lz1UYFhkCpvfX2jw3AXE-196">
          <mxGeometry relative="1" as="geometry" />
        </mxCell>
        <mxCell id="Lz1UYFhkCpvfX2jw3AXE-224" style="endArrow=none;rounded=0;" edge="1" parent="1" source="Lz1UYFhkCpvfX2jw3AXE-197" target="Lz1UYFhkCpvfX2jw3AXE-198">
          <mxGeometry relative="1" as="geometry" />
        </mxCell>
        <mxCell id="Lz1UYFhkCpvfX2jw3AXE-225" style="endArrow=none;rounded=0;" edge="1" parent="1" source="Lz1UYFhkCpvfX2jw3AXE-197" target="Lz1UYFhkCpvfX2jw3AXE-199">
          <mxGeometry relative="1" as="geometry" />
        </mxCell>
        <mxCell id="Lz1UYFhkCpvfX2jw3AXE-226" style="endArrow=none;rounded=0;" edge="1" parent="1" source="Lz1UYFhkCpvfX2jw3AXE-197" target="Lz1UYFhkCpvfX2jw3AXE-200">
          <mxGeometry relative="1" as="geometry" />
        </mxCell>
        <mxCell id="Lz1UYFhkCpvfX2jw3AXE-227" style="endArrow=none;rounded=0;" edge="1" parent="1" source="Lz1UYFhkCpvfX2jw3AXE-201" target="Lz1UYFhkCpvfX2jw3AXE-202">
          <mxGeometry relative="1" as="geometry" />
        </mxCell>
        <mxCell id="Lz1UYFhkCpvfX2jw3AXE-228" style="endArrow=none;rounded=0;" edge="1" parent="1" source="Lz1UYFhkCpvfX2jw3AXE-201" target="Lz1UYFhkCpvfX2jw3AXE-203">
          <mxGeometry relative="1" as="geometry" />
        </mxCell>
        <mxCell id="Lz1UYFhkCpvfX2jw3AXE-229" style="endArrow=none;rounded=0;" edge="1" parent="1" source="Lz1UYFhkCpvfX2jw3AXE-204" target="Lz1UYFhkCpvfX2jw3AXE-205">
          <mxGeometry relative="1" as="geometry" />
        </mxCell>
        <mxCell id="Lz1UYFhkCpvfX2jw3AXE-230" style="endArrow=none;rounded=0;" edge="1" parent="1" source="Lz1UYFhkCpvfX2jw3AXE-204" target="Lz1UYFhkCpvfX2jw3AXE-206">
          <mxGeometry relative="1" as="geometry" />
        </mxCell>
        <mxCell id="Lz1UYFhkCpvfX2jw3AXE-231" style="endArrow=none;rounded=0;" edge="1" parent="1" source="Lz1UYFhkCpvfX2jw3AXE-204" target="Lz1UYFhkCpvfX2jw3AXE-207">
          <mxGeometry relative="1" as="geometry" />
        </mxCell>
        <mxCell id="Lz1UYFhkCpvfX2jw3AXE-232" style="endArrow=none;rounded=0;" edge="1" parent="1" source="Lz1UYFhkCpvfX2jw3AXE-208" target="Lz1UYFhkCpvfX2jw3AXE-209">
          <mxGeometry relative="1" as="geometry" />
        </mxCell>
        <mxCell id="Lz1UYFhkCpvfX2jw3AXE-233" style="endArrow=none;rounded=0;" edge="1" parent="1" source="Lz1UYFhkCpvfX2jw3AXE-208" target="Lz1UYFhkCpvfX2jw3AXE-210">
          <mxGeometry relative="1" as="geometry" />
        </mxCell>
        <mxCell id="Lz1UYFhkCpvfX2jw3AXE-234" style="endArrow=none;rounded=0;" edge="1" parent="1" source="Lz1UYFhkCpvfX2jw3AXE-208" target="Lz1UYFhkCpvfX2jw3AXE-211">
          <mxGeometry relative="1" as="geometry" />
        </mxCell>
        <mxCell id="Lz1UYFhkCpvfX2jw3AXE-235" style="endArrow=none;rounded=0;" edge="1" parent="1" source="Lz1UYFhkCpvfX2jw3AXE-208" target="Lz1UYFhkCpvfX2jw3AXE-213">
          <mxGeometry relative="1" as="geometry" />
        </mxCell>
        <mxCell id="Lz1UYFhkCpvfX2jw3AXE-236" style="endArrow=none;rounded=0;" edge="1" parent="1" source="Lz1UYFhkCpvfX2jw3AXE-208" target="Lz1UYFhkCpvfX2jw3AXE-214">
          <mxGeometry relative="1" as="geometry" />
        </mxCell>
        <mxCell id="Lz1UYFhkCpvfX2jw3AXE-237" style="endArrow=none;rounded=0;" edge="1" parent="1" source="Lz1UYFhkCpvfX2jw3AXE-211" target="Lz1UYFhkCpvfX2jw3AXE-212">
          <mxGeometry relative="1" as="geometry" />
        </mxCell>
      </root>
    </mxGraphModel>
  </diagram>
  <diagram id="lDBH81eynl5e5HKdW472" name="Page-4">
    <mxGraphModel dx="1214" dy="585" grid="1" gridSize="10" guides="1" tooltips="1" connect="1" arrows="1" fold="1" page="1" pageScale="1" pageWidth="1169" pageHeight="827" math="0" shadow="0">
      <root>
        <mxCell id="0" />
        <mxCell id="1" parent="0" />
        <UserObject label="" mermaidData="{&#xa;  &quot;data&quot;: &quot;mindmap\n  root)HR(\n    ((Onboarding))\n      Prior to first day\n        Contract signed\n        Employee handbook\n        IT equipment reserved\n      First day\n        Office tour\n        Team intros\n        Account setup\n      First week\n        Shadow team members\n        Software training\n      First month\n        Assign projects/tasks\n        Set goals\n        Get team feedback\n\n    id2{{Offboarding}}\n      [Feedback and review]\n      [Exit interview]\n      [Tasks/projects reassigned]\n        [Handover]\n      [Account deactivation/deletion]\n      [IT hardware return]&quot;&#xa;}" id="H4W7GMTyjdS2SkJpVucJ-1">
          <mxCell style="shape=image;noLabel=1;verticalAlign=top;imageAspect=1;image=data:image/svg+xml,PHN2ZyBhcmlhLXJvbGVkZXNjcmlwdGlvbj0ibWluZG1hcCIgcm9sZT0iZ3JhcGhpY3MtZG9jdW1lbnQgZG9jdW1lbnQiIHZpZXdCb3g9IjUgNSAxMjI5LjQzMDQxOTkyMTg3NSA0MTkuODA1MDUzNzEwOTM3NSIgc3R5bGU9Im1heC13aWR0aDogMTIyOS40MzA0MTk5MjE4NzVweDsiIHhtbG5zPSJodHRwOi8vd3d3LnczLm9yZy8yMDAwL3N2ZyIgd2lkdGg9IjEwMCUiIGlkPSJnZU1lcm1haWRPdXRwdXQtMTc0NzQwNjQzNTQ2NiI+PHN0eWxlPiNnZU1lcm1haWRPdXRwdXQtMTc0NzQwNjQzNTQ2Nntmb250LWZhbWlseToidHJlYnVjaGV0IG1zIix2ZXJkYW5hLGFyaWFsLHNhbnMtc2VyaWY7Zm9udC1zaXplOjE2cHg7ZmlsbDojMDAwMDAwO31Aa2V5ZnJhbWVzIGVkZ2UtYW5pbWF0aW9uLWZyYW1le2Zyb217c3Ryb2tlLWRhc2hvZmZzZXQ6MDt9fUBrZXlmcmFtZXMgZGFzaHt0b3tzdHJva2UtZGFzaG9mZnNldDowO319I2dlTWVybWFpZE91dHB1dC0xNzQ3NDA2NDM1NDY2IC5lZGdlLWFuaW1hdGlvbi1zbG93e3N0cm9rZS1kYXNoYXJyYXk6OSw1IWltcG9ydGFudDtzdHJva2UtZGFzaG9mZnNldDo5MDA7YW5pbWF0aW9uOmRhc2ggNTBzIGxpbmVhciBpbmZpbml0ZTtzdHJva2UtbGluZWNhcDpyb3VuZDt9I2dlTWVybWFpZE91dHB1dC0xNzQ3NDA2NDM1NDY2IC5lZGdlLWFuaW1hdGlvbi1mYXN0e3N0cm9rZS1kYXNoYXJyYXk6OSw1IWltcG9ydGFudDtzdHJva2UtZGFzaG9mZnNldDo5MDA7YW5pbWF0aW9uOmRhc2ggMjBzIGxpbmVhciBpbmZpbml0ZTtzdHJva2UtbGluZWNhcDpyb3VuZDt9I2dlTWVybWFpZE91dHB1dC0xNzQ3NDA2NDM1NDY2IC5lcnJvci1pY29ue2ZpbGw6IzU1MjIyMjt9I2dlTWVybWFpZE91dHB1dC0xNzQ3NDA2NDM1NDY2IC5lcnJvci10ZXh0e2ZpbGw6IzU1MjIyMjtzdHJva2U6IzU1MjIyMjt9I2dlTWVybWFpZE91dHB1dC0xNzQ3NDA2NDM1NDY2IC5lZGdlLXRoaWNrbmVzcy1ub3JtYWx7c3Ryb2tlLXdpZHRoOjFweDt9I2dlTWVybWFpZE91dHB1dC0xNzQ3NDA2NDM1NDY2IC5lZGdlLXRoaWNrbmVzcy10aGlja3tzdHJva2Utd2lkdGg6My41cHg7fSNnZU1lcm1haWRPdXRwdXQtMTc0NzQwNjQzNTQ2NiAuZWRnZS1wYXR0ZXJuLXNvbGlke3N0cm9rZS1kYXNoYXJyYXk6MDt9I2dlTWVybWFpZE91dHB1dC0xNzQ3NDA2NDM1NDY2IC5lZGdlLXRoaWNrbmVzcy1pbnZpc2libGV7c3Ryb2tlLXdpZHRoOjA7ZmlsbDpub25lO30jZ2VNZXJtYWlkT3V0cHV0LTE3NDc0MDY0MzU0NjYgLmVkZ2UtcGF0dGVybi1kYXNoZWR7c3Ryb2tlLWRhc2hhcnJheTozO30jZ2VNZXJtYWlkT3V0cHV0LTE3NDc0MDY0MzU0NjYgLmVkZ2UtcGF0dGVybi1kb3R0ZWR7c3Ryb2tlLWRhc2hhcnJheToyO30jZ2VNZXJtYWlkT3V0cHV0LTE3NDc0MDY0MzU0NjYgLm1hcmtlcntmaWxsOiM2NjY7c3Ryb2tlOiM2NjY7fSNnZU1lcm1haWRPdXRwdXQtMTc0NzQwNjQzNTQ2NiAubWFya2VyLmNyb3Nze3N0cm9rZTojNjY2O30jZ2VNZXJtYWlkT3V0cHV0LTE3NDc0MDY0MzU0NjYgc3Zne2ZvbnQtZmFtaWx5OiJ0cmVidWNoZXQgbXMiLHZlcmRhbmEsYXJpYWwsc2Fucy1zZXJpZjtmb250LXNpemU6MTZweDt9I2dlTWVybWFpZE91dHB1dC0xNzQ3NDA2NDM1NDY2IHB7bWFyZ2luOjA7fSNnZU1lcm1haWRPdXRwdXQtMTc0NzQwNjQzNTQ2NiAuZWRnZXtzdHJva2Utd2lkdGg6Mzt9I2dlTWVybWFpZE91dHB1dC0xNzQ3NDA2NDM1NDY2IC5zZWN0aW9uLS0xIHJlY3QsI2dlTWVybWFpZE91dHB1dC0xNzQ3NDA2NDM1NDY2IC5zZWN0aW9uLS0xIHBhdGgsI2dlTWVybWFpZE91dHB1dC0xNzQ3NDA2NDM1NDY2IC5zZWN0aW9uLS0xIGNpcmNsZSwjZ2VNZXJtYWlkT3V0cHV0LTE3NDc0MDY0MzU0NjYgLnNlY3Rpb24tLTEgcG9seWdvbiwjZ2VNZXJtYWlkT3V0cHV0LTE3NDc0MDY0MzU0NjYgLnNlY3Rpb24tLTEgcGF0aHtmaWxsOiM1NTU7fSNnZU1lcm1haWRPdXRwdXQtMTc0NzQwNjQzNTQ2NiAuc2VjdGlvbi0tMSB0ZXh0e2ZpbGw6I0Y0RjRGNDt9I2dlTWVybWFpZE91dHB1dC0xNzQ3NDA2NDM1NDY2IC5ub2RlLWljb24tLTF7Zm9udC1zaXplOjQwcHg7Y29sb3I6I0Y0RjRGNDt9I2dlTWVybWFpZE91dHB1dC0xNzQ3NDA2NDM1NDY2IC5zZWN0aW9uLWVkZ2UtLTF7c3Ryb2tlOiM1NTU7fSNnZU1lcm1haWRPdXRwdXQtMTc0NzQwNjQzNTQ2NiAuZWRnZS1kZXB0aC0tMXtzdHJva2Utd2lkdGg6MTc7fSNnZU1lcm1haWRPdXRwdXQtMTc0NzQwNjQzNTQ2NiAuc2VjdGlvbi0tMSBsaW5le3N0cm9rZTojYWFhYWFhO3N0cm9rZS13aWR0aDozO30jZ2VNZXJtYWlkT3V0cHV0LTE3NDc0MDY0MzU0NjYgLmRpc2FibGVkLCNnZU1lcm1haWRPdXRwdXQtMTc0NzQwNjQzNTQ2NiAuZGlzYWJsZWQgY2lyY2xlLCNnZU1lcm1haWRPdXRwdXQtMTc0NzQwNjQzNTQ2NiAuZGlzYWJsZWQgdGV4dHtmaWxsOmxpZ2h0Z3JheTt9I2dlTWVybWFpZE91dHB1dC0xNzQ3NDA2NDM1NDY2IC5kaXNhYmxlZCB0ZXh0e2ZpbGw6I2VmZWZlZjt9I2dlTWVybWFpZE91dHB1dC0xNzQ3NDA2NDM1NDY2IC5zZWN0aW9uLTAgcmVjdCwjZ2VNZXJtYWlkT3V0cHV0LTE3NDc0MDY0MzU0NjYgLnNlY3Rpb24tMCBwYXRoLCNnZU1lcm1haWRPdXRwdXQtMTc0NzQwNjQzNTQ2NiAuc2VjdGlvbi0wIGNpcmNsZSwjZ2VNZXJtYWlkT3V0cHV0LTE3NDc0MDY0MzU0NjYgLnNlY3Rpb24tMCBwb2x5Z29uLCNnZU1lcm1haWRPdXRwdXQtMTc0NzQwNjQzNTQ2NiAuc2VjdGlvbi0wIHBhdGh7ZmlsbDojRjRGNEY0O30jZ2VNZXJtYWlkT3V0cHV0LTE3NDc0MDY0MzU0NjYgLnNlY3Rpb24tMCB0ZXh0e2ZpbGw6IzMzMzt9I2dlTWVybWFpZE91dHB1dC0xNzQ3NDA2NDM1NDY2IC5ub2RlLWljb24tMHtmb250LXNpemU6NDBweDtjb2xvcjojMzMzO30jZ2VNZXJtYWlkT3V0cHV0LTE3NDc0MDY0MzU0NjYgLnNlY3Rpb24tZWRnZS0we3N0cm9rZTojRjRGNEY0O30jZ2VNZXJtYWlkT3V0cHV0LTE3NDc0MDY0MzU0NjYgLmVkZ2UtZGVwdGgtMHtzdHJva2Utd2lkdGg6MTQ7fSNnZU1lcm1haWRPdXRwdXQtMTc0NzQwNjQzNTQ2NiAuc2VjdGlvbi0wIGxpbmV7c3Ryb2tlOiMwYjBiMGI7c3Ryb2tlLXdpZHRoOjM7fSNnZU1lcm1haWRPdXRwdXQtMTc0NzQwNjQzNTQ2NiAuZGlzYWJsZWQsI2dlTWVybWFpZE91dHB1dC0xNzQ3NDA2NDM1NDY2IC5kaXNhYmxlZCBjaXJjbGUsI2dlTWVybWFpZE91dHB1dC0xNzQ3NDA2NDM1NDY2IC5kaXNhYmxlZCB0ZXh0e2ZpbGw6bGlnaHRncmF5O30jZ2VNZXJtYWlkT3V0cHV0LTE3NDc0MDY0MzU0NjYgLmRpc2FibGVkIHRleHR7ZmlsbDojZWZlZmVmO30jZ2VNZXJtYWlkT3V0cHV0LTE3NDc0MDY0MzU0NjYgLnNlY3Rpb24tMSByZWN0LCNnZU1lcm1haWRPdXRwdXQtMTc0NzQwNjQzNTQ2NiAuc2VjdGlvbi0xIHBhdGgsI2dlTWVybWFpZE91dHB1dC0xNzQ3NDA2NDM1NDY2IC5zZWN0aW9uLTEgY2lyY2xlLCNnZU1lcm1haWRPdXRwdXQtMTc0NzQwNjQzNTQ2NiAuc2VjdGlvbi0xIHBvbHlnb24sI2dlTWVybWFpZE91dHB1dC0xNzQ3NDA2NDM1NDY2IC5zZWN0aW9uLTEgcGF0aHtmaWxsOiM1NTU7fSNnZU1lcm1haWRPdXRwdXQtMTc0NzQwNjQzNTQ2NiAuc2VjdGlvbi0xIHRleHR7ZmlsbDojRjRGNEY0O30jZ2VNZXJtYWlkT3V0cHV0LTE3NDc0MDY0MzU0NjYgLm5vZGUtaWNvbi0xe2ZvbnQtc2l6ZTo0MHB4O2NvbG9yOiNGNEY0RjQ7fSNnZU1lcm1haWRPdXRwdXQtMTc0NzQwNjQzNTQ2NiAuc2VjdGlvbi1lZGdlLTF7c3Ryb2tlOiM1NTU7fSNnZU1lcm1haWRPdXRwdXQtMTc0NzQwNjQzNTQ2NiAuZWRnZS1kZXB0aC0xe3N0cm9rZS13aWR0aDoxMTt9I2dlTWVybWFpZE91dHB1dC0xNzQ3NDA2NDM1NDY2IC5zZWN0aW9uLTEgbGluZXtzdHJva2U6I2FhYWFhYTtzdHJva2Utd2lkdGg6Mzt9I2dlTWVybWFpZE91dHB1dC0xNzQ3NDA2NDM1NDY2IC5kaXNhYmxlZCwjZ2VNZXJtYWlkT3V0cHV0LTE3NDc0MDY0MzU0NjYgLmRpc2FibGVkIGNpcmNsZSwjZ2VNZXJtYWlkT3V0cHV0LTE3NDc0MDY0MzU0NjYgLmRpc2FibGVkIHRleHR7ZmlsbDpsaWdodGdyYXk7fSNnZU1lcm1haWRPdXRwdXQtMTc0NzQwNjQzNTQ2NiAuZGlzYWJsZWQgdGV4dHtmaWxsOiNlZmVmZWY7fSNnZU1lcm1haWRPdXRwdXQtMTc0NzQwNjQzNTQ2NiAuc2VjdGlvbi0yIHJlY3QsI2dlTWVybWFpZE91dHB1dC0xNzQ3NDA2NDM1NDY2IC5zZWN0aW9uLTIgcGF0aCwjZ2VNZXJtYWlkT3V0cHV0LTE3NDc0MDY0MzU0NjYgLnNlY3Rpb24tMiBjaXJjbGUsI2dlTWVybWFpZE91dHB1dC0xNzQ3NDA2NDM1NDY2IC5zZWN0aW9uLTIgcG9seWdvbiwjZ2VNZXJtYWlkT3V0cHV0LTE3NDc0MDY0MzU0NjYgLnNlY3Rpb24tMiBwYXRoe2ZpbGw6I0JCQjt9I2dlTWVybWFpZE91dHB1dC0xNzQ3NDA2NDM1NDY2IC5zZWN0aW9uLTIgdGV4dHtmaWxsOiMzMzM7fSNnZU1lcm1haWRPdXRwdXQtMTc0NzQwNjQzNTQ2NiAubm9kZS1pY29uLTJ7Zm9udC1zaXplOjQwcHg7Y29sb3I6IzMzMzt9I2dlTWVybWFpZE91dHB1dC0xNzQ3NDA2NDM1NDY2IC5zZWN0aW9uLWVkZ2UtMntzdHJva2U6I0JCQjt9I2dlTWVybWFpZE91dHB1dC0xNzQ3NDA2NDM1NDY2IC5lZGdlLWRlcHRoLTJ7c3Ryb2tlLXdpZHRoOjg7fSNnZU1lcm1haWRPdXRwdXQtMTc0NzQwNjQzNTQ2NiAuc2VjdGlvbi0yIGxpbmV7c3Ryb2tlOiM0NDQ0NDQ7c3Ryb2tlLXdpZHRoOjM7fSNnZU1lcm1haWRPdXRwdXQtMTc0NzQwNjQzNTQ2NiAuZGlzYWJsZWQsI2dlTWVybWFpZE91dHB1dC0xNzQ3NDA2NDM1NDY2IC5kaXNhYmxlZCBjaXJjbGUsI2dlTWVybWFpZE91dHB1dC0xNzQ3NDA2NDM1NDY2IC5kaXNhYmxlZCB0ZXh0e2ZpbGw6bGlnaHRncmF5O30jZ2VNZXJtYWlkT3V0cHV0LTE3NDc0MDY0MzU0NjYgLmRpc2FibGVkIHRleHR7ZmlsbDojZWZlZmVmO30jZ2VNZXJtYWlkT3V0cHV0LTE3NDc0MDY0MzU0NjYgLnNlY3Rpb24tMyByZWN0LCNnZU1lcm1haWRPdXRwdXQtMTc0NzQwNjQzNTQ2NiAuc2VjdGlvbi0zIHBhdGgsI2dlTWVybWFpZE91dHB1dC0xNzQ3NDA2NDM1NDY2IC5zZWN0aW9uLTMgY2lyY2xlLCNnZU1lcm1haWRPdXRwdXQtMTc0NzQwNjQzNTQ2NiAuc2VjdGlvbi0zIHBvbHlnb24sI2dlTWVybWFpZE91dHB1dC0xNzQ3NDA2NDM1NDY2IC5zZWN0aW9uLTMgcGF0aHtmaWxsOiM3Nzc7fSNnZU1lcm1haWRPdXRwdXQtMTc0NzQwNjQzNTQ2NiAuc2VjdGlvbi0zIHRleHR7ZmlsbDojMzMzO30jZ2VNZXJtYWlkT3V0cHV0LTE3NDc0MDY0MzU0NjYgLm5vZGUtaWNvbi0ze2ZvbnQtc2l6ZTo0MHB4O2NvbG9yOiMzMzM7fSNnZU1lcm1haWRPdXRwdXQtMTc0NzQwNjQzNTQ2NiAuc2VjdGlvbi1lZGdlLTN7c3Ryb2tlOiM3Nzc7fSNnZU1lcm1haWRPdXRwdXQtMTc0NzQwNjQzNTQ2NiAuZWRnZS1kZXB0aC0ze3N0cm9rZS13aWR0aDo1O30jZ2VNZXJtYWlkT3V0cHV0LTE3NDc0MDY0MzU0NjYgLnNlY3Rpb24tMyBsaW5le3N0cm9rZTojODg4ODg4O3N0cm9rZS13aWR0aDozO30jZ2VNZXJtYWlkT3V0cHV0LTE3NDc0MDY0MzU0NjYgLmRpc2FibGVkLCNnZU1lcm1haWRPdXRwdXQtMTc0NzQwNjQzNTQ2NiAuZGlzYWJsZWQgY2lyY2xlLCNnZU1lcm1haWRPdXRwdXQtMTc0NzQwNjQzNTQ2NiAuZGlzYWJsZWQgdGV4dHtmaWxsOmxpZ2h0Z3JheTt9I2dlTWVybWFpZE91dHB1dC0xNzQ3NDA2NDM1NDY2IC5kaXNhYmxlZCB0ZXh0e2ZpbGw6I2VmZWZlZjt9I2dlTWVybWFpZE91dHB1dC0xNzQ3NDA2NDM1NDY2IC5zZWN0aW9uLTQgcmVjdCwjZ2VNZXJtYWlkT3V0cHV0LTE3NDc0MDY0MzU0NjYgLnNlY3Rpb24tNCBwYXRoLCNnZU1lcm1haWRPdXRwdXQtMTc0NzQwNjQzNTQ2NiAuc2VjdGlvbi00IGNpcmNsZSwjZ2VNZXJtYWlkT3V0cHV0LTE3NDc0MDY0MzU0NjYgLnNlY3Rpb24tNCBwb2x5Z29uLCNnZU1lcm1haWRPdXRwdXQtMTc0NzQwNjQzNTQ2NiAuc2VjdGlvbi00IHBhdGh7ZmlsbDojOTk5O30jZ2VNZXJtYWlkT3V0cHV0LTE3NDc0MDY0MzU0NjYgLnNlY3Rpb24tNCB0ZXh0e2ZpbGw6IzMzMzt9I2dlTWVybWFpZE91dHB1dC0xNzQ3NDA2NDM1NDY2IC5ub2RlLWljb24tNHtmb250LXNpemU6NDBweDtjb2xvcjojMzMzO30jZ2VNZXJtYWlkT3V0cHV0LTE3NDc0MDY0MzU0NjYgLnNlY3Rpb24tZWRnZS00e3N0cm9rZTojOTk5O30jZ2VNZXJtYWlkT3V0cHV0LTE3NDc0MDY0MzU0NjYgLmVkZ2UtZGVwdGgtNHtzdHJva2Utd2lkdGg6Mjt9I2dlTWVybWFpZE91dHB1dC0xNzQ3NDA2NDM1NDY2IC5zZWN0aW9uLTQgbGluZXtzdHJva2U6IzY2NjY2NjtzdHJva2Utd2lkdGg6Mzt9I2dlTWVybWFpZE91dHB1dC0xNzQ3NDA2NDM1NDY2IC5kaXNhYmxlZCwjZ2VNZXJtYWlkT3V0cHV0LTE3NDc0MDY0MzU0NjYgLmRpc2FibGVkIGNpcmNsZSwjZ2VNZXJtYWlkT3V0cHV0LTE3NDc0MDY0MzU0NjYgLmRpc2FibGVkIHRleHR7ZmlsbDpsaWdodGdyYXk7fSNnZU1lcm1haWRPdXRwdXQtMTc0NzQwNjQzNTQ2NiAuZGlzYWJsZWQgdGV4dHtmaWxsOiNlZmVmZWY7fSNnZU1lcm1haWRPdXRwdXQtMTc0NzQwNjQzNTQ2NiAuc2VjdGlvbi01IHJlY3QsI2dlTWVybWFpZE91dHB1dC0xNzQ3NDA2NDM1NDY2IC5zZWN0aW9uLTUgcGF0aCwjZ2VNZXJtYWlkT3V0cHV0LTE3NDc0MDY0MzU0NjYgLnNlY3Rpb24tNSBjaXJjbGUsI2dlTWVybWFpZE91dHB1dC0xNzQ3NDA2NDM1NDY2IC5zZWN0aW9uLTUgcG9seWdvbiwjZ2VNZXJtYWlkT3V0cHV0LTE3NDc0MDY0MzU0NjYgLnNlY3Rpb24tNSBwYXRoe2ZpbGw6I0RERDt9I2dlTWVybWFpZE91dHB1dC0xNzQ3NDA2NDM1NDY2IC5zZWN0aW9uLTUgdGV4dHtmaWxsOiMzMzM7fSNnZU1lcm1haWRPdXRwdXQtMTc0NzQwNjQzNTQ2NiAubm9kZS1pY29uLTV7Zm9udC1zaXplOjQwcHg7Y29sb3I6IzMzMzt9I2dlTWVybWFpZE91dHB1dC0xNzQ3NDA2NDM1NDY2IC5zZWN0aW9uLWVkZ2UtNXtzdHJva2U6I0RERDt9I2dlTWVybWFpZE91dHB1dC0xNzQ3NDA2NDM1NDY2IC5lZGdlLWRlcHRoLTV7c3Ryb2tlLXdpZHRoOi0xO30jZ2VNZXJtYWlkT3V0cHV0LTE3NDc0MDY0MzU0NjYgLnNlY3Rpb24tNSBsaW5le3N0cm9rZTojMjIyMjIyO3N0cm9rZS13aWR0aDozO30jZ2VNZXJtYWlkT3V0cHV0LTE3NDc0MDY0MzU0NjYgLmRpc2FibGVkLCNnZU1lcm1haWRPdXRwdXQtMTc0NzQwNjQzNTQ2NiAuZGlzYWJsZWQgY2lyY2xlLCNnZU1lcm1haWRPdXRwdXQtMTc0NzQwNjQzNTQ2NiAuZGlzYWJsZWQgdGV4dHtmaWxsOmxpZ2h0Z3JheTt9I2dlTWVybWFpZE91dHB1dC0xNzQ3NDA2NDM1NDY2IC5kaXNhYmxlZCB0ZXh0e2ZpbGw6I2VmZWZlZjt9I2dlTWVybWFpZE91dHB1dC0xNzQ3NDA2NDM1NDY2IC5zZWN0aW9uLTYgcmVjdCwjZ2VNZXJtYWlkT3V0cHV0LTE3NDc0MDY0MzU0NjYgLnNlY3Rpb24tNiBwYXRoLCNnZU1lcm1haWRPdXRwdXQtMTc0NzQwNjQzNTQ2NiAuc2VjdGlvbi02IGNpcmNsZSwjZ2VNZXJtYWlkT3V0cHV0LTE3NDc0MDY0MzU0NjYgLnNlY3Rpb24tNiBwb2x5Z29uLCNnZU1lcm1haWRPdXRwdXQtMTc0NzQwNjQzNTQ2NiAuc2VjdGlvbi02IHBhdGh7ZmlsbDojRkZGO30jZ2VNZXJtYWlkT3V0cHV0LTE3NDc0MDY0MzU0NjYgLnNlY3Rpb24tNiB0ZXh0e2ZpbGw6IzMzMzt9I2dlTWVybWFpZE91dHB1dC0xNzQ3NDA2NDM1NDY2IC5ub2RlLWljb24tNntmb250LXNpemU6NDBweDtjb2xvcjojMzMzO30jZ2VNZXJtYWlkT3V0cHV0LTE3NDc0MDY0MzU0NjYgLnNlY3Rpb24tZWRnZS02e3N0cm9rZTojRkZGO30jZ2VNZXJtYWlkT3V0cHV0LTE3NDc0MDY0MzU0NjYgLmVkZ2UtZGVwdGgtNntzdHJva2Utd2lkdGg6LTQ7fSNnZU1lcm1haWRPdXRwdXQtMTc0NzQwNjQzNTQ2NiAuc2VjdGlvbi02IGxpbmV7c3Ryb2tlOiMwMDAwMDA7c3Ryb2tlLXdpZHRoOjM7fSNnZU1lcm1haWRPdXRwdXQtMTc0NzQwNjQzNTQ2NiAuZGlzYWJsZWQsI2dlTWVybWFpZE91dHB1dC0xNzQ3NDA2NDM1NDY2IC5kaXNhYmxlZCBjaXJjbGUsI2dlTWVybWFpZE91dHB1dC0xNzQ3NDA2NDM1NDY2IC5kaXNhYmxlZCB0ZXh0e2ZpbGw6bGlnaHRncmF5O30jZ2VNZXJtYWlkT3V0cHV0LTE3NDc0MDY0MzU0NjYgLmRpc2FibGVkIHRleHR7ZmlsbDojZWZlZmVmO30jZ2VNZXJtYWlkT3V0cHV0LTE3NDc0MDY0MzU0NjYgLnNlY3Rpb24tNyByZWN0LCNnZU1lcm1haWRPdXRwdXQtMTc0NzQwNjQzNTQ2NiAuc2VjdGlvbi03IHBhdGgsI2dlTWVybWFpZE91dHB1dC0xNzQ3NDA2NDM1NDY2IC5zZWN0aW9uLTcgY2lyY2xlLCNnZU1lcm1haWRPdXRwdXQtMTc0NzQwNjQzNTQ2NiAuc2VjdGlvbi03IHBvbHlnb24sI2dlTWVybWFpZE91dHB1dC0xNzQ3NDA2NDM1NDY2IC5zZWN0aW9uLTcgcGF0aHtmaWxsOiNEREQ7fSNnZU1lcm1haWRPdXRwdXQtMTc0NzQwNjQzNTQ2NiAuc2VjdGlvbi03IHRleHR7ZmlsbDojMzMzO30jZ2VNZXJtYWlkT3V0cHV0LTE3NDc0MDY0MzU0NjYgLm5vZGUtaWNvbi03e2ZvbnQtc2l6ZTo0MHB4O2NvbG9yOiMzMzM7fSNnZU1lcm1haWRPdXRwdXQtMTc0NzQwNjQzNTQ2NiAuc2VjdGlvbi1lZGdlLTd7c3Ryb2tlOiNEREQ7fSNnZU1lcm1haWRPdXRwdXQtMTc0NzQwNjQzNTQ2NiAuZWRnZS1kZXB0aC03e3N0cm9rZS13aWR0aDotNzt9I2dlTWVybWFpZE91dHB1dC0xNzQ3NDA2NDM1NDY2IC5zZWN0aW9uLTcgbGluZXtzdHJva2U6IzIyMjIyMjtzdHJva2Utd2lkdGg6Mzt9I2dlTWVybWFpZE91dHB1dC0xNzQ3NDA2NDM1NDY2IC5kaXNhYmxlZCwjZ2VNZXJtYWlkT3V0cHV0LTE3NDc0MDY0MzU0NjYgLmRpc2FibGVkIGNpcmNsZSwjZ2VNZXJtYWlkT3V0cHV0LTE3NDc0MDY0MzU0NjYgLmRpc2FibGVkIHRleHR7ZmlsbDpsaWdodGdyYXk7fSNnZU1lcm1haWRPdXRwdXQtMTc0NzQwNjQzNTQ2NiAuZGlzYWJsZWQgdGV4dHtmaWxsOiNlZmVmZWY7fSNnZU1lcm1haWRPdXRwdXQtMTc0NzQwNjQzNTQ2NiAuc2VjdGlvbi04IHJlY3QsI2dlTWVybWFpZE91dHB1dC0xNzQ3NDA2NDM1NDY2IC5zZWN0aW9uLTggcGF0aCwjZ2VNZXJtYWlkT3V0cHV0LTE3NDc0MDY0MzU0NjYgLnNlY3Rpb24tOCBjaXJjbGUsI2dlTWVybWFpZE91dHB1dC0xNzQ3NDA2NDM1NDY2IC5zZWN0aW9uLTggcG9seWdvbiwjZ2VNZXJtYWlkT3V0cHV0LTE3NDc0MDY0MzU0NjYgLnNlY3Rpb24tOCBwYXRoe2ZpbGw6I0JCQjt9I2dlTWVybWFpZE91dHB1dC0xNzQ3NDA2NDM1NDY2IC5zZWN0aW9uLTggdGV4dHtmaWxsOiMzMzM7fSNnZU1lcm1haWRPdXRwdXQtMTc0NzQwNjQzNTQ2NiAubm9kZS1pY29uLTh7Zm9udC1zaXplOjQwcHg7Y29sb3I6IzMzMzt9I2dlTWVybWFpZE91dHB1dC0xNzQ3NDA2NDM1NDY2IC5zZWN0aW9uLWVkZ2UtOHtzdHJva2U6I0JCQjt9I2dlTWVybWFpZE91dHB1dC0xNzQ3NDA2NDM1NDY2IC5lZGdlLWRlcHRoLTh7c3Ryb2tlLXdpZHRoOi0xMDt9I2dlTWVybWFpZE91dHB1dC0xNzQ3NDA2NDM1NDY2IC5zZWN0aW9uLTggbGluZXtzdHJva2U6IzQ0NDQ0NDtzdHJva2Utd2lkdGg6Mzt9I2dlTWVybWFpZE91dHB1dC0xNzQ3NDA2NDM1NDY2IC5kaXNhYmxlZCwjZ2VNZXJtYWlkT3V0cHV0LTE3NDc0MDY0MzU0NjYgLmRpc2FibGVkIGNpcmNsZSwjZ2VNZXJtYWlkT3V0cHV0LTE3NDc0MDY0MzU0NjYgLmRpc2FibGVkIHRleHR7ZmlsbDpsaWdodGdyYXk7fSNnZU1lcm1haWRPdXRwdXQtMTc0NzQwNjQzNTQ2NiAuZGlzYWJsZWQgdGV4dHtmaWxsOiNlZmVmZWY7fSNnZU1lcm1haWRPdXRwdXQtMTc0NzQwNjQzNTQ2NiAuc2VjdGlvbi05IHJlY3QsI2dlTWVybWFpZE91dHB1dC0xNzQ3NDA2NDM1NDY2IC5zZWN0aW9uLTkgcGF0aCwjZ2VNZXJtYWlkT3V0cHV0LTE3NDc0MDY0MzU0NjYgLnNlY3Rpb24tOSBjaXJjbGUsI2dlTWVybWFpZE91dHB1dC0xNzQ3NDA2NDM1NDY2IC5zZWN0aW9uLTkgcG9seWdvbiwjZ2VNZXJtYWlkT3V0cHV0LTE3NDc0MDY0MzU0NjYgLnNlY3Rpb24tOSBwYXRoe2ZpbGw6Izk5OTt9I2dlTWVybWFpZE91dHB1dC0xNzQ3NDA2NDM1NDY2IC5zZWN0aW9uLTkgdGV4dHtmaWxsOiMzMzM7fSNnZU1lcm1haWRPdXRwdXQtMTc0NzQwNjQzNTQ2NiAubm9kZS1pY29uLTl7Zm9udC1zaXplOjQwcHg7Y29sb3I6IzMzMzt9I2dlTWVybWFpZE91dHB1dC0xNzQ3NDA2NDM1NDY2IC5zZWN0aW9uLWVkZ2UtOXtzdHJva2U6Izk5OTt9I2dlTWVybWFpZE91dHB1dC0xNzQ3NDA2NDM1NDY2IC5lZGdlLWRlcHRoLTl7c3Ryb2tlLXdpZHRoOi0xMzt9I2dlTWVybWFpZE91dHB1dC0xNzQ3NDA2NDM1NDY2IC5zZWN0aW9uLTkgbGluZXtzdHJva2U6IzY2NjY2NjtzdHJva2Utd2lkdGg6Mzt9I2dlTWVybWFpZE91dHB1dC0xNzQ3NDA2NDM1NDY2IC5kaXNhYmxlZCwjZ2VNZXJtYWlkT3V0cHV0LTE3NDc0MDY0MzU0NjYgLmRpc2FibGVkIGNpcmNsZSwjZ2VNZXJtYWlkT3V0cHV0LTE3NDc0MDY0MzU0NjYgLmRpc2FibGVkIHRleHR7ZmlsbDpsaWdodGdyYXk7fSNnZU1lcm1haWRPdXRwdXQtMTc0NzQwNjQzNTQ2NiAuZGlzYWJsZWQgdGV4dHtmaWxsOiNlZmVmZWY7fSNnZU1lcm1haWRPdXRwdXQtMTc0NzQwNjQzNTQ2NiAuc2VjdGlvbi0xMCByZWN0LCNnZU1lcm1haWRPdXRwdXQtMTc0NzQwNjQzNTQ2NiAuc2VjdGlvbi0xMCBwYXRoLCNnZU1lcm1haWRPdXRwdXQtMTc0NzQwNjQzNTQ2NiAuc2VjdGlvbi0xMCBjaXJjbGUsI2dlTWVybWFpZE91dHB1dC0xNzQ3NDA2NDM1NDY2IC5zZWN0aW9uLTEwIHBvbHlnb24sI2dlTWVybWFpZE91dHB1dC0xNzQ3NDA2NDM1NDY2IC5zZWN0aW9uLTEwIHBhdGh7ZmlsbDojNzc3O30jZ2VNZXJtYWlkT3V0cHV0LTE3NDc0MDY0MzU0NjYgLnNlY3Rpb24tMTAgdGV4dHtmaWxsOiMzMzM7fSNnZU1lcm1haWRPdXRwdXQtMTc0NzQwNjQzNTQ2NiAubm9kZS1pY29uLTEwe2ZvbnQtc2l6ZTo0MHB4O2NvbG9yOiMzMzM7fSNnZU1lcm1haWRPdXRwdXQtMTc0NzQwNjQzNTQ2NiAuc2VjdGlvbi1lZGdlLTEwe3N0cm9rZTojNzc3O30jZ2VNZXJtYWlkT3V0cHV0LTE3NDc0MDY0MzU0NjYgLmVkZ2UtZGVwdGgtMTB7c3Ryb2tlLXdpZHRoOi0xNjt9I2dlTWVybWFpZE91dHB1dC0xNzQ3NDA2NDM1NDY2IC5zZWN0aW9uLTEwIGxpbmV7c3Ryb2tlOiM4ODg4ODg7c3Ryb2tlLXdpZHRoOjM7fSNnZU1lcm1haWRPdXRwdXQtMTc0NzQwNjQzNTQ2NiAuZGlzYWJsZWQsI2dlTWVybWFpZE91dHB1dC0xNzQ3NDA2NDM1NDY2IC5kaXNhYmxlZCBjaXJjbGUsI2dlTWVybWFpZE91dHB1dC0xNzQ3NDA2NDM1NDY2IC5kaXNhYmxlZCB0ZXh0e2ZpbGw6bGlnaHRncmF5O30jZ2VNZXJtYWlkT3V0cHV0LTE3NDc0MDY0MzU0NjYgLmRpc2FibGVkIHRleHR7ZmlsbDojZWZlZmVmO30jZ2VNZXJtYWlkT3V0cHV0LTE3NDc0MDY0MzU0NjYgLnNlY3Rpb24tcm9vdCByZWN0LCNnZU1lcm1haWRPdXRwdXQtMTc0NzQwNjQzNTQ2NiAuc2VjdGlvbi1yb290IHBhdGgsI2dlTWVybWFpZE91dHB1dC0xNzQ3NDA2NDM1NDY2IC5zZWN0aW9uLXJvb3QgY2lyY2xlLCNnZU1lcm1haWRPdXRwdXQtMTc0NzQwNjQzNTQ2NiAuc2VjdGlvbi1yb290IHBvbHlnb257ZmlsbDpoc2woMCwgMCUsIDcwLjY4NjI3NDUwOTglKTt9I2dlTWVybWFpZE91dHB1dC0xNzQ3NDA2NDM1NDY2IC5zZWN0aW9uLXJvb3QgdGV4dHtmaWxsOiMzMzM7fSNnZU1lcm1haWRPdXRwdXQtMTc0NzQwNjQzNTQ2NiAuaWNvbi1jb250YWluZXJ7aGVpZ2h0OjEwMCU7ZGlzcGxheTpmbGV4O2p1c3RpZnktY29udGVudDpjZW50ZXI7YWxpZ24taXRlbXM6Y2VudGVyO30jZ2VNZXJtYWlkT3V0cHV0LTE3NDc0MDY0MzU0NjYgLmVkZ2V7ZmlsbDpub25lO30jZ2VNZXJtYWlkT3V0cHV0LTE3NDc0MDY0MzU0NjYgLm1pbmRtYXAtbm9kZS1sYWJlbHtkeToxZW07YWxpZ25tZW50LWJhc2VsaW5lOm1pZGRsZTt0ZXh0LWFuY2hvcjptaWRkbGU7ZG9taW5hbnQtYmFzZWxpbmU6bWlkZGxlO3RleHQtYWxpZ246Y2VudGVyO30jZ2VNZXJtYWlkT3V0cHV0LTE3NDc0MDY0MzU0NjYgOnJvb3R7LS1tZXJtYWlkLWZvbnQtZmFtaWx5OiJ0cmVidWNoZXQgbXMiLHZlcmRhbmEsYXJpYWwsc2Fucy1zZXJpZjt9PC9zdHlsZT48Zz48L2c+PGcgY2xhc3M9Im1pbmRtYXAtZWRnZXMiPjxwYXRoIGNsYXNzPSJlZGdlIHNlY3Rpb24tZWRnZS0wIGVkZ2UtZGVwdGgtMiIgZD0iTSA0OTcuNjIyOTk1MDkyMzkwMTcsMzE5LjkwMjQxNDM1Njk0MDY1IEwgNDU2Ljc1MTY5MTgwNjc4NDk1LDM0NS4xOTExMzQ5ODk1MzgzIEw0MTUuODgwMzg4NTIxMTc5NywzNzAuNDc5ODU1NjIyMTM1OSI+PC9wYXRoPjxwYXRoIGNsYXNzPSJlZGdlIHNlY3Rpb24tZWRnZS0wIGVkZ2UtZGVwdGgtMiIgZD0iTSA1MTkuNzc4NzU2NDY2NjE5OCwzMjMuNjk5MjE3MTMxMjM3NyBMIDU0NC4xOTI4NTgxNDQyNzc1LDM1NC4wNTkwNjIyNzI4Nzk4IEw1NjguNjA2OTU5ODIxOTM1MSwzODQuNDE4OTA3NDE0NTIyMSI+PC9wYXRoPjxwYXRoIGNsYXNzPSJlZGdlIHNlY3Rpb24tZWRnZS0wIGVkZ2UtZGVwdGgtMiIgZD0iTSA1MjUuMTc1NzA3MTU5Mjg4NSwzMTQuNDY5NDc1OTAwNTE4NTUgTCA2MTkuNzIwMzAyNjM3MTY3MywzMzAuMTg0NjI3NjI0MzMyMiBMNzE0LjI2NDg5ODExNTA0NiwzNDUuODk5Nzc5MzQ4MTQ1OSI+PC9wYXRoPjxwYXRoIGNsYXNzPSJlZGdlIHNlY3Rpb24tZWRnZS0wIGVkZ2UtZGVwdGgtMSIgZD0iTSA0NjIuNDc4NDQ5MDUxMTk2OCwyMzIuMTczMzIxODUzNTM1NyBMIDQ4Mi41Njk5Njk2MDg4NjM2MywyNjUuNjYwMzY4OTA4NTE4NCBMNTAyLjY2MTQ5MDE2NjUzMDUsMjk5LjE0NzQxNTk2MzUwMTEiPjwvcGF0aD48cGF0aCBjbGFzcz0iZWRnZSBzZWN0aW9uLWVkZ2UtMCBlZGdlLWRlcHRoLTIiIGQ9Ik0gNDM0LjA2NzM4NDU5ODA0NjEsMTA5LjEwOTc4MTc3MTgxMDUzIEwgNDUxLjExODI2NTg2ODEzMTk3LDc3Ljk4MTE3MTAyNzAzOTE1IEw0NjguMTY5MTQ3MTM4MjE3ODUsNDYuODUyNTYwMjgyMjY3Nzc0Ij48L3BhdGg+PHBhdGggY2xhc3M9ImVkZ2Ugc2VjdGlvbi1lZGdlLTAgZWRnZS1kZXB0aC0yIiBkPSJNIDQxNS40MzIzNDUxOTM5Nzg0NSwxMTIuNTUwNTU4MzQ1MTIxNTQgTCAzODIuMTU5MTYzNDkyMDc2LDg0LjI2NzQzOTE2NzI4MTE3IEwzNDguODg1OTgxNzkwMTczNTYsNTUuOTg0MzE5OTg5NDQwNzgiPjwvcGF0aD48cGF0aCBjbGFzcz0iZWRnZSBzZWN0aW9uLWVkZ2UtMCBlZGdlLWRlcHRoLTIiIGQ9Ik0gNDQxLjUzMDQyMjI1MjI2OTEsMTE5LjEzMjM3NTQ1MjI3MTAyIEwgNTAwLjE1OTM2MDI3MDAzNjksMTA2LjYxMDE4MjMzMDIyMTMgTDU1OC43ODgyOTgyODc4MDQ4LDk0LjA4Nzk4OTIwODE3MTU5Ij48L3BhdGg+PHBhdGggY2xhc3M9ImVkZ2Ugc2VjdGlvbi1lZGdlLTAgZWRnZS1kZXB0aC0xIiBkPSJNIDQ1MC42MTY2ODM5MzMzMzQsMjA0Ljg5NDc0NDcwODQxMDY4IEwgNDQwLjgxMTI0NjI1MDI5MzgzLDE3MC43ODgxMzc1NTEyMTgxIEw0MzEuMDA1ODA4NTY3MjUzNjcsMTM2LjY4MTUzMDM5NDAyNTU0Ij48L3BhdGg+PHBhdGggY2xhc3M9ImVkZ2Ugc2VjdGlvbi1lZGdlLTAgZWRnZS1kZXB0aC0yIiBkPSJNIDMxNS4zMDUzMDIxMjQzMjczNCwyOTQuNDU2ODE0OTYzNDMxNTUgTCAyNzAuOTIzODI5MzE2MTQ0ODYsMzIwLjgwMDAzNzMyNTUzNTggTDIyNi41NDIzNTY1MDc5NjIzNSwzNDcuMTQzMjU5Njg3NjQwMDciPjwvcGF0aD48cGF0aCBjbGFzcz0iZWRnZSBzZWN0aW9uLWVkZ2UtMCBlZGdlLWRlcHRoLTIiIGQ9Ik0gMzEzLjIwNDkyNDA3MTg4NDQsMjg2Ljk0OTk5NjE3NzE1MjUgTCAyNDAuNzM4NDQ3MDYxMjQ3ODMsMjg3LjY3MjIwMzIzMDM5MjIgTDE2OC4yNzE5NzAwNTA2MTEyLDI4OC4zOTQ0MTAyODM2MzE5Ij48L3BhdGg+PHBhdGggY2xhc3M9ImVkZ2Ugc2VjdGlvbi1lZGdlLTAgZWRnZS1kZXB0aC0xIiBkPSJNIDQ0MS41MjU1OTc5OTkzMTAxLDIyNi4zNjkwMzA2NTk2MTIgTCAzOTEuNDgyNjk1ODk3NTczNjUsMjUzLjA1NTY2MDE4ODY0MDIyIEwzNDEuNDM5NzkzNzk1ODM3MiwyNzkuNzQyMjg5NzE3NjY4NCI+PC9wYXRoPjxwYXRoIGNsYXNzPSJlZGdlIHNlY3Rpb24tZWRnZS0wIGVkZ2UtZGVwdGgtMiIgZD0iTSAyNzAuNTMwNjk5OTYyNjQzMiwyMDEuMTg3MDY3MjA1OTMyMDcgTCAyMTYuMTg0ODgwODU0MTk3OSwxNzYuNDQxOTA5MjU4MDAwNjMgTDE2MS44MzkwNjE3NDU3NTI2LDE1MS42OTY3NTEzMTAwNjkxNSI+PC9wYXRoPjxwYXRoIGNsYXNzPSJlZGdlIHNlY3Rpb24tZWRnZS0wIGVkZ2UtZGVwdGgtMiIgZD0iTSAyODguMzg1MDUwMjA5Nzc2NiwxOTMuMDAzODAwNTMxNjEzNCBMIDI5Ni40OTU5NjU5NjUyNjA4LDE2NS4yMTU2MTYxMjk3MjE3OCBMMzA0LjYwNjg4MTcyMDc0NSwxMzcuNDI3NDMxNzI3ODMwMTciPjwvcGF0aD48cGF0aCBjbGFzcz0iZWRnZSBzZWN0aW9uLWVkZ2UtMCBlZGdlLWRlcHRoLTIiIGQ9Ik0gMjY5LjIwMDc3NTQyNDYyNDgsMjA4LjE0OTgwNTM4NDcwMTIgTCAxODkuMDY3NjQ4MTU2NzYwMywyMTIuMTQ0NTYwODM1NTcyMiBMMTA4LjkzNDUyMDg4ODg5NTgzLDIxNi4xMzkzMTYyODY0NDMyIj48L3BhdGg+PHBhdGggY2xhc3M9ImVkZ2Ugc2VjdGlvbi1lZGdlLTAgZWRnZS1kZXB0aC0xIiBkPSJNIDQzOS43OTc2Mjg2MjYxMzY5LDIxOC4yNjYyMjQ0MDc0OTMzMyBMIDM2OS40NzE2OTE5NTEzMjAxNywyMTMuMzU2ODg0Mjk0ODA4OTYgTDI5OS4xNDU3NTUyNzY1MDM0NSwyMDguNDQ3NTQ0MTgyMTI0NiI+PC9wYXRoPjxwYXRoIGNsYXNzPSJlZGdlIHNlY3Rpb24tZWRnZS0wIGVkZ2UtZGVwdGgtMCIgZD0iTSA1ODYuMTQyNDU3OTQ4NTk4OCwxODcuNTgzMTc5NjcwMTkzNzIgTCA1MjcuNzQyMjYzMDI3MTgxMywyMDEuNjg2NDA3ODQ4Njg1MDQgTDQ2OS4zNDIwNjgxMDU3NjM3NiwyMTUuNzg5NjM2MDI3MTc2MzYiPjwvcGF0aD48cGF0aCBjbGFzcz0iZWRnZSBzZWN0aW9uLWVkZ2UtMSBlZGdlLWRlcHRoLTEiIGQ9Ik0gNzYyLjkyODUwNzk3MzE5NjIsMTU4Ljc2MDk5ODAyMjIzMjM0IEwgNzYwLjQwNDM0MDgwMDQ4MDQsMTIwLjU1ODE2MTI1NTkxNTMxIEw3NTcuODgwMTczNjI3NzY0Niw4Mi4zNTUzMjQ0ODk1OTgyOSI+PC9wYXRoPjxwYXRoIGNsYXNzPSJlZGdlIHNlY3Rpb24tZWRnZS0xIGVkZ2UtZGVwdGgtMSIgZD0iTSA3NzguODEwMTUxOTI2ODQ5NCwxNzUuNTE5MjM1ODc4MTM3OCBMIDg1OC4zMTgzMzQzMzIxNTc1LDE4NS4wODAyMjc3MTg3NjY1NCBMOTM3LjgyNjUxNjczNzQ2NTksMTk0LjY0MTIxOTU1OTM5NTIiPjwvcGF0aD48cGF0aCBjbGFzcz0iZWRnZSBzZWN0aW9uLWVkZ2UtMSBlZGdlLWRlcHRoLTIiIGQ9Ik0gMTAwMy4yNjU4MTUwOTA0MzcyLDEyMS43MTA5Nzg5MDY1NzE3MSBMIDEwNzkuNzA5Njk5NDA4Nzc1MSwxNDUuNDc2NzgxNjc5ODQ4NDEgTDExNTYuMTUzNTgzNzI3MTEzMywxNjkuMjQyNTg0NDUzMTI1MTIiPjwvcGF0aD48cGF0aCBjbGFzcz0iZWRnZSBzZWN0aW9uLWVkZ2UtMSBlZGdlLWRlcHRoLTEiIGQ9Ik0gNzc4LjQ2NjMxMzc1MjU5NzQsMTcwLjA3NzI4NTQ2NDI5MDIgTCA4NzYuNDI5NzU4NjE5NTYwNCwxNDUuNDkzMTAxNTgwNTk1OSBMOTc0LjM5MzIwMzQ4NjUyMzQsMTIwLjkwODkxNzY5NjkwMTU3Ij48L3BhdGg+PHBhdGggY2xhc3M9ImVkZ2Ugc2VjdGlvbi1lZGdlLTEgZWRnZS1kZXB0aC0xIiBkPSJNIDc3NC44NTcxMjk2NTY3NjI1LDE4My45OTEwNzQ4Nzc1MDY5NyBMIDgxNy4wOTI5MjE0NjM0NzczLDIyMy42MTMyMTMzOTQ4NTU1NiBMODU5LjMyODcxMzI3MDE5MjEsMjYzLjIzNTM1MTkxMjIwNDIiPjwvcGF0aD48cGF0aCBjbGFzcz0iZWRnZSBzZWN0aW9uLWVkZ2UtMSBlZGdlLWRlcHRoLTEiIGQ9Ik0gNzUxLjg0NjkzODgzNTg5MDksMTgyLjYzMzU4MTcxMDYzNTkgTCA3MTAuMDc3OTU3NTMxMzQxNiwyMTMuNDQ5MzU0ODUzMDQ5NzggTDY2OC4zMDg5NzYyMjY3OTIyLDI0NC4yNjUxMjc5OTU0NjM3MyI+PC9wYXRoPjxwYXRoIGNsYXNzPSJlZGdlIHNlY3Rpb24tZWRnZS0xIGVkZ2UtZGVwdGgtMCIgZD0iTSA2MTUuNjkzMzMxODA2NDUzOCwxODMuMTE0MDg4NDIwNDg4MDMgTCA2ODIuMzIwMzc4MzI4NTEyMiwxNzguODk1MTg1MjAzNTA1MDYgTDc0OC45NDc0MjQ4NTA1NzA3LDE3NC42NzYyODE5ODY1MjIxIj48L3BhdGg+PC9nPjxnIGNsYXNzPSJtaW5kbWFwLW5vZGVzIj48ZyB0cmFuc2Zvcm09InRyYW5zbGF0ZSg1ODAuODMyNjg4NDY1MjQyOCwgMTY1LjM2NTEzMjY0OTAxMjE0KSIgY2xhc3M9Im1pbmRtYXAtbm9kZSBzZWN0aW9uLS0xIHNlY3Rpb24tcm9vdCI+PGc+PHBhdGggZD0iTTAgMCBhNS45NjcxODc1LDUuOTY3MTg3NSAwIDAsMSA5Ljk0NTMxMjUsLTMuOTc4MTI1MDAwMDAwMDAwNAogICAgICBhMTMuOTIzNDM3NDk5OTk5OTk5LDEzLjkyMzQzNzQ5OTk5OTk5OSAxIDAsMSAxNS45MTI1MDAwMDAwMDAwMDEsLTMuOTc4MTI1MDAwMDAwMDAwNAogICAgICBhOS45NDUzMTI1LDkuOTQ1MzEyNSAxIDAsMSAxMy45MjM0Mzc0OTk5OTk5OTksNy45NTYyNTAwMDAwMDAwMDEKCiAgICAgIGE1Ljk2NzE4NzUsNS45NjcxODc1IDEgMCwxIDUuOTY3MTg3NSwxMy4wODc4MTI0OTk5OTk5OTgKICAgICAgYTcuOTU2MjUwMDAwMDAwMDAxLDcuOTU2MjUwMDAwMDAwMDAxIDEgMCwxIC01Ljk2NzE4NzUsMjQuMzA1OTM3NQoKICAgICAgYTkuOTQ1MzEyNSw1Ljk2NzE4NzUgMSAwLDEgLTkuOTQ1MzEyNSw1Ljk2NzE4NzUKICAgICAgYTEzLjkyMzQzNzQ5OTk5OTk5OSwxMy45MjM0Mzc0OTk5OTk5OTkgMSAwLDEgLTE5Ljg5MDYyNSwwCiAgICAgIGE1Ljk2NzE4NzUsNS45NjcxODc1IDEgMCwxIC05Ljk0NTMxMjUsLTUuOTY3MTg3NQoKICAgICAgYTUuOTY3MTg3NSw1Ljk2NzE4NzUgMSAwLDEgLTMuOTc4MTI1MDAwMDAwMDAwNCwtMTMuMDg3ODEyNDk5OTk5OTk4CiAgICAgIGE3Ljk1NjI1MDAwMDAwMDAwMSw3Ljk1NjI1MDAwMDAwMDAwMSAxIDAsMSAzLjk3ODEyNTAwMDAwMDAwMDQsLTI0LjMwNTkzNzUKCiAgICBIMCBWMCBaIiBjbGFzcz0ibm9kZS1ia2cgbm9kZS1jbG91ZCIgaWQ9Im5vZGUtMCI+PC9wYXRoPjwvZz48ZyB0cmFuc2Zvcm09InRyYW5zbGF0ZSgxOS44OTA2MjUsIDUpIiB0ZXh0LWFuY2hvcj0ibWlkZGxlIiBkb21pbmFudC1iYXNlbGluZT0ibWlkZGxlIiBhbGlnbm1lbnQtYmFzZWxpbmU9Im1pZGRsZSIgZHk9IjFlbSI+PGc+PHJlY3Qgc3R5bGU9InN0cm9rZTogbm9uZSIgY2xhc3M9ImJhY2tncm91bmQiPjwvcmVjdD48dGV4dCBzdHlsZT0iIiB5PSItMTAuMSI+PHRzcGFuIGR5PSIxLjFlbSIgeT0iLTAuMWVtIiB4PSIwIiBjbGFzcz0idGV4dC1vdXRlci10c3BhbiI+PHRzcGFuIGZvbnQtd2VpZ2h0PSJub3JtYWwiIGNsYXNzPSJ0ZXh0LWlubmVyLXRzcGFuIiBmb250LXN0eWxlPSJub3JtYWwiPkhSPC90c3Bhbj48L3RzcGFuPjwvdGV4dD48L2c+PC9nPjwvZz48ZyB0cmFuc2Zvcm09InRyYW5zbGF0ZSg0MDMuODA4MDg3NTg5MTE5NzQsIDIwMC42MTM5MzMwNDgzNTc5MikiIGNsYXNzPSJtaW5kbWFwLW5vZGUgc2VjdGlvbi0wIj48ZyB0cmFuc2Zvcm09InRyYW5zbGF0ZSg1MC45NTMxMjUsIDE4LjY5Njg3NSkiPjxjaXJjbGUgcj0iNTAuOTUzMTI1IiBjbGFzcz0ibm9kZS1ia2cgbm9kZS1jaXJjbGUiIGlkPSJub2RlLTEiPjwvY2lyY2xlPjwvZz48ZyB0cmFuc2Zvcm09InRyYW5zbGF0ZSg1MC45NTMxMjUsIDUpIiB0ZXh0LWFuY2hvcj0ibWlkZGxlIiBkb21pbmFudC1iYXNlbGluZT0ibWlkZGxlIiBhbGlnbm1lbnQtYmFzZWxpbmU9Im1pZGRsZSIgZHk9IjFlbSI+PGc+PHJlY3Qgc3R5bGU9InN0cm9rZTogbm9uZSIgY2xhc3M9ImJhY2tncm91bmQiPjwvcmVjdD48dGV4dCBzdHlsZT0iIiB5PSItMTAuMSI+PHRzcGFuIGR5PSIxLjFlbSIgeT0iLTAuMWVtIiB4PSIwIiBjbGFzcz0idGV4dC1vdXRlci10c3BhbiI+PHRzcGFuIGZvbnQtd2VpZ2h0PSJub3JtYWwiIGNsYXNzPSJ0ZXh0LWlubmVyLXRzcGFuIiBmb250LXN0eWxlPSJub3JtYWwiPk9uYm9hcmRpbmc8L3RzcGFuPjwvdHNwYW4+PC90ZXh0PjwvZz48L2c+PC9nPjxnIHRyYW5zZm9ybT0idHJhbnNsYXRlKDcwMS40MTc0NDMxOTE3ODE3LCAxNTAuMDMxNDg3NzU3OTk3OTgpIiBjbGFzcz0ibWluZG1hcC1ub2RlIHNlY3Rpb24tMSI+PGc+PHBvbHlnb24gdHJhbnNmb3JtPSJ0cmFuc2xhdGUoLTEuODQ4NDM3NTAwMDAwMDAyOCwgNDcuMzkzNzUpIiBwb2ludHM9IjExLjg0ODQzNzUsMCAxMTYuODQ4NDM3NSwwIDEyOC42OTY4NzUsLTIzLjY5Njg3NSAxMTYuODQ4NDM3NSwtNDcuMzkzNzUgMTEuODQ4NDM3NSwtNDcuMzkzNzUgMCwtMjMuNjk2ODc1Ij48L3BvbHlnb24+PC9nPjxnIHRyYW5zZm9ybT0idHJhbnNsYXRlKDYyLjUsIDEwKSIgdGV4dC1hbmNob3I9Im1pZGRsZSIgZG9taW5hbnQtYmFzZWxpbmU9Im1pZGRsZSIgYWxpZ25tZW50LWJhc2VsaW5lPSJtaWRkbGUiIGR5PSIxZW0iPjxnPjxyZWN0IHN0eWxlPSJzdHJva2U6IG5vbmUiIGNsYXNzPSJiYWNrZ3JvdW5kIj48L3JlY3Q+PHRleHQgc3R5bGU9IiIgeT0iLTEwLjEiPjx0c3BhbiBkeT0iMS4xZW0iIHk9Ii0wLjFlbSIgeD0iMCIgY2xhc3M9InRleHQtb3V0ZXItdHNwYW4iPjx0c3BhbiBmb250LXdlaWdodD0ibm9ybWFsIiBjbGFzcz0idGV4dC1pbm5lci10c3BhbiIgZm9udC1zdHlsZT0ibm9ybWFsIj5PZmZib2FyZGluZzwvdHNwYW4+PC90c3Bhbj48L3RleHQ+PC9nPjwvZz48L2c+PGcgdHJhbnNmb3JtPSJ0cmFuc2xhdGUoNDQxLjA2NjIyNjYyODYwNzUsIDI5My4zMTMwNTQ3Njg2Nzg4NSkiIGNsYXNzPSJtaW5kbWFwLW5vZGUgc2VjdGlvbi0wIj48Zz48cGF0aCBkPSJNMCAzMi4zOTM3NSB2LTI3LjM5Mzc0OTk5OTk5OTk5NyBxMCwtNSA1LC01IGgxMjguNjI1IHE1LDAgNSw1IHYzMi4zOTM3NSBIMCBaIiBjbGFzcz0ibm9kZS1ia2cgbm9kZS1uby1ib3JkZXIiIGlkPSJub2RlLTIiPjwvcGF0aD48bGluZSB5Mj0iMzcuMzkzNzUiIHgyPSIxMzguNjI1IiB5MT0iMzcuMzkzNzUiIHgxPSIwIiBjbGFzcz0ibm9kZS1saW5lLTAiPjwvbGluZT48L2c+PGcgdHJhbnNmb3JtPSJ0cmFuc2xhdGUoNjkuMzEyNSwgNSkiIHRleHQtYW5jaG9yPSJtaWRkbGUiIGRvbWluYW50LWJhc2VsaW5lPSJtaWRkbGUiIGFsaWdubWVudC1iYXNlbGluZT0ibWlkZGxlIiBkeT0iMWVtIj48Zz48cmVjdCBzdHlsZT0ic3Ryb2tlOiBub25lIiBjbGFzcz0iYmFja2dyb3VuZCI+PC9yZWN0Pjx0ZXh0IHN0eWxlPSIiIHk9Ii0xMC4xIj48dHNwYW4gZHk9IjEuMWVtIiB5PSItMC4xZW0iIHg9IjAiIGNsYXNzPSJ0ZXh0LW91dGVyLXRzcGFuIj48dHNwYW4gZm9udC13ZWlnaHQ9Im5vcm1hbCIgY2xhc3M9InRleHQtaW5uZXItdHNwYW4iIGZvbnQtc3R5bGU9Im5vcm1hbCI+UHJpb3I8L3RzcGFuPjx0c3BhbiBmb250LXdlaWdodD0ibm9ybWFsIiBjbGFzcz0idGV4dC1pbm5lci10c3BhbiIgZm9udC1zdHlsZT0ibm9ybWFsIj4gdG88L3RzcGFuPjx0c3BhbiBmb250LXdlaWdodD0ibm9ybWFsIiBjbGFzcz0idGV4dC1pbm5lci10c3BhbiIgZm9udC1zdHlsZT0ibm9ybWFsIj4gZmlyc3Q8L3RzcGFuPjx0c3BhbiBmb250LXdlaWdodD0ibm9ybWFsIiBjbGFzcz0idGV4dC1pbm5lci10c3BhbiIgZm9udC1zdHlsZT0ibm9ybWFsIj4gZGF5PC90c3Bhbj48L3RzcGFuPjwvdGV4dD48L2c+PC9nPjwvZz48ZyB0cmFuc2Zvcm09InRyYW5zbGF0ZSgzODUuODQ1NjU0OTExNDY3OTMsIDEwMy41Njg1OTIwNTQwNzgzKSIgY2xhc3M9Im1pbmRtYXAtbm9kZSBzZWN0aW9uLTAiPjxnPjxwYXRoIGQ9Ik0wIDMyLjM5Mzc1IHYtMjcuMzkzNzQ5OTk5OTk5OTk3IHEwLC01IDUsLTUgaDcyLjAzMTI1IHE1LDAgNSw1IHYzMi4zOTM3NSBIMCBaIiBjbGFzcz0ibm9kZS1ia2cgbm9kZS1uby1ib3JkZXIiIGlkPSJub2RlLTYiPjwvcGF0aD48bGluZSB5Mj0iMzcuMzkzNzUiIHgyPSI4Mi4wMzEyNSIgeTE9IjM3LjM5Mzc1IiB4MT0iMCIgY2xhc3M9Im5vZGUtbGluZS0wIj48L2xpbmU+PC9nPjxnIHRyYW5zZm9ybT0idHJhbnNsYXRlKDQxLjAxNTYyNSwgNSkiIHRleHQtYW5jaG9yPSJtaWRkbGUiIGRvbWluYW50LWJhc2VsaW5lPSJtaWRkbGUiIGFsaWdubWVudC1iYXNlbGluZT0ibWlkZGxlIiBkeT0iMWVtIj48Zz48cmVjdCBzdHlsZT0ic3Ryb2tlOiBub25lIiBjbGFzcz0iYmFja2dyb3VuZCI+PC9yZWN0Pjx0ZXh0IHN0eWxlPSIiIHk9Ii0xMC4xIj48dHNwYW4gZHk9IjEuMWVtIiB5PSItMC4xZW0iIHg9IjAiIGNsYXNzPSJ0ZXh0LW91dGVyLXRzcGFuIj48dHNwYW4gZm9udC13ZWlnaHQ9Im5vcm1hbCIgY2xhc3M9InRleHQtaW5uZXItdHNwYW4iIGZvbnQtc3R5bGU9Im5vcm1hbCI+Rmlyc3Q8L3RzcGFuPjx0c3BhbiBmb250LXdlaWdodD0ibm9ybWFsIiBjbGFzcz0idGV4dC1pbm5lci10c3BhbiIgZm9udC1zdHlsZT0ibm9ybWFsIj4gZGF5PC90c3Bhbj48L3RzcGFuPjwvdGV4dD48L2c+PC9nPjwvZz48ZyB0cmFuc2Zvcm09InRyYW5zbGF0ZSgyODEuMDc5MTc5MjA2MDI3NTYsIDI2OC4xMDM2MzczMjg5MjI1NikiIGNsYXNzPSJtaW5kbWFwLW5vZGUgc2VjdGlvbi0wIj48Zz48cGF0aCBkPSJNMCAzMi4zOTM3NSB2LTI3LjM5Mzc0OTk5OTk5OTk5NyBxMCwtNSA1LC01IGg4NC4yNSBxNSwwIDUsNSB2MzIuMzkzNzUgSDAgWiIgY2xhc3M9Im5vZGUtYmtnIG5vZGUtbm8tYm9yZGVyIiBpZD0ibm9kZS0xMCI+PC9wYXRoPjxsaW5lIHkyPSIzNy4zOTM3NSIgeDI9Ijk0LjI1IiB5MT0iMzcuMzkzNzUiIHgxPSIwIiBjbGFzcz0ibm9kZS1saW5lLTAiPjwvbGluZT48L2c+PGcgdHJhbnNmb3JtPSJ0cmFuc2xhdGUoNDcuMTI1LCA1KSIgdGV4dC1hbmNob3I9Im1pZGRsZSIgZG9taW5hbnQtYmFzZWxpbmU9Im1pZGRsZSIgYWxpZ25tZW50LWJhc2VsaW5lPSJtaWRkbGUiIGR5PSIxZW0iPjxnPjxyZWN0IHN0eWxlPSJzdHJva2U6IG5vbmUiIGNsYXNzPSJiYWNrZ3JvdW5kIj48L3JlY3Q+PHRleHQgc3R5bGU9IiIgeT0iLTEwLjEiPjx0c3BhbiBkeT0iMS4xZW0iIHk9Ii0wLjFlbSIgeD0iMCIgY2xhc3M9InRleHQtb3V0ZXItdHNwYW4iPjx0c3BhbiBmb250LXdlaWdodD0ibm9ybWFsIiBjbGFzcz0idGV4dC1pbm5lci10c3BhbiIgZm9udC1zdHlsZT0ibm9ybWFsIj5GaXJzdDwvdHNwYW4+PHRzcGFuIGZvbnQtd2VpZ2h0PSJub3JtYWwiIGNsYXNzPSJ0ZXh0LWlubmVyLXRzcGFuIiBmb250LXN0eWxlPSJub3JtYWwiPiB3ZWVrPC90c3Bhbj48L3RzcGFuPjwvdGV4dD48L2c+PC9nPjwvZz48ZyB0cmFuc2Zvcm09InRyYW5zbGF0ZSgyMzIuOTE2NTQ2MzEzNTIwNiwgMTg4LjcwNjA4NTU0MTI2KSIgY2xhc3M9Im1pbmRtYXAtbm9kZSBzZWN0aW9uLTAiPjxnPjxwYXRoIGQ9Ik0wIDMyLjM5Mzc1IHYtMjcuMzkzNzQ5OTk5OTk5OTk3IHEwLC01IDUsLTUgaDkyLjUzMTI1IHE1LDAgNSw1IHYzMi4zOTM3NSBIMCBaIiBjbGFzcz0ibm9kZS1ia2cgbm9kZS1uby1ib3JkZXIiIGlkPSJub2RlLTEzIj48L3BhdGg+PGxpbmUgeTI9IjM3LjM5Mzc1IiB4Mj0iMTAyLjUzMTI1IiB5MT0iMzcuMzkzNzUiIHgxPSIwIiBjbGFzcz0ibm9kZS1saW5lLTAiPjwvbGluZT48L2c+PGcgdHJhbnNmb3JtPSJ0cmFuc2xhdGUoNTEuMjY1NjI1LCA1KSIgdGV4dC1hbmNob3I9Im1pZGRsZSIgZG9taW5hbnQtYmFzZWxpbmU9Im1pZGRsZSIgYWxpZ25tZW50LWJhc2VsaW5lPSJtaWRkbGUiIGR5PSIxZW0iPjxnPjxyZWN0IHN0eWxlPSJzdHJva2U6IG5vbmUiIGNsYXNzPSJiYWNrZ3JvdW5kIj48L3JlY3Q+PHRleHQgc3R5bGU9IiIgeT0iLTEwLjEiPjx0c3BhbiBkeT0iMS4xZW0iIHk9Ii0wLjFlbSIgeD0iMCIgY2xhc3M9InRleHQtb3V0ZXItdHNwYW4iPjx0c3BhbiBmb250LXdlaWdodD0ibm9ybWFsIiBjbGFzcz0idGV4dC1pbm5lci10c3BhbiIgZm9udC1zdHlsZT0ibm9ybWFsIj5GaXJzdDwvdHNwYW4+PHRzcGFuIGZvbnQtd2VpZ2h0PSJub3JtYWwiIGNsYXNzPSJ0ZXh0LWlubmVyLXRzcGFuIiBmb250LXN0eWxlPSJub3JtYWwiPiBtb250aDwvdHNwYW4+PC90c3Bhbj48L3RleHQ+PC9nPjwvZz48L2c+PGcgdHJhbnNmb3JtPSJ0cmFuc2xhdGUoNjYxLjAwMDYxMzQwOTE3OTIsIDQzLjY5MTA4NDc1MzgzMjYzNCkiIGNsYXNzPSJtaW5kbWFwLW5vZGUgc2VjdGlvbi0xIj48Zz48cmVjdCB3aWR0aD0iMTkxLjc4MTI1IiBoZWlnaHQ9IjQ3LjM5Mzc1IiBjbGFzcz0ibm9kZS1ia2cgbm9kZS1yZWN0IiBpZD0ibm9kZS0xOCI+PC9yZWN0PjwvZz48ZyB0cmFuc2Zvcm09InRyYW5zbGF0ZSg5NS44OTA2MjUsIDEwKSIgdGV4dC1hbmNob3I9Im1pZGRsZSIgZG9taW5hbnQtYmFzZWxpbmU9Im1pZGRsZSIgYWxpZ25tZW50LWJhc2VsaW5lPSJtaWRkbGUiIGR5PSIxZW0iPjxnPjxyZWN0IHN0eWxlPSJzdHJva2U6IG5vbmUiIGNsYXNzPSJiYWNrZ3JvdW5kIj48L3JlY3Q+PHRleHQgc3R5bGU9IiIgeT0iLTEwLjEiPjx0c3BhbiBkeT0iMS4xZW0iIHk9Ii0wLjFlbSIgeD0iMCIgY2xhc3M9InRleHQtb3V0ZXItdHNwYW4iPjx0c3BhbiBmb250LXdlaWdodD0ibm9ybWFsIiBjbGFzcz0idGV4dC1pbm5lci10c3BhbiIgZm9udC1zdHlsZT0ibm9ybWFsIj5GZWVkYmFjazwvdHNwYW4+PHRzcGFuIGZvbnQtd2VpZ2h0PSJub3JtYWwiIGNsYXNzPSJ0ZXh0LWlubmVyLXRzcGFuIiBmb250LXN0eWxlPSJub3JtYWwiPiBhbmQ8L3RzcGFuPjx0c3BhbiBmb250LXdlaWdodD0ibm9ybWFsIiBjbGFzcz0idGV4dC1pbm5lci10c3BhbiIgZm9udC1zdHlsZT0ibm9ybWFsIj4gcmV2aWV3PC90c3Bhbj48L3RzcGFuPjwvdGV4dD48L2c+PC9nPjwvZz48ZyB0cmFuc2Zvcm09InRyYW5zbGF0ZSg4ODIuNzUwNDc1NDcyNTMzNiwgMTcyLjczNTIxNzY3OTUzNTAzKSIgY2xhc3M9Im1pbmRtYXAtbm9kZSBzZWN0aW9uLTEiPjxnPjxyZWN0IHdpZHRoPSIxMzkuOTM3NSIgaGVpZ2h0PSI0Ny4zOTM3NSIgY2xhc3M9Im5vZGUtYmtnIG5vZGUtcmVjdCIgaWQ9Im5vZGUtMTkiPjwvcmVjdD48L2c+PGcgdHJhbnNmb3JtPSJ0cmFuc2xhdGUoNjkuOTY4NzUsIDEwKSIgdGV4dC1hbmNob3I9Im1pZGRsZSIgZG9taW5hbnQtYmFzZWxpbmU9Im1pZGRsZSIgYWxpZ25tZW50LWJhc2VsaW5lPSJtaWRkbGUiIGR5PSIxZW0iPjxnPjxyZWN0IHN0eWxlPSJzdHJva2U6IG5vbmUiIGNsYXNzPSJiYWNrZ3JvdW5kIj48L3JlY3Q+PHRleHQgc3R5bGU9IiIgeT0iLTEwLjEiPjx0c3BhbiBkeT0iMS4xZW0iIHk9Ii0wLjFlbSIgeD0iMCIgY2xhc3M9InRleHQtb3V0ZXItdHNwYW4iPjx0c3BhbiBmb250LXdlaWdodD0ibm9ybWFsIiBjbGFzcz0idGV4dC1pbm5lci10c3BhbiIgZm9udC1zdHlsZT0ibm9ybWFsIj5FeGl0PC90c3Bhbj48dHNwYW4gZm9udC13ZWlnaHQ9Im5vcm1hbCIgY2xhc3M9InRleHQtaW5uZXItdHNwYW4iIGZvbnQtc3R5bGU9Im5vcm1hbCI+IGludGVydmlldzwvdHNwYW4+PC90c3Bhbj48L3RleHQ+PC9nPjwvZz48L2c+PGcgdHJhbnNmb3JtPSJ0cmFuc2xhdGUoODc1LjgwMTQ0OTA0NzMzOTEsIDkzLjU2MDk2NTQwMzE5Mzc5KSIgY2xhc3M9Im1pbmRtYXAtbm9kZSBzZWN0aW9uLTEiPjxnPjxyZWN0IHdpZHRoPSIyMjYuMjgxMjUiIGhlaWdodD0iNDcuMzkzNzUiIGNsYXNzPSJub2RlLWJrZyBub2RlLXJlY3QiIGlkPSJub2RlLTIwIj48L3JlY3Q+PC9nPjxnIHRyYW5zZm9ybT0idHJhbnNsYXRlKDExMy4xNDA2MjUsIDEwKSIgdGV4dC1hbmNob3I9Im1pZGRsZSIgZG9taW5hbnQtYmFzZWxpbmU9Im1pZGRsZSIgYWxpZ25tZW50LWJhc2VsaW5lPSJtaWRkbGUiIGR5PSIxZW0iPjxnPjxyZWN0IHN0eWxlPSJzdHJva2U6IG5vbmUiIGNsYXNzPSJiYWNrZ3JvdW5kIj48L3JlY3Q+PHRleHQgc3R5bGU9IiIgeT0iLTEwLjEiPjx0c3BhbiBkeT0iMS4xZW0iIHk9Ii0wLjFlbSIgeD0iMCIgY2xhc3M9InRleHQtb3V0ZXItdHNwYW4iPjx0c3BhbiBmb250LXdlaWdodD0ibm9ybWFsIiBjbGFzcz0idGV4dC1pbm5lci10c3BhbiIgZm9udC1zdHlsZT0ibm9ybWFsIj5UYXNrcy9wcm9qZWN0czwvdHNwYW4+PHRzcGFuIGZvbnQtd2VpZ2h0PSJub3JtYWwiIGNsYXNzPSJ0ZXh0LWlubmVyLXRzcGFuIiBmb250LXN0eWxlPSJub3JtYWwiPiByZWFzc2lnbmVkPC90c3Bhbj48L3RzcGFuPjwvdGV4dD48L2c+PC9nPjwvZz48ZyB0cmFuc2Zvcm09InRyYW5zbGF0ZSg3NzEuNzM3MTQ5NzM1MTcyOSwgMjQxLjAwNDMxNDAzMTcxMzE2KSIgY2xhc3M9Im1pbmRtYXAtbm9kZSBzZWN0aW9uLTEiPjxnPjxyZWN0IHdpZHRoPSIxOTcuMDYyNSIgaGVpZ2h0PSI2NC45ODc1IiBjbGFzcz0ibm9kZS1ia2cgbm9kZS1yZWN0IiBpZD0ibm9kZS0yMiI+PC9yZWN0PjwvZz48ZyB0cmFuc2Zvcm09InRyYW5zbGF0ZSg5OC41MzEyNSwgMTApIiB0ZXh0LWFuY2hvcj0ibWlkZGxlIiBkb21pbmFudC1iYXNlbGluZT0ibWlkZGxlIiBhbGlnbm1lbnQtYmFzZWxpbmU9Im1pZGRsZSIgZHk9IjFlbSI+PGc+PHJlY3Qgc3R5bGU9InN0cm9rZTogbm9uZSIgY2xhc3M9ImJhY2tncm91bmQiPjwvcmVjdD48dGV4dCBzdHlsZT0iIiB5PSItMTAuMSI+PHRzcGFuIGR5PSIxLjFlbSIgeT0iLTAuMWVtIiB4PSIwIiBjbGFzcz0idGV4dC1vdXRlci10c3BhbiI+PHRzcGFuIGZvbnQtd2VpZ2h0PSJub3JtYWwiIGNsYXNzPSJ0ZXh0LWlubmVyLXRzcGFuIiBmb250LXN0eWxlPSJub3JtYWwiPkFjY291bnQ8L3RzcGFuPjwvdHNwYW4+PHRzcGFuIGR5PSIxLjFlbSIgeT0iMWVtIiB4PSIwIiBjbGFzcz0idGV4dC1vdXRlci10c3BhbiI+PHRzcGFuIGZvbnQtd2VpZ2h0PSJub3JtYWwiIGNsYXNzPSJ0ZXh0LWlubmVyLXRzcGFuIiBmb250LXN0eWxlPSJub3JtYWwiPmRlYWN0aXZhdGlvbi9kZWxldGlvbjwvdHNwYW4+PC90c3Bhbj48L3RleHQ+PC9nPjwvZz48L2c+PGcgdHJhbnNmb3JtPSJ0cmFuc2xhdGUoNTY4LjI2OTcyMTg3MDkwMTQsIDIyOS40NzM0NzE5NDgxMDE2MykiIGNsYXNzPSJtaW5kbWFwLW5vZGUgc2VjdGlvbi0xIj48Zz48cmVjdCB3aWR0aD0iMTc1LjkzNzUiIGhlaWdodD0iNDcuMzkzNzUiIGNsYXNzPSJub2RlLWJrZyBub2RlLXJlY3QiIGlkPSJub2RlLTIzIj48L3JlY3Q+PC9nPjxnIHRyYW5zZm9ybT0idHJhbnNsYXRlKDg3Ljk2ODc1LCAxMCkiIHRleHQtYW5jaG9yPSJtaWRkbGUiIGRvbWluYW50LWJhc2VsaW5lPSJtaWRkbGUiIGFsaWdubWVudC1iYXNlbGluZT0ibWlkZGxlIiBkeT0iMWVtIj48Zz48cmVjdCBzdHlsZT0ic3Ryb2tlOiBub25lIiBjbGFzcz0iYmFja2dyb3VuZCI+PC9yZWN0Pjx0ZXh0IHN0eWxlPSIiIHk9Ii0xMC4xIj48dHNwYW4gZHk9IjEuMWVtIiB5PSItMC4xZW0iIHg9IjAiIGNsYXNzPSJ0ZXh0LW91dGVyLXRzcGFuIj48dHNwYW4gZm9udC13ZWlnaHQ9Im5vcm1hbCIgY2xhc3M9InRleHQtaW5uZXItdHNwYW4iIGZvbnQtc3R5bGU9Im5vcm1hbCI+SVQ8L3RzcGFuPjx0c3BhbiBmb250LXdlaWdodD0ibm9ybWFsIiBjbGFzcz0idGV4dC1pbm5lci10c3BhbiIgZm9udC1zdHlsZT0ibm9ybWFsIj4gaGFyZHdhcmU8L3RzcGFuPjx0c3BhbiBmb250LXdlaWdodD0ibm9ybWFsIiBjbGFzcz0idGV4dC1pbm5lci10c3BhbiIgZm9udC1zdHlsZT0ibm9ybWFsIj4gcmV0dXJuPC90c3Bhbj48L3RzcGFuPjwvdGV4dD48L2c+PC9nPjwvZz48ZyB0cmFuc2Zvcm09InRyYW5zbGF0ZSgzMzYuOTIxNTMxOTg0OTYyMzcsIDM1OS42NzU0NjUyMTAzOTc3NikiIGNsYXNzPSJtaW5kbWFwLW5vZGUgc2VjdGlvbi0wIj48Zz48cGF0aCBkPSJNMCAzMi4zOTM3NSB2LTI3LjM5Mzc0OTk5OTk5OTk5NyBxMCwtNSA1LC01IGgxMjIuNDA2MjUgcTUsMCA1LDUgdjMyLjM5Mzc1IEgwIFoiIGNsYXNzPSJub2RlLWJrZyBub2RlLW5vLWJvcmRlciIgaWQ9Im5vZGUtMyI+PC9wYXRoPjxsaW5lIHkyPSIzNy4zOTM3NSIgeDI9IjEzMi40MDYyNSIgeTE9IjM3LjM5Mzc1IiB4MT0iMCIgY2xhc3M9Im5vZGUtbGluZS0wIj48L2xpbmU+PC9nPjxnIHRyYW5zZm9ybT0idHJhbnNsYXRlKDY2LjIwMzEyNSwgNSkiIHRleHQtYW5jaG9yPSJtaWRkbGUiIGRvbWluYW50LWJhc2VsaW5lPSJtaWRkbGUiIGFsaWdubWVudC1iYXNlbGluZT0ibWlkZGxlIiBkeT0iMWVtIj48Zz48cmVjdCBzdHlsZT0ic3Ryb2tlOiBub25lIiBjbGFzcz0iYmFja2dyb3VuZCI+PC9yZWN0Pjx0ZXh0IHN0eWxlPSIiIHk9Ii0xMC4xIj48dHNwYW4gZHk9IjEuMWVtIiB5PSItMC4xZW0iIHg9IjAiIGNsYXNzPSJ0ZXh0LW91dGVyLXRzcGFuIj48dHNwYW4gZm9udC13ZWlnaHQ9Im5vcm1hbCIgY2xhc3M9InRleHQtaW5uZXItdHNwYW4iIGZvbnQtc3R5bGU9Im5vcm1hbCI+Q29udHJhY3Q8L3RzcGFuPjx0c3BhbiBmb250LXdlaWdodD0ibm9ybWFsIiBjbGFzcz0idGV4dC1pbm5lci10c3BhbiIgZm9udC1zdHlsZT0ibm9ybWFsIj4gc2lnbmVkPC90c3Bhbj48L3RzcGFuPjwvdGV4dD48L2c+PC9nPjwvZz48ZyB0cmFuc2Zvcm09InRyYW5zbGF0ZSg0OTYuMzk3NjE0NjU5OTQ3NCwgMzc3LjQxMTMxOTc3NzA4MDk2KSIgY2xhc3M9Im1pbmRtYXAtbm9kZSBzZWN0aW9uLTAiPjxnPjxwYXRoIGQ9Ik0wIDMyLjM5Mzc1IHYtMjcuMzkzNzQ5OTk5OTk5OTk3IHEwLC01IDUsLTUgaDE1My4yMTg3NSBxNSwwIDUsNSB2MzIuMzkzNzUgSDAgWiIgY2xhc3M9Im5vZGUtYmtnIG5vZGUtbm8tYm9yZGVyIiBpZD0ibm9kZS00Ij48L3BhdGg+PGxpbmUgeTI9IjM3LjM5Mzc1IiB4Mj0iMTYzLjIxODc1IiB5MT0iMzcuMzkzNzUiIHgxPSIwIiBjbGFzcz0ibm9kZS1saW5lLTAiPjwvbGluZT48L2c+PGcgdHJhbnNmb3JtPSJ0cmFuc2xhdGUoODEuNjA5Mzc1LCA1KSIgdGV4dC1hbmNob3I9Im1pZGRsZSIgZG9taW5hbnQtYmFzZWxpbmU9Im1pZGRsZSIgYWxpZ25tZW50LWJhc2VsaW5lPSJtaWRkbGUiIGR5PSIxZW0iPjxnPjxyZWN0IHN0eWxlPSJzdHJva2U6IG5vbmUiIGNsYXNzPSJiYWNrZ3JvdW5kIj48L3JlY3Q+PHRleHQgc3R5bGU9IiIgeT0iLTEwLjEiPjx0c3BhbiBkeT0iMS4xZW0iIHk9Ii0wLjFlbSIgeD0iMCIgY2xhc3M9InRleHQtb3V0ZXItdHNwYW4iPjx0c3BhbiBmb250LXdlaWdodD0ibm9ybWFsIiBjbGFzcz0idGV4dC1pbm5lci10c3BhbiIgZm9udC1zdHlsZT0ibm9ybWFsIj5FbXBsb3llZTwvdHNwYW4+PHRzcGFuIGZvbnQtd2VpZ2h0PSJub3JtYWwiIGNsYXNzPSJ0ZXh0LWlubmVyLXRzcGFuIiBmb250LXN0eWxlPSJub3JtYWwiPiBoYW5kYm9vazwvdHNwYW4+PC90c3Bhbj48L3RleHQ+PC9nPjwvZz48L2c+PGcgdHJhbnNmb3JtPSJ0cmFuc2xhdGUoNjM3Ljk2ODEyODY0NTcyNywgMzI5LjY2MjQ1MDQ3OTk4NTY0KSIgY2xhc3M9Im1pbmRtYXAtbm9kZSBzZWN0aW9uLTAiPjxnPjxwYXRoIGQ9Ik0wIDMyLjM5Mzc1IHYtMjcuMzkzNzQ5OTk5OTk5OTk3IHEwLC01IDUsLTUgaDE3Mi4xODc1IHE1LDAgNSw1IHYzMi4zOTM3NSBIMCBaIiBjbGFzcz0ibm9kZS1ia2cgbm9kZS1uby1ib3JkZXIiIGlkPSJub2RlLTUiPjwvcGF0aD48bGluZSB5Mj0iMzcuMzkzNzUiIHgyPSIxODIuMTg3NSIgeTE9IjM3LjM5Mzc1IiB4MT0iMCIgY2xhc3M9Im5vZGUtbGluZS0wIj48L2xpbmU+PC9nPjxnIHRyYW5zZm9ybT0idHJhbnNsYXRlKDkxLjA5Mzc1LCA1KSIgdGV4dC1hbmNob3I9Im1pZGRsZSIgZG9taW5hbnQtYmFzZWxpbmU9Im1pZGRsZSIgYWxpZ25tZW50LWJhc2VsaW5lPSJtaWRkbGUiIGR5PSIxZW0iPjxnPjxyZWN0IHN0eWxlPSJzdHJva2U6IG5vbmUiIGNsYXNzPSJiYWNrZ3JvdW5kIj48L3JlY3Q+PHRleHQgc3R5bGU9IiIgeT0iLTEwLjEiPjx0c3BhbiBkeT0iMS4xZW0iIHk9Ii0wLjFlbSIgeD0iMCIgY2xhc3M9InRleHQtb3V0ZXItdHNwYW4iPjx0c3BhbiBmb250LXdlaWdodD0ibm9ybWFsIiBjbGFzcz0idGV4dC1pbm5lci10c3BhbiIgZm9udC1zdHlsZT0ibm9ybWFsIj5JVDwvdHNwYW4+PHRzcGFuIGZvbnQtd2VpZ2h0PSJub3JtYWwiIGNsYXNzPSJ0ZXh0LWlubmVyLXRzcGFuIiBmb250LXN0eWxlPSJub3JtYWwiPiBlcXVpcG1lbnQ8L3RzcGFuPjx0c3BhbiBmb250LXdlaWdodD0ibm9ybWFsIiBjbGFzcz0idGV4dC1pbm5lci10c3BhbiIgZm9udC1zdHlsZT0ibm9ybWFsIj4gcmVzZXJ2ZWQ8L3RzcGFuPjwvdHNwYW4+PC90ZXh0PjwvZz48L2c+PC9nPjxnIHRyYW5zZm9ybT0idHJhbnNsYXRlKDQyNi4xMDk2MjY4MjQ3OTYsIDE1KSIgY2xhc3M9Im1pbmRtYXAtbm9kZSBzZWN0aW9uLTAiPjxnPjxwYXRoIGQ9Ik0wIDMyLjM5Mzc1IHYtMjcuMzkzNzQ5OTk5OTk5OTk3IHEwLC01IDUsLTUgaDg4LjUzMTI1IHE1LDAgNSw1IHYzMi4zOTM3NSBIMCBaIiBjbGFzcz0ibm9kZS1ia2cgbm9kZS1uby1ib3JkZXIiIGlkPSJub2RlLTciPjwvcGF0aD48bGluZSB5Mj0iMzcuMzkzNzUiIHgyPSI5OC41MzEyNSIgeTE9IjM3LjM5Mzc1IiB4MT0iMCIgY2xhc3M9Im5vZGUtbGluZS0wIj48L2xpbmU+PC9nPjxnIHRyYW5zZm9ybT0idHJhbnNsYXRlKDQ5LjI2NTYyNSwgNSkiIHRleHQtYW5jaG9yPSJtaWRkbGUiIGRvbWluYW50LWJhc2VsaW5lPSJtaWRkbGUiIGFsaWdubWVudC1iYXNlbGluZT0ibWlkZGxlIiBkeT0iMWVtIj48Zz48cmVjdCBzdHlsZT0ic3Ryb2tlOiBub25lIiBjbGFzcz0iYmFja2dyb3VuZCI+PC9yZWN0Pjx0ZXh0IHN0eWxlPSIiIHk9Ii0xMC4xIj48dHNwYW4gZHk9IjEuMWVtIiB5PSItMC4xZW0iIHg9IjAiIGNsYXNzPSJ0ZXh0LW91dGVyLXRzcGFuIj48dHNwYW4gZm9udC13ZWlnaHQ9Im5vcm1hbCIgY2xhc3M9InRleHQtaW5uZXItdHNwYW4iIGZvbnQtc3R5bGU9Im5vcm1hbCI+T2ZmaWNlPC90c3Bhbj48dHNwYW4gZm9udC13ZWlnaHQ9Im5vcm1hbCIgY2xhc3M9InRleHQtaW5uZXItdHNwYW4iIGZvbnQtc3R5bGU9Im5vcm1hbCI+IHRvdXI8L3RzcGFuPjwvdHNwYW4+PC90ZXh0PjwvZz48L2c+PC9nPjxnIHRyYW5zZm9ybT0idHJhbnNsYXRlKDI4NC43MjI2NzIwNzI2ODQxLCAyNy41NzI1MzYyODA0ODQwMykiIGNsYXNzPSJtaW5kbWFwLW5vZGUgc2VjdGlvbi0wIj48Zz48cGF0aCBkPSJNMCAzMi4zOTM3NSB2LTI3LjM5Mzc0OTk5OTk5OTk5NyBxMCwtNSA1LC01IGg5NS40Njg3NSBxNSwwIDUsNSB2MzIuMzkzNzUgSDAgWiIgY2xhc3M9Im5vZGUtYmtnIG5vZGUtbm8tYm9yZGVyIiBpZD0ibm9kZS04Ij48L3BhdGg+PGxpbmUgeTI9IjM3LjM5Mzc1IiB4Mj0iMTA1LjQ2ODc1IiB5MT0iMzcuMzkzNzUiIHgxPSIwIiBjbGFzcz0ibm9kZS1saW5lLTAiPjwvbGluZT48L2c+PGcgdHJhbnNmb3JtPSJ0cmFuc2xhdGUoNTIuNzM0Mzc1LCA1KSIgdGV4dC1hbmNob3I9Im1pZGRsZSIgZG9taW5hbnQtYmFzZWxpbmU9Im1pZGRsZSIgYWxpZ25tZW50LWJhc2VsaW5lPSJtaWRkbGUiIGR5PSIxZW0iPjxnPjxyZWN0IHN0eWxlPSJzdHJva2U6IG5vbmUiIGNsYXNzPSJiYWNrZ3JvdW5kIj48L3JlY3Q+PHRleHQgc3R5bGU9IiIgeT0iLTEwLjEiPjx0c3BhbiBkeT0iMS4xZW0iIHk9Ii0wLjFlbSIgeD0iMCIgY2xhc3M9InRleHQtb3V0ZXItdHNwYW4iPjx0c3BhbiBmb250LXdlaWdodD0ibm9ybWFsIiBjbGFzcz0idGV4dC1pbm5lci10c3BhbiIgZm9udC1zdHlsZT0ibm9ybWFsIj5UZWFtPC90c3Bhbj48dHNwYW4gZm9udC13ZWlnaHQ9Im5vcm1hbCIgY2xhc3M9InRleHQtaW5uZXItdHNwYW4iIGZvbnQtc3R5bGU9Im5vcm1hbCI+IGludHJvczwvdHNwYW4+PC90c3Bhbj48L3RleHQ+PC9nPjwvZz48L2c+PGcgdHJhbnNmb3JtPSJ0cmFuc2xhdGUoNTEyLjU5ODA2NTYyODYwNTksIDcyLjI1ODAyMjYwNjM2NDMpIiBjbGFzcz0ibWluZG1hcC1ub2RlIHNlY3Rpb24tMCI+PGc+PHBhdGggZD0iTTAgMzIuMzkzNzUgdi0yNy4zOTM3NDk5OTk5OTk5OTcgcTAsLTUgNSwtNSBoMTExLjcxODc1IHE1LDAgNSw1IHYzMi4zOTM3NSBIMCBaIiBjbGFzcz0ibm9kZS1ia2cgbm9kZS1uby1ib3JkZXIiIGlkPSJub2RlLTkiPjwvcGF0aD48bGluZSB5Mj0iMzcuMzkzNzUiIHgyPSIxMjEuNzE4NzUiIHkxPSIzNy4zOTM3NSIgeDE9IjAiIGNsYXNzPSJub2RlLWxpbmUtMCI+PC9saW5lPjwvZz48ZyB0cmFuc2Zvcm09InRyYW5zbGF0ZSg2MC44NTkzNzUsIDUpIiB0ZXh0LWFuY2hvcj0ibWlkZGxlIiBkb21pbmFudC1iYXNlbGluZT0ibWlkZGxlIiBhbGlnbm1lbnQtYmFzZWxpbmU9Im1pZGRsZSIgZHk9IjFlbSI+PGc+PHJlY3Qgc3R5bGU9InN0cm9rZTogbm9uZSIgY2xhc3M9ImJhY2tncm91bmQiPjwvcmVjdD48dGV4dCBzdHlsZT0iIiB5PSItMTAuMSI+PHRzcGFuIGR5PSIxLjFlbSIgeT0iLTAuMWVtIiB4PSIwIiBjbGFzcz0idGV4dC1vdXRlci10c3BhbiI+PHRzcGFuIGZvbnQtd2VpZ2h0PSJub3JtYWwiIGNsYXNzPSJ0ZXh0LWlubmVyLXRzcGFuIiBmb250LXN0eWxlPSJub3JtYWwiPkFjY291bnQ8L3RzcGFuPjx0c3BhbiBmb250LXdlaWdodD0ibm9ybWFsIiBjbGFzcz0idGV4dC1pbm5lci10c3BhbiIgZm9udC1zdHlsZT0ibm9ybWFsIj4gc2V0dXA8L3RzcGFuPjwvdHNwYW4+PC90ZXh0PjwvZz48L2c+PC9nPjxnIHRyYW5zZm9ybT0idHJhbnNsYXRlKDEyMC41MDI4NTQ0MjYyNjIxNiwgMzM2LjEwMjY4NzMyMjE0OTEpIiBjbGFzcz0ibWluZG1hcC1ub2RlIHNlY3Rpb24tMCI+PGc+PHBhdGggZD0iTTAgMzIuMzkzNzUgdi0yNy4zOTM3NDk5OTk5OTk5OTcgcTAsLTUgNSwtNSBoMTc2LjI4MTI1IHE1LDAgNSw1IHYzMi4zOTM3NSBIMCBaIiBjbGFzcz0ibm9kZS1ia2cgbm9kZS1uby1ib3JkZXIiIGlkPSJub2RlLTExIj48L3BhdGg+PGxpbmUgeTI9IjM3LjM5Mzc1IiB4Mj0iMTg2LjI4MTI1IiB5MT0iMzcuMzkzNzUiIHgxPSIwIiBjbGFzcz0ibm9kZS1saW5lLTAiPjwvbGluZT48L2c+PGcgdHJhbnNmb3JtPSJ0cmFuc2xhdGUoOTMuMTQwNjI1LCA1KSIgdGV4dC1hbmNob3I9Im1pZGRsZSIgZG9taW5hbnQtYmFzZWxpbmU9Im1pZGRsZSIgYWxpZ25tZW50LWJhc2VsaW5lPSJtaWRkbGUiIGR5PSIxZW0iPjxnPjxyZWN0IHN0eWxlPSJzdHJva2U6IG5vbmUiIGNsYXNzPSJiYWNrZ3JvdW5kIj48L3JlY3Q+PHRleHQgc3R5bGU9IiIgeT0iLTEwLjEiPjx0c3BhbiBkeT0iMS4xZW0iIHk9Ii0wLjFlbSIgeD0iMCIgY2xhc3M9InRleHQtb3V0ZXItdHNwYW4iPjx0c3BhbiBmb250LXdlaWdodD0ibm9ybWFsIiBjbGFzcz0idGV4dC1pbm5lci10c3BhbiIgZm9udC1zdHlsZT0ibm9ybWFsIj5TaGFkb3c8L3RzcGFuPjx0c3BhbiBmb250LXdlaWdodD0ibm9ybWFsIiBjbGFzcz0idGV4dC1pbm5lci10c3BhbiIgZm9udC1zdHlsZT0ibm9ybWFsIj4gdGVhbTwvdHNwYW4+PHRzcGFuIGZvbnQtd2VpZ2h0PSJub3JtYWwiIGNsYXNzPSJ0ZXh0LWlubmVyLXRzcGFuIiBmb250LXN0eWxlPSJub3JtYWwiPiBtZW1iZXJzPC90c3Bhbj48L3RzcGFuPjwvdGV4dD48L2c+PC9nPjwvZz48ZyB0cmFuc2Zvcm09InRyYW5zbGF0ZSg4MS4xNDc3MTQ5MTY0NjgwOSwgMjY5Ljg0NzAxOTEzMTg2MTkpIiBjbGFzcz0ibWluZG1hcC1ub2RlIHNlY3Rpb24tMCI+PGc+PHBhdGggZD0iTTAgMzIuMzkzNzUgdi0yNy4zOTM3NDk5OTk5OTk5OTcgcTAsLTUgNSwtNSBoMTM0LjI1IHE1LDAgNSw1IHYzMi4zOTM3NSBIMCBaIiBjbGFzcz0ibm9kZS1ia2cgbm9kZS1uby1ib3JkZXIiIGlkPSJub2RlLTEyIj48L3BhdGg+PGxpbmUgeTI9IjM3LjM5Mzc1IiB4Mj0iMTQ0LjI1IiB5MT0iMzcuMzkzNzUiIHgxPSIwIiBjbGFzcz0ibm9kZS1saW5lLTAiPjwvbGluZT48L2c+PGcgdHJhbnNmb3JtPSJ0cmFuc2xhdGUoNzIuMTI1LCA1KSIgdGV4dC1hbmNob3I9Im1pZGRsZSIgZG9taW5hbnQtYmFzZWxpbmU9Im1pZGRsZSIgYWxpZ25tZW50LWJhc2VsaW5lPSJtaWRkbGUiIGR5PSIxZW0iPjxnPjxyZWN0IHN0eWxlPSJzdHJva2U6IG5vbmUiIGNsYXNzPSJiYWNrZ3JvdW5kIj48L3JlY3Q+PHRleHQgc3R5bGU9IiIgeT0iLTEwLjEiPjx0c3BhbiBkeT0iMS4xZW0iIHk9Ii0wLjFlbSIgeD0iMCIgY2xhc3M9InRleHQtb3V0ZXItdHNwYW4iPjx0c3BhbiBmb250LXdlaWdodD0ibm9ybWFsIiBjbGFzcz0idGV4dC1pbm5lci10c3BhbiIgZm9udC1zdHlsZT0ibm9ybWFsIj5Tb2Z0d2FyZTwvdHNwYW4+PHRzcGFuIGZvbnQtd2VpZ2h0PSJub3JtYWwiIGNsYXNzPSJ0ZXh0LWlubmVyLXRzcGFuIiBmb250LXN0eWxlPSJub3JtYWwiPiB0cmFpbmluZzwvdHNwYW4+PC90c3Bhbj48L3RleHQ+PC9nPjwvZz48L2c+PGcgdHJhbnNmb3JtPSJ0cmFuc2xhdGUoNjIuMjk2OTY1Mzk0ODc1MiwgMTI2Ljc4Mzk4Mjk3NDc0MTIpIiBjbGFzcz0ibWluZG1hcC1ub2RlIHNlY3Rpb24tMCI+PGc+PHBhdGggZD0iTTAgMzIuMzkzNzUgdi0yNy4zOTM3NDk5OTk5OTk5OTcgcTAsLTUgNSwtNSBoMTYxLjc4MTI1IHE1LDAgNSw1IHYzMi4zOTM3NSBIMCBaIiBjbGFzcz0ibm9kZS1ia2cgbm9kZS1uby1ib3JkZXIiIGlkPSJub2RlLTE0Ij48L3BhdGg+PGxpbmUgeTI9IjM3LjM5Mzc1IiB4Mj0iMTcxLjc4MTI1IiB5MT0iMzcuMzkzNzUiIHgxPSIwIiBjbGFzcz0ibm9kZS1saW5lLTAiPjwvbGluZT48L2c+PGcgdHJhbnNmb3JtPSJ0cmFuc2xhdGUoODUuODkwNjI1LCA1KSIgdGV4dC1hbmNob3I9Im1pZGRsZSIgZG9taW5hbnQtYmFzZWxpbmU9Im1pZGRsZSIgYWxpZ25tZW50LWJhc2VsaW5lPSJtaWRkbGUiIGR5PSIxZW0iPjxnPjxyZWN0IHN0eWxlPSJzdHJva2U6IG5vbmUiIGNsYXNzPSJiYWNrZ3JvdW5kIj48L3JlY3Q+PHRleHQgc3R5bGU9IiIgeT0iLTEwLjEiPjx0c3BhbiBkeT0iMS4xZW0iIHk9Ii0wLjFlbSIgeD0iMCIgY2xhc3M9InRleHQtb3V0ZXItdHNwYW4iPjx0c3BhbiBmb250LXdlaWdodD0ibm9ybWFsIiBjbGFzcz0idGV4dC1pbm5lci10c3BhbiIgZm9udC1zdHlsZT0ibm9ybWFsIj5Bc3NpZ248L3RzcGFuPjx0c3BhbiBmb250LXdlaWdodD0ibm9ybWFsIiBjbGFzcz0idGV4dC1pbm5lci10c3BhbiIgZm9udC1zdHlsZT0ibm9ybWFsIj4gcHJvamVjdHMvdGFza3M8L3RzcGFuPjwvdHNwYW4+PC90ZXh0PjwvZz48L2c+PC9nPjxnIHRyYW5zZm9ybT0idHJhbnNsYXRlKDI2Ni45MDM1MTA2MTcwMDA5NiwgMTA0LjMzMTM5NjcxODE4MzU2KSIgY2xhc3M9Im1pbmRtYXAtbm9kZSBzZWN0aW9uLTAiPjxnPjxwYXRoIGQ9Ik0wIDMyLjM5Mzc1IHYtMjcuMzkzNzQ5OTk5OTk5OTk3IHEwLC01IDUsLTUgaDczLjgxMjUgcTUsMCA1LDUgdjMyLjM5Mzc1IEgwIFoiIGNsYXNzPSJub2RlLWJrZyBub2RlLW5vLWJvcmRlciIgaWQ9Im5vZGUtMTUiPjwvcGF0aD48bGluZSB5Mj0iMzcuMzkzNzUiIHgyPSI4My44MTI1IiB5MT0iMzcuMzkzNzUiIHgxPSIwIiBjbGFzcz0ibm9kZS1saW5lLTAiPjwvbGluZT48L2c+PGcgdHJhbnNmb3JtPSJ0cmFuc2xhdGUoNDEuOTA2MjUsIDUpIiB0ZXh0LWFuY2hvcj0ibWlkZGxlIiBkb21pbmFudC1iYXNlbGluZT0ibWlkZGxlIiBhbGlnbm1lbnQtYmFzZWxpbmU9Im1pZGRsZSIgZHk9IjFlbSI+PGc+PHJlY3Qgc3R5bGU9InN0cm9rZTogbm9uZSIgY2xhc3M9ImJhY2tncm91bmQiPjwvcmVjdD48dGV4dCBzdHlsZT0iIiB5PSItMTAuMSI+PHRzcGFuIGR5PSIxLjFlbSIgeT0iLTAuMWVtIiB4PSIwIiBjbGFzcz0idGV4dC1vdXRlci10c3BhbiI+PHRzcGFuIGZvbnQtd2VpZ2h0PSJub3JtYWwiIGNsYXNzPSJ0ZXh0LWlubmVyLXRzcGFuIiBmb250LXN0eWxlPSJub3JtYWwiPlNldDwvdHNwYW4+PHRzcGFuIGZvbnQtd2VpZ2h0PSJub3JtYWwiIGNsYXNzPSJ0ZXh0LWlubmVyLXRzcGFuIiBmb250LXN0eWxlPSJub3JtYWwiPiBnb2FsczwvdHNwYW4+PC90c3Bhbj48L3RleHQ+PC9nPjwvZz48L2c+PGcgdHJhbnNmb3JtPSJ0cmFuc2xhdGUoMTUsIDE5OC4xODkyODYxMjk4ODQ0KSIgY2xhc3M9Im1pbmRtYXAtbm9kZSBzZWN0aW9uLTAiPjxnPjxwYXRoIGQ9Ik0wIDMyLjM5Mzc1IHYtMjcuMzkzNzQ5OTk5OTk5OTk3IHEwLC01IDUsLTUgaDE0Ny45MDYyNSBxNSwwIDUsNSB2MzIuMzkzNzUgSDAgWiIgY2xhc3M9Im5vZGUtYmtnIG5vZGUtbm8tYm9yZGVyIiBpZD0ibm9kZS0xNiI+PC9wYXRoPjxsaW5lIHkyPSIzNy4zOTM3NSIgeDI9IjE1Ny45MDYyNSIgeTE9IjM3LjM5Mzc1IiB4MT0iMCIgY2xhc3M9Im5vZGUtbGluZS0wIj48L2xpbmU+PC9nPjxnIHRyYW5zZm9ybT0idHJhbnNsYXRlKDc4Ljk1MzEyNSwgNSkiIHRleHQtYW5jaG9yPSJtaWRkbGUiIGRvbWluYW50LWJhc2VsaW5lPSJtaWRkbGUiIGFsaWdubWVudC1iYXNlbGluZT0ibWlkZGxlIiBkeT0iMWVtIj48Zz48cmVjdCBzdHlsZT0ic3Ryb2tlOiBub25lIiBjbGFzcz0iYmFja2dyb3VuZCI+PC9yZWN0Pjx0ZXh0IHN0eWxlPSIiIHk9Ii0xMC4xIj48dHNwYW4gZHk9IjEuMWVtIiB5PSItMC4xZW0iIHg9IjAiIGNsYXNzPSJ0ZXh0LW91dGVyLXRzcGFuIj48dHNwYW4gZm9udC13ZWlnaHQ9Im5vcm1hbCIgY2xhc3M9InRleHQtaW5uZXItdHNwYW4iIGZvbnQtc3R5bGU9Im5vcm1hbCI+R2V0PC90c3Bhbj48dHNwYW4gZm9udC13ZWlnaHQ9Im5vcm1hbCIgY2xhc3M9InRleHQtaW5uZXItdHNwYW4iIGZvbnQtc3R5bGU9Im5vcm1hbCI+IHRlYW08L3RzcGFuPjx0c3BhbiBmb250LXdlaWdodD0ibm9ybWFsIiBjbGFzcz0idGV4dC1pbm5lci10c3BhbiIgZm9udC1zdHlsZT0ibm9ybWFsIj4gZmVlZGJhY2s8L3RzcGFuPjwvdHNwYW4+PC90ZXh0PjwvZz48L2c+PC9nPjxnIHRyYW5zZm9ybT0idHJhbnNsYXRlKDExMTYuNTI0MTk5NzcwMjExNSwgMTQ5Ljk5ODg0Nzk1NjUwMzAzKSIgY2xhc3M9Im1pbmRtYXAtbm9kZSBzZWN0aW9uLTEiPjxnPjxyZWN0IHdpZHRoPSIxMDcuOTA2MjUiIGhlaWdodD0iNDcuMzkzNzUiIGNsYXNzPSJub2RlLWJrZyBub2RlLXJlY3QiIGlkPSJub2RlLTIxIj48L3JlY3Q+PC9nPjxnIHRyYW5zZm9ybT0idHJhbnNsYXRlKDUzLjk1MzEyNSwgMTApIiB0ZXh0LWFuY2hvcj0ibWlkZGxlIiBkb21pbmFudC1iYXNlbGluZT0ibWlkZGxlIiBhbGlnbm1lbnQtYmFzZWxpbmU9Im1pZGRsZSIgZHk9IjFlbSI+PGc+PHJlY3Qgc3R5bGU9InN0cm9rZTogbm9uZSIgY2xhc3M9ImJhY2tncm91bmQiPjwvcmVjdD48dGV4dCBzdHlsZT0iIiB5PSItMTAuMSI+PHRzcGFuIGR5PSIxLjFlbSIgeT0iLTAuMWVtIiB4PSIwIiBjbGFzcz0idGV4dC1vdXRlci10c3BhbiI+PHRzcGFuIGZvbnQtd2VpZ2h0PSJub3JtYWwiIGNsYXNzPSJ0ZXh0LWlubmVyLXRzcGFuIiBmb250LXN0eWxlPSJub3JtYWwiPkhhbmRvdmVyPC90c3Bhbj48L3RzcGFuPjwvdGV4dD48L2c+PC9nPjwvZz48L2c+PC9zdmc+;imageBackground=#CCCCCC;" vertex="1" parent="1">
            <mxGeometry x="85" y="30" width="1000" height="310" as="geometry" />
          </mxCell>
        </UserObject>
      </root>
    </mxGraphModel>
  </diagram>
</mxfile>
